%TF.GenerationSoftware,KiCad,Pcbnew,9.0.0*%
%TF.CreationDate,2026-04-02T13:30:26+02:00*%
%TF.ProjectId,Sch_matique_PCB,536368e9-6d61-4746-9971-75655f504342,rev?*%
%TF.SameCoordinates,Original*%
%TF.FileFunction,Soldermask,Top*%
%TF.FilePolarity,Negative*%
%FSLAX46Y46*%
G04 Gerber Fmt 4.6, Leading zero omitted, Abs format (unit mm)*
G04 Created by KiCad (PCBNEW 9.0.0) date 2026-04-02 13:30:26*
%MOMM*%
%LPD*%
G01*
G04 APERTURE LIST*
G04 Aperture macros list*
%AMRoundRect*
0 Rectangle with rounded corners*
0 $1 Rounding radius*
0 $2 $3 $4 $5 $6 $7 $8 $9 X,Y pos of 4 corners*
0 Add a 4 corners polygon primitive as box body*
4,1,4,$2,$3,$4,$5,$6,$7,$8,$9,$2,$3,0*
0 Add four circle primitives for the rounded corners*
1,1,$1+$1,$2,$3*
1,1,$1+$1,$4,$5*
1,1,$1+$1,$6,$7*
1,1,$1+$1,$8,$9*
0 Add four rect primitives between the rounded corners*
20,1,$1+$1,$2,$3,$4,$5,0*
20,1,$1+$1,$4,$5,$6,$7,0*
20,1,$1+$1,$6,$7,$8,$9,0*
20,1,$1+$1,$8,$9,$2,$3,0*%
G04 Aperture macros list end*
%ADD10C,5.600000*%
%ADD11RoundRect,0.250000X-0.450000X0.350000X-0.450000X-0.350000X0.450000X-0.350000X0.450000X0.350000X0*%
%ADD12RoundRect,0.250000X0.450000X-0.350000X0.450000X0.350000X-0.450000X0.350000X-0.450000X-0.350000X0*%
%ADD13RoundRect,0.250000X0.350000X0.450000X-0.350000X0.450000X-0.350000X-0.450000X0.350000X-0.450000X0*%
%ADD14R,1.700000X1.700000*%
%ADD15O,1.700000X1.700000*%
%ADD16RoundRect,0.250000X-0.350000X-0.450000X0.350000X-0.450000X0.350000X0.450000X-0.350000X0.450000X0*%
%ADD17C,1.700000*%
%ADD18RoundRect,0.250000X0.600000X-0.600000X0.600000X0.600000X-0.600000X0.600000X-0.600000X-0.600000X0*%
%ADD19RoundRect,0.102000X-0.300000X0.450000X-0.300000X-0.450000X0.300000X-0.450000X0.300000X0.450000X0*%
%ADD20RoundRect,0.250000X0.325000X0.450000X-0.325000X0.450000X-0.325000X-0.450000X0.325000X-0.450000X0*%
%ADD21RoundRect,0.250000X0.475000X-0.337500X0.475000X0.337500X-0.475000X0.337500X-0.475000X-0.337500X0*%
%ADD22RoundRect,0.250000X-0.475000X0.337500X-0.475000X-0.337500X0.475000X-0.337500X0.475000X0.337500X0*%
%ADD23RoundRect,0.250000X-0.450000X0.325000X-0.450000X-0.325000X0.450000X-0.325000X0.450000X0.325000X0*%
%ADD24RoundRect,0.075000X-0.700000X-0.075000X0.700000X-0.075000X0.700000X0.075000X-0.700000X0.075000X0*%
%ADD25RoundRect,0.075000X-0.075000X-0.700000X0.075000X-0.700000X0.075000X0.700000X-0.075000X0.700000X0*%
%ADD26O,1.200000X1.750000*%
%ADD27RoundRect,0.250000X-0.350000X-0.625000X0.350000X-0.625000X0.350000X0.625000X-0.350000X0.625000X0*%
%ADD28R,1.700000X0.900000*%
G04 APERTURE END LIST*
D10*
%TO.C,H4*%
X146234000Y-136934000D03*
%TD*%
D11*
%TO.C,R13*%
X186234000Y-129934000D03*
X186234000Y-131934000D03*
%TD*%
%TO.C,R16*%
X154871500Y-129934000D03*
X154871500Y-131934000D03*
%TD*%
%TO.C,R14*%
X168234000Y-131934000D03*
X168234000Y-129934000D03*
%TD*%
D10*
%TO.C,H1*%
X146234000Y-86934000D03*
%TD*%
%TO.C,H3*%
X196234000Y-136934000D03*
%TD*%
D11*
%TO.C,R12*%
X180234000Y-131934000D03*
X180234000Y-129934000D03*
%TD*%
D12*
%TO.C,R11*%
X168234000Y-103934000D03*
X168234000Y-101934000D03*
%TD*%
%TO.C,R9*%
X172234000Y-103934000D03*
X172234000Y-101934000D03*
%TD*%
D13*
%TO.C,R5*%
X158234000Y-109934000D03*
X156234000Y-109934000D03*
%TD*%
%TO.C,R6*%
X158234000Y-107934000D03*
X156234000Y-107934000D03*
%TD*%
D12*
%TO.C,R8*%
X176234000Y-103934000D03*
X176234000Y-101934000D03*
%TD*%
%TO.C,R7*%
X174234000Y-103934000D03*
X174234000Y-101934000D03*
%TD*%
D14*
%TO.C,J17*%
X146234000Y-109154000D03*
D15*
X146234000Y-111694000D03*
X146234000Y-114234000D03*
X146234000Y-116774000D03*
X146234000Y-119314000D03*
X146234000Y-121854000D03*
X146234000Y-124394000D03*
X146234000Y-126934000D03*
X146234000Y-129474000D03*
%TD*%
D16*
%TO.C,R3*%
X185234000Y-93934000D03*
X183234000Y-93934000D03*
%TD*%
D11*
%TO.C,R10*%
X157234000Y-114934000D03*
X157234000Y-116934000D03*
%TD*%
%TO.C,R1*%
X179234000Y-117934000D03*
X179234000Y-119934000D03*
%TD*%
D17*
%TO.C,J19*%
X171234000Y-86394000D03*
X171234000Y-88934000D03*
X168694000Y-86394000D03*
X168694000Y-88934000D03*
X166154000Y-86394000D03*
X166154000Y-88934000D03*
X163614000Y-86394000D03*
X163614000Y-88934000D03*
X161074000Y-86394000D03*
X161074000Y-88934000D03*
X158534000Y-86394000D03*
X158534000Y-88934000D03*
X155994000Y-86394000D03*
D18*
X155994000Y-88934000D03*
%TD*%
D13*
%TO.C,R4*%
X156234000Y-111934000D03*
X158234000Y-111934000D03*
%TD*%
D19*
%TO.C,PS1*%
X179184000Y-90584000D03*
X178234000Y-90584000D03*
X177284000Y-90584000D03*
X177284000Y-93384000D03*
X179184000Y-93384000D03*
%TD*%
D14*
%TO.C,J14*%
X175234000Y-136394000D03*
D15*
X175234000Y-138934000D03*
%TD*%
%TO.C,J9*%
X197234000Y-98384000D03*
X194694000Y-98384000D03*
D14*
X192154000Y-98384000D03*
%TD*%
D15*
%TO.C,J6*%
X197234000Y-112334000D03*
X194694000Y-112334000D03*
D14*
X192154000Y-112334000D03*
%TD*%
D15*
%TO.C,J7*%
X197234000Y-107684000D03*
X194694000Y-107684000D03*
D14*
X192154000Y-107684000D03*
%TD*%
%TO.C,J12*%
X163234000Y-136394000D03*
D15*
X163234000Y-138934000D03*
%TD*%
%TO.C,J10*%
X197234000Y-93734000D03*
X194694000Y-93734000D03*
D14*
X192154000Y-93734000D03*
%TD*%
%TO.C,J13*%
X169234000Y-136394000D03*
D15*
X169234000Y-138934000D03*
%TD*%
%TO.C,J5*%
X197234000Y-116984000D03*
X194694000Y-116984000D03*
D14*
X192154000Y-116984000D03*
%TD*%
D15*
%TO.C,J4*%
X197234000Y-121634000D03*
X194694000Y-121634000D03*
D14*
X192154000Y-121634000D03*
%TD*%
D20*
%TO.C,D2*%
X185259000Y-96934000D03*
X183209000Y-96934000D03*
%TD*%
D21*
%TO.C,C19*%
X167234000Y-125934000D03*
X167234000Y-123859000D03*
%TD*%
D14*
%TO.C,J18*%
X145774000Y-92774000D03*
D15*
X145774000Y-95314000D03*
X145774000Y-97854000D03*
X145774000Y-100394000D03*
X145774000Y-102934000D03*
%TD*%
D21*
%TO.C,C17*%
X150234000Y-110971500D03*
X150234000Y-108896500D03*
%TD*%
%TO.C,C14*%
X176234000Y-131934000D03*
X176234000Y-129859000D03*
%TD*%
%TO.C,C16*%
X188234000Y-131934000D03*
X188234000Y-129859000D03*
%TD*%
D22*
%TO.C,C12*%
X161704000Y-129479900D03*
X161704000Y-131554900D03*
%TD*%
D21*
%TO.C,C13*%
X170234000Y-131934000D03*
X170234000Y-129859000D03*
%TD*%
%TO.C,C11*%
X157234000Y-131934000D03*
X157234000Y-129859000D03*
%TD*%
D23*
%TO.C,D1*%
X182234000Y-117909000D03*
X182234000Y-119959000D03*
%TD*%
D21*
%TO.C,C15*%
X182234000Y-131934000D03*
X182234000Y-129859000D03*
%TD*%
D22*
%TO.C,C6*%
X156214000Y-101859000D03*
X156214000Y-103934000D03*
%TD*%
%TO.C,C3*%
X165244000Y-101859000D03*
X165244000Y-103934000D03*
%TD*%
%TO.C,C1*%
X181234000Y-85896500D03*
X181234000Y-87971500D03*
%TD*%
%TO.C,C10*%
X170234000Y-123896500D03*
X170234000Y-125971500D03*
%TD*%
D10*
%TO.C,H2*%
X196234000Y-86934000D03*
%TD*%
D22*
%TO.C,C7*%
X153204000Y-101859000D03*
X153204000Y-103934000D03*
%TD*%
D21*
%TO.C,C2*%
X179234000Y-96859000D03*
X179234000Y-98934000D03*
%TD*%
D22*
%TO.C,C4*%
X162234000Y-101859000D03*
X162234000Y-103934000D03*
%TD*%
D14*
%TO.C,J15*%
X181234000Y-136394000D03*
D15*
X181234000Y-138934000D03*
%TD*%
D12*
%TO.C,R15*%
X163704000Y-131479900D03*
X163704000Y-129479900D03*
%TD*%
D21*
%TO.C,C18*%
X158881500Y-119726500D03*
X158881500Y-121801500D03*
%TD*%
D15*
%TO.C,J8*%
X197234000Y-103034000D03*
X194694000Y-103034000D03*
D14*
X192154000Y-103034000D03*
%TD*%
D22*
%TO.C,C8*%
X173234000Y-123896500D03*
X173234000Y-125971500D03*
%TD*%
D24*
%TO.C,U1*%
X164559000Y-110184000D03*
X164559000Y-110684000D03*
X164559000Y-111184000D03*
X164559000Y-111684000D03*
X164559000Y-112184000D03*
X164559000Y-112684000D03*
X164559000Y-113184000D03*
X164559000Y-113684000D03*
X164559000Y-114184000D03*
X164559000Y-114684000D03*
X164559000Y-115184000D03*
X164559000Y-115684000D03*
X164559000Y-116184000D03*
X164559000Y-116684000D03*
X164559000Y-117184000D03*
X164559000Y-117684000D03*
D25*
X166484000Y-119609000D03*
X166984000Y-119609000D03*
X167484000Y-119609000D03*
X167984000Y-119609000D03*
X168484000Y-119609000D03*
X168984000Y-119609000D03*
X169484000Y-119609000D03*
X169984000Y-119609000D03*
X170484000Y-119609000D03*
X170984000Y-119609000D03*
X171484000Y-119609000D03*
X171984000Y-119609000D03*
X172484000Y-119609000D03*
X172984000Y-119609000D03*
X173484000Y-119609000D03*
X173984000Y-119609000D03*
D24*
X175909000Y-117684000D03*
X175909000Y-117184000D03*
X175909000Y-116684000D03*
X175909000Y-116184000D03*
X175909000Y-115684000D03*
X175909000Y-115184000D03*
X175909000Y-114684000D03*
X175909000Y-114184000D03*
X175909000Y-113684000D03*
X175909000Y-113184000D03*
X175909000Y-112684000D03*
X175909000Y-112184000D03*
X175909000Y-111684000D03*
X175909000Y-111184000D03*
X175909000Y-110684000D03*
X175909000Y-110184000D03*
D25*
X173984000Y-108259000D03*
X173484000Y-108259000D03*
X172984000Y-108259000D03*
X172484000Y-108259000D03*
X171984000Y-108259000D03*
X171484000Y-108259000D03*
X170984000Y-108259000D03*
X170484000Y-108259000D03*
X169984000Y-108259000D03*
X169484000Y-108259000D03*
X168984000Y-108259000D03*
X168484000Y-108259000D03*
X167984000Y-108259000D03*
X167484000Y-108259000D03*
X166984000Y-108259000D03*
X166484000Y-108259000D03*
%TD*%
D15*
%TO.C,J1*%
X197234000Y-130934000D03*
X194694000Y-130934000D03*
D14*
X192154000Y-130934000D03*
%TD*%
D22*
%TO.C,C9*%
X175234000Y-123896500D03*
X175234000Y-125971500D03*
%TD*%
D14*
%TO.C,J16*%
X187234000Y-136394000D03*
D15*
X187234000Y-138934000D03*
%TD*%
%TO.C,J3*%
X197234000Y-126284000D03*
X194694000Y-126284000D03*
D14*
X192154000Y-126284000D03*
%TD*%
D11*
%TO.C,R2*%
X174234000Y-131934000D03*
X174234000Y-129934000D03*
%TD*%
D14*
%TO.C,J11*%
X156234000Y-136394000D03*
D15*
X156234000Y-138934000D03*
%TD*%
D26*
%TO.C,J2*%
X188234000Y-85934000D03*
D27*
X186234000Y-85934000D03*
%TD*%
D22*
%TO.C,C5*%
X159224000Y-101859000D03*
X159224000Y-103934000D03*
%TD*%
D28*
%TO.C,SW1*%
X154881500Y-122764000D03*
X154881500Y-119364000D03*
%TD*%
M02*
