%TF.GenerationSoftware,KiCad,Pcbnew,9.0.0*%
%TF.CreationDate,2026-04-02T13:31:21+02:00*%
%TF.ProjectId,Sch_matique_PCB,536368e9-6d61-4746-9971-75655f504342,rev?*%
%TF.SameCoordinates,Original*%
%TF.FileFunction,Plated,1,2,PTH,Drill*%
%TF.FilePolarity,Positive*%
%FSLAX46Y46*%
G04 Gerber Fmt 4.6, Leading zero omitted, Abs format (unit mm)*
G04 Created by KiCad (PCBNEW 9.0.0) date 2026-04-02 13:31:21*
%MOMM*%
%LPD*%
G01*
G04 APERTURE LIST*
%TA.AperFunction,ViaDrill*%
%ADD10C,0.300000*%
%TD*%
%TA.AperFunction,ViaDrill*%
%ADD11C,0.600000*%
%TD*%
%TA.AperFunction,ComponentDrill*%
%ADD12C,0.750000*%
%TD*%
%TA.AperFunction,ComponentDrill*%
%ADD13C,1.000000*%
%TD*%
%TA.AperFunction,ComponentDrill*%
%ADD14C,3.200000*%
%TD*%
G04 APERTURE END LIST*
D10*
X150600000Y-122390000D03*
X151070000Y-130660000D03*
X151740000Y-99410000D03*
X154034200Y-111933600D03*
X155130000Y-117310000D03*
X159210000Y-118210000D03*
X160380000Y-110804600D03*
X162018700Y-125651600D03*
X162899800Y-119976700D03*
X163307700Y-113186300D03*
X163723600Y-118709100D03*
X164005900Y-120113000D03*
X164911700Y-108690000D03*
X164985700Y-131667000D03*
X165129900Y-121618600D03*
X165136300Y-120469400D03*
X165897600Y-121401500D03*
X166042300Y-122853700D03*
X166110000Y-110030000D03*
X166530000Y-112160000D03*
X167720400Y-114280500D03*
X167809400Y-122031000D03*
X168022300Y-122839100D03*
X168336800Y-121315700D03*
X168367700Y-111933600D03*
X168530000Y-109900000D03*
X168957400Y-113988000D03*
X169990000Y-121960000D03*
X170287000Y-115749300D03*
X170340000Y-117020000D03*
X170374800Y-127200000D03*
X170899800Y-121175700D03*
X171815500Y-132110800D03*
X172030000Y-109820000D03*
X172187500Y-88018900D03*
X172189100Y-89922000D03*
X172540000Y-112940000D03*
X172804500Y-132029700D03*
X172834000Y-120920000D03*
X173607400Y-106915700D03*
X173790000Y-116380000D03*
X173886000Y-114800300D03*
X174334400Y-106300600D03*
X174410000Y-121960000D03*
X174655707Y-119864293D03*
X174743900Y-118990400D03*
X174745600Y-120877167D03*
X175060000Y-96440000D03*
X175179300Y-100237900D03*
X176648900Y-120010300D03*
X176750000Y-121640000D03*
X177680600Y-131892900D03*
X177838300Y-103278900D03*
X178234000Y-90584000D03*
X180010000Y-125140000D03*
X180200000Y-121970000D03*
X182701200Y-103333500D03*
X183153400Y-113744200D03*
X188270000Y-94290000D03*
X188434600Y-120573800D03*
X188730000Y-133525000D03*
X190750000Y-134180000D03*
X191220000Y-128620000D03*
X191220000Y-138220000D03*
D11*
X150590000Y-113940000D03*
X157055601Y-113534000D03*
X158800000Y-129010000D03*
X159505000Y-131780000D03*
X166452931Y-105602931D03*
X166575000Y-99990000D03*
X178713300Y-110730000D03*
X183990000Y-129980000D03*
X186540000Y-126630000D03*
X188310000Y-123255000D03*
D12*
%TO.C,J2*%
X186234000Y-85934000D03*
X188234000Y-85934000D03*
D13*
%TO.C,J18*%
X145774000Y-92774000D03*
X145774000Y-95314000D03*
X145774000Y-97854000D03*
X145774000Y-100394000D03*
X145774000Y-102934000D03*
%TO.C,J17*%
X146234000Y-109154000D03*
X146234000Y-111694000D03*
X146234000Y-114234000D03*
X146234000Y-116774000D03*
X146234000Y-119314000D03*
X146234000Y-121854000D03*
X146234000Y-124394000D03*
X146234000Y-126934000D03*
X146234000Y-129474000D03*
%TO.C,J19*%
X155994000Y-86394000D03*
X155994000Y-88934000D03*
%TO.C,J11*%
X156234000Y-136394000D03*
X156234000Y-138934000D03*
%TO.C,J19*%
X158534000Y-86394000D03*
X158534000Y-88934000D03*
X161074000Y-86394000D03*
X161074000Y-88934000D03*
%TO.C,J12*%
X163234000Y-136394000D03*
X163234000Y-138934000D03*
%TO.C,J19*%
X163614000Y-86394000D03*
X163614000Y-88934000D03*
X166154000Y-86394000D03*
X166154000Y-88934000D03*
X168694000Y-86394000D03*
X168694000Y-88934000D03*
%TO.C,J13*%
X169234000Y-136394000D03*
X169234000Y-138934000D03*
%TO.C,J19*%
X171234000Y-86394000D03*
X171234000Y-88934000D03*
%TO.C,J14*%
X175234000Y-136394000D03*
X175234000Y-138934000D03*
%TO.C,J15*%
X181234000Y-136394000D03*
X181234000Y-138934000D03*
%TO.C,J16*%
X187234000Y-136394000D03*
X187234000Y-138934000D03*
%TO.C,J10*%
X192154000Y-93734000D03*
%TO.C,J9*%
X192154000Y-98384000D03*
%TO.C,J8*%
X192154000Y-103034000D03*
%TO.C,J7*%
X192154000Y-107684000D03*
%TO.C,J6*%
X192154000Y-112334000D03*
%TO.C,J5*%
X192154000Y-116984000D03*
%TO.C,J4*%
X192154000Y-121634000D03*
%TO.C,J3*%
X192154000Y-126284000D03*
%TO.C,J1*%
X192154000Y-130934000D03*
%TO.C,J10*%
X194694000Y-93734000D03*
%TO.C,J9*%
X194694000Y-98384000D03*
%TO.C,J8*%
X194694000Y-103034000D03*
%TO.C,J7*%
X194694000Y-107684000D03*
%TO.C,J6*%
X194694000Y-112334000D03*
%TO.C,J5*%
X194694000Y-116984000D03*
%TO.C,J4*%
X194694000Y-121634000D03*
%TO.C,J3*%
X194694000Y-126284000D03*
%TO.C,J1*%
X194694000Y-130934000D03*
%TO.C,J10*%
X197234000Y-93734000D03*
%TO.C,J9*%
X197234000Y-98384000D03*
%TO.C,J8*%
X197234000Y-103034000D03*
%TO.C,J7*%
X197234000Y-107684000D03*
%TO.C,J6*%
X197234000Y-112334000D03*
%TO.C,J5*%
X197234000Y-116984000D03*
%TO.C,J4*%
X197234000Y-121634000D03*
%TO.C,J3*%
X197234000Y-126284000D03*
%TO.C,J1*%
X197234000Y-130934000D03*
D14*
%TO.C,H1*%
X146234000Y-86934000D03*
%TO.C,H4*%
X146234000Y-136934000D03*
%TO.C,H2*%
X196234000Y-86934000D03*
%TO.C,H3*%
X196234000Y-136934000D03*
M02*
