%TF.GenerationSoftware,KiCad,Pcbnew,9.0.0*%
%TF.CreationDate,2026-04-02T13:30:26+02:00*%
%TF.ProjectId,Sch_matique_PCB,536368e9-6d61-4746-9971-75655f504342,rev?*%
%TF.SameCoordinates,Original*%
%TF.FileFunction,Copper,L2,Bot*%
%TF.FilePolarity,Positive*%
%FSLAX46Y46*%
G04 Gerber Fmt 4.6, Leading zero omitted, Abs format (unit mm)*
G04 Created by KiCad (PCBNEW 9.0.0) date 2026-04-02 13:30:26*
%MOMM*%
%LPD*%
G01*
G04 APERTURE LIST*
G04 Aperture macros list*
%AMRoundRect*
0 Rectangle with rounded corners*
0 $1 Rounding radius*
0 $2 $3 $4 $5 $6 $7 $8 $9 X,Y pos of 4 corners*
0 Add a 4 corners polygon primitive as box body*
4,1,4,$2,$3,$4,$5,$6,$7,$8,$9,$2,$3,0*
0 Add four circle primitives for the rounded corners*
1,1,$1+$1,$2,$3*
1,1,$1+$1,$4,$5*
1,1,$1+$1,$6,$7*
1,1,$1+$1,$8,$9*
0 Add four rect primitives between the rounded corners*
20,1,$1+$1,$2,$3,$4,$5,0*
20,1,$1+$1,$4,$5,$6,$7,0*
20,1,$1+$1,$6,$7,$8,$9,0*
20,1,$1+$1,$8,$9,$2,$3,0*%
G04 Aperture macros list end*
%ADD10C,0.300000*%
%TA.AperFunction,NonConductor*%
%ADD11C,0.300000*%
%TD*%
%TA.AperFunction,ComponentPad*%
%ADD12C,5.600000*%
%TD*%
%TA.AperFunction,ComponentPad*%
%ADD13R,1.700000X1.700000*%
%TD*%
%TA.AperFunction,ComponentPad*%
%ADD14O,1.700000X1.700000*%
%TD*%
%TA.AperFunction,ComponentPad*%
%ADD15C,1.700000*%
%TD*%
%TA.AperFunction,ComponentPad*%
%ADD16RoundRect,0.250000X0.600000X-0.600000X0.600000X0.600000X-0.600000X0.600000X-0.600000X-0.600000X0*%
%TD*%
%TA.AperFunction,ComponentPad*%
%ADD17O,1.200000X1.750000*%
%TD*%
%TA.AperFunction,ComponentPad*%
%ADD18RoundRect,0.250000X-0.350000X-0.625000X0.350000X-0.625000X0.350000X0.625000X-0.350000X0.625000X0*%
%TD*%
%TA.AperFunction,ViaPad*%
%ADD19C,0.600000*%
%TD*%
%TA.AperFunction,ViaPad*%
%ADD20C,1.200000*%
%TD*%
%TA.AperFunction,Conductor*%
%ADD21C,0.150000*%
%TD*%
%TA.AperFunction,Conductor*%
%ADD22C,0.300000*%
%TD*%
G04 APERTURE END LIST*
D10*
D11*
X191595489Y-87245114D02*
X191381203Y-87316542D01*
X191381203Y-87316542D02*
X191309774Y-87387971D01*
X191309774Y-87387971D02*
X191238346Y-87530828D01*
X191238346Y-87530828D02*
X191238346Y-87745114D01*
X191238346Y-87745114D02*
X191309774Y-87887971D01*
X191309774Y-87887971D02*
X191381203Y-87959400D01*
X191381203Y-87959400D02*
X191524060Y-88030828D01*
X191524060Y-88030828D02*
X192095489Y-88030828D01*
X192095489Y-88030828D02*
X192095489Y-86530828D01*
X192095489Y-86530828D02*
X191595489Y-86530828D01*
X191595489Y-86530828D02*
X191452632Y-86602257D01*
X191452632Y-86602257D02*
X191381203Y-86673685D01*
X191381203Y-86673685D02*
X191309774Y-86816542D01*
X191309774Y-86816542D02*
X191309774Y-86959400D01*
X191309774Y-86959400D02*
X191381203Y-87102257D01*
X191381203Y-87102257D02*
X191452632Y-87173685D01*
X191452632Y-87173685D02*
X191595489Y-87245114D01*
X191595489Y-87245114D02*
X192095489Y-87245114D01*
D12*
%TO.P,H4,1,1*%
%TO.N,GND*%
X146234000Y-136934000D03*
%TD*%
%TO.P,H1,1,1*%
%TO.N,GND*%
X146234000Y-86934000D03*
%TD*%
%TO.P,H3,1,1*%
%TO.N,GND*%
X196234000Y-136934000D03*
%TD*%
D13*
%TO.P,J17,1,Pin_1*%
%TO.N,+3V3*%
X146234000Y-109154000D03*
D14*
%TO.P,J17,2,Pin_2*%
%TO.N,GND*%
X146234000Y-111694000D03*
%TO.P,J17,3,Pin_3*%
%TO.N,CS Screen*%
X146234000Y-114234000D03*
%TO.P,J17,4,Pin_4*%
%TO.N,Reset Screen*%
X146234000Y-116774000D03*
%TO.P,J17,5,Pin_5*%
%TO.N,D{slash}C*%
X146234000Y-119314000D03*
%TO.P,J17,6,Pin_6*%
%TO.N,SDI (MOSI)*%
X146234000Y-121854000D03*
%TO.P,J17,7,Pin_7*%
%TO.N,SCK*%
X146234000Y-124394000D03*
%TO.P,J17,8,Pin_8*%
%TO.N,Retro*%
X146234000Y-126934000D03*
%TO.P,J17,9,Pin_9*%
%TO.N,SDO (MISO)*%
X146234000Y-129474000D03*
%TD*%
D15*
%TO.P,J19,14,VCP_TX*%
%TO.N,STLINK_TX*%
X171234000Y-86394000D03*
%TO.P,J19,13,VCP_RX*%
%TO.N,STLINK_RX*%
X171234000Y-88934000D03*
%TO.P,J19,12,~{RST}*%
%TO.N,NRST*%
X168694000Y-86394000D03*
%TO.P,J19,11,GNDDetect*%
%TO.N,GND*%
X168694000Y-88934000D03*
%TO.P,J19,10,JTDI/NC*%
%TO.N,unconnected-(J19-JTDI{slash}NC-Pad10)*%
X166154000Y-86394000D03*
%TO.P,J19,9,JRCLK/NC*%
%TO.N,unconnected-(J19-JRCLK{slash}NC-Pad9)*%
X166154000Y-88934000D03*
%TO.P,J19,8,JTDO/SWO*%
%TO.N,unconnected-(J19-JTDO{slash}SWO-Pad8)*%
X163614000Y-86394000D03*
%TO.P,J19,7,GND*%
%TO.N,GND*%
X163614000Y-88934000D03*
%TO.P,J19,6,JCLK/SWCLK*%
%TO.N,SWCLK*%
X161074000Y-86394000D03*
%TO.P,J19,5,GND*%
%TO.N,GND*%
X161074000Y-88934000D03*
%TO.P,J19,4,JTMS/SWDIO*%
%TO.N,SWDIO*%
X158534000Y-86394000D03*
%TO.P,J19,3,VCC*%
%TO.N,+3V3*%
X158534000Y-88934000D03*
%TO.P,J19,2,NC*%
%TO.N,unconnected-(J19-NC-Pad2)*%
X155994000Y-86394000D03*
D16*
%TO.P,J19,1,NC*%
%TO.N,unconnected-(J19-NC-Pad1)*%
X155994000Y-88934000D03*
%TD*%
D13*
%TO.P,J14,1,Pin_1*%
%TO.N,Reed4*%
X175234000Y-136394000D03*
D14*
%TO.P,J14,2,Pin_2*%
%TO.N,GND*%
X175234000Y-138934000D03*
%TD*%
%TO.P,J9,3,Pin_3*%
%TO.N,+3V3*%
X197234000Y-98384000D03*
%TO.P,J9,2,Pin_2*%
%TO.N,TSensor8*%
X194694000Y-98384000D03*
D13*
%TO.P,J9,1,Pin_1*%
%TO.N,GND*%
X192154000Y-98384000D03*
%TD*%
D14*
%TO.P,J6,3,Pin_3*%
%TO.N,+3V3*%
X197234000Y-112334000D03*
%TO.P,J6,2,Pin_2*%
%TO.N,TSensor5*%
X194694000Y-112334000D03*
D13*
%TO.P,J6,1,Pin_1*%
%TO.N,GND*%
X192154000Y-112334000D03*
%TD*%
D14*
%TO.P,J7,3,Pin_3*%
%TO.N,+3V3*%
X197234000Y-107684000D03*
%TO.P,J7,2,Pin_2*%
%TO.N,TSensor6*%
X194694000Y-107684000D03*
D13*
%TO.P,J7,1,Pin_1*%
%TO.N,GND*%
X192154000Y-107684000D03*
%TD*%
%TO.P,J12,1,Pin_1*%
%TO.N,Reed2*%
X163234000Y-136394000D03*
D14*
%TO.P,J12,2,Pin_2*%
%TO.N,GND*%
X163234000Y-138934000D03*
%TD*%
%TO.P,J10,3,Pin_3*%
%TO.N,+3V3*%
X197234000Y-93734000D03*
%TO.P,J10,2,Pin_2*%
%TO.N,TSensor9*%
X194694000Y-93734000D03*
D13*
%TO.P,J10,1,Pin_1*%
%TO.N,GND*%
X192154000Y-93734000D03*
%TD*%
%TO.P,J13,1,Pin_1*%
%TO.N,Reed3*%
X169234000Y-136394000D03*
D14*
%TO.P,J13,2,Pin_2*%
%TO.N,GND*%
X169234000Y-138934000D03*
%TD*%
%TO.P,J5,3,Pin_3*%
%TO.N,+3V3*%
X197234000Y-116984000D03*
%TO.P,J5,2,Pin_2*%
%TO.N,TSensor4*%
X194694000Y-116984000D03*
D13*
%TO.P,J5,1,Pin_1*%
%TO.N,GND*%
X192154000Y-116984000D03*
%TD*%
D14*
%TO.P,J4,3,Pin_3*%
%TO.N,+3V3*%
X197234000Y-121634000D03*
%TO.P,J4,2,Pin_2*%
%TO.N,TSensor3*%
X194694000Y-121634000D03*
D13*
%TO.P,J4,1,Pin_1*%
%TO.N,GND*%
X192154000Y-121634000D03*
%TD*%
%TO.P,J18,1,Pin_1*%
%TO.N,SD_CS*%
X145774000Y-92774000D03*
D14*
%TO.P,J18,2,Pin_2*%
%TO.N,SDI (MOSI)*%
X145774000Y-95314000D03*
%TO.P,J18,3,Pin_3*%
%TO.N,SDO (MISO)*%
X145774000Y-97854000D03*
%TO.P,J18,4,Pin_4*%
%TO.N,SCK*%
X145774000Y-100394000D03*
%TO.P,J18,5,Pin_5*%
%TO.N,unconnected-(J18-Pin_5-Pad5)*%
X145774000Y-102934000D03*
%TD*%
D12*
%TO.P,H2,1,1*%
%TO.N,GND*%
X196234000Y-86934000D03*
%TD*%
D13*
%TO.P,J15,1,Pin_1*%
%TO.N,Reed5*%
X181234000Y-136394000D03*
D14*
%TO.P,J15,2,Pin_2*%
%TO.N,GND*%
X181234000Y-138934000D03*
%TD*%
%TO.P,J8,3,Pin_3*%
%TO.N,+3V3*%
X197234000Y-103034000D03*
%TO.P,J8,2,Pin_2*%
%TO.N,TSensor7*%
X194694000Y-103034000D03*
D13*
%TO.P,J8,1,Pin_1*%
%TO.N,GND*%
X192154000Y-103034000D03*
%TD*%
D14*
%TO.P,J1,3,Pin_3*%
%TO.N,+3V3*%
X197234000Y-130934000D03*
%TO.P,J1,2,Pin_2*%
%TO.N,TSensor1*%
X194694000Y-130934000D03*
D13*
%TO.P,J1,1,Pin_1*%
%TO.N,GND*%
X192154000Y-130934000D03*
%TD*%
%TO.P,J16,1,Pin_1*%
%TO.N,Reed6*%
X187234000Y-136394000D03*
D14*
%TO.P,J16,2,Pin_2*%
%TO.N,GND*%
X187234000Y-138934000D03*
%TD*%
%TO.P,J3,3,Pin_3*%
%TO.N,+3V3*%
X197234000Y-126284000D03*
%TO.P,J3,2,Pin_2*%
%TO.N,TSensor2*%
X194694000Y-126284000D03*
D13*
%TO.P,J3,1,Pin_1*%
%TO.N,GND*%
X192154000Y-126284000D03*
%TD*%
%TO.P,J11,1,Pin_1*%
%TO.N,Reed1*%
X156234000Y-136394000D03*
D14*
%TO.P,J11,2,Pin_2*%
%TO.N,GND*%
X156234000Y-138934000D03*
%TD*%
D17*
%TO.P,J2,2,Pin_2*%
%TO.N,GND*%
X188234000Y-85934000D03*
D18*
%TO.P,J2,1,Pin_1*%
%TO.N,LIPO1S*%
X186234000Y-85934000D03*
%TD*%
D19*
%TO.N,GND*%
X169990000Y-121960000D03*
X174410000Y-121960000D03*
X180200000Y-121970000D03*
X176750000Y-121640000D03*
X174655707Y-119864293D03*
X173790000Y-116380000D03*
X170340000Y-117020000D03*
X166530000Y-112160000D03*
X172540000Y-112940000D03*
X166110000Y-110030000D03*
X172030000Y-109820000D03*
X168530000Y-109900000D03*
X178234000Y-90584000D03*
X191220000Y-138220000D03*
X151070000Y-130660000D03*
X151740000Y-99410000D03*
X188270000Y-94290000D03*
X150600000Y-122390000D03*
X180010000Y-125140000D03*
D20*
X166575000Y-99990000D03*
X166452931Y-105602931D03*
X150590000Y-113940000D03*
X157055601Y-113534000D03*
X178713300Y-110730000D03*
%TO.N,+3V3*%
X188310000Y-123255000D03*
X186540000Y-126630000D03*
%TO.N,GND*%
X183990000Y-129980000D03*
D19*
%TO.N,TSensor5*%
X190750000Y-134180000D03*
%TO.N,CS Screen*%
X159210000Y-118210000D03*
X155130000Y-117310000D03*
%TO.N,SD_CS*%
X174745600Y-120877167D03*
X172834000Y-120920000D03*
%TO.N,TSensor1*%
X188730000Y-133525000D03*
X191220000Y-128620000D03*
D20*
%TO.N,GND*%
X159505000Y-131780000D03*
X158800000Y-129010000D03*
D19*
%TO.N,SWDIO*%
X174334400Y-106300600D03*
X172187500Y-88018900D03*
%TO.N,STLINK_RX*%
X170287000Y-115749300D03*
%TO.N,STLINK_TX*%
X165136300Y-120469400D03*
%TO.N,SWCLK*%
X172189100Y-89922000D03*
X173607400Y-106915700D03*
%TO.N,SD_CS*%
X176648900Y-120010300D03*
X175060000Y-96440000D03*
%TO.N,D{slash}C*%
X162899800Y-119976700D03*
X170899800Y-121175700D03*
%TO.N,Retro*%
X163307700Y-113186300D03*
X162018700Y-125651600D03*
%TO.N,Reset Screen*%
X165129900Y-121618600D03*
X167809400Y-122031000D03*
%TO.N,SDI (MOSI)*%
X165897600Y-121401500D03*
X166042300Y-122853700D03*
%TO.N,TSensor9*%
X183153400Y-113744200D03*
%TO.N,TSensor6*%
X188434600Y-120573800D03*
X168022300Y-122839100D03*
X168336800Y-121315700D03*
%TO.N,TSensor5*%
X164005900Y-120113000D03*
X164985700Y-131667000D03*
%TO.N,TSensor3*%
X173886000Y-114800300D03*
X174743900Y-118990400D03*
%TO.N,TSensor2*%
X170374800Y-127200000D03*
X167720400Y-114280500D03*
%TO.N,TSensor1*%
X171815500Y-132110800D03*
X168957400Y-113988000D03*
%TO.N,NRST*%
X168367700Y-111933600D03*
X163723600Y-118709100D03*
%TO.N,Reed6*%
X182701200Y-103333500D03*
%TO.N,Reed5*%
X177838300Y-103278900D03*
X177680600Y-131892900D03*
%TO.N,Reed4*%
X175179300Y-100237900D03*
X172804500Y-132029700D03*
%TO.N,Reed3*%
X164911700Y-108690000D03*
%TO.N,Reed2*%
X160380000Y-110804600D03*
%TO.N,Reed1*%
X154034200Y-111933600D03*
%TD*%
D21*
%TO.N,Reed4*%
X174810000Y-100607200D02*
X175179300Y-100237900D01*
X174810000Y-106032323D02*
X174810000Y-100607200D01*
X174860400Y-106082723D02*
X174810000Y-106032323D01*
X174860400Y-106518477D02*
X174860400Y-106082723D01*
X174810000Y-106568877D02*
X174860400Y-106518477D01*
X174810000Y-115298622D02*
X174810000Y-106568877D01*
X175044900Y-115533522D02*
X174810000Y-115298622D01*
X175044900Y-118547523D02*
X175044900Y-115533522D01*
X175269900Y-118772523D02*
X175044900Y-118547523D01*
X175269900Y-119208277D02*
X175269900Y-118772523D01*
X175290000Y-119228377D02*
X175269900Y-119208277D01*
X175290000Y-119657412D02*
X175290000Y-119228377D01*
X175276000Y-119671412D02*
X175290000Y-119657412D01*
X175276000Y-120663690D02*
X175276000Y-119671412D01*
X175271600Y-122326852D02*
X175271600Y-121601148D01*
X175018548Y-121348096D02*
X175271600Y-121095044D01*
X175271600Y-121601148D02*
X175018548Y-121348096D01*
X174810000Y-122788452D02*
X175271600Y-122326852D01*
X175271600Y-120659290D02*
X175276000Y-120663690D01*
X175271600Y-121095044D02*
X175271600Y-120659290D01*
X175234000Y-132389700D02*
X174810000Y-131965700D01*
X174810000Y-131965700D02*
X174810000Y-122788452D01*
%TO.N,TSensor9*%
X183153400Y-104666600D02*
X183153400Y-113744200D01*
X194010000Y-95640000D02*
X192180000Y-95640000D01*
X192180000Y-95640000D02*
X183153400Y-104666600D01*
X194694000Y-94956000D02*
X194010000Y-95640000D01*
X194694000Y-93734000D02*
X194694000Y-94956000D01*
%TO.N,Reed2*%
X160380000Y-122610000D02*
X160380000Y-132463300D01*
%TO.N,Retro*%
X162018700Y-122350000D02*
X162018700Y-125651600D01*
D22*
%TO.N,GND*%
X166452931Y-105602931D02*
X166452931Y-100112069D01*
X166452931Y-100112069D02*
X166575000Y-99990000D01*
X153247400Y-111282600D02*
X150590000Y-113940000D01*
X157055601Y-113534000D02*
X154804201Y-111282600D01*
X154804201Y-111282600D02*
X153247400Y-111282600D01*
D21*
%TO.N,SD_CS*%
X174199581Y-120877167D02*
X174745600Y-120877167D01*
X172834000Y-120920000D02*
X174156748Y-120920000D01*
X174156748Y-120920000D02*
X174199581Y-120877167D01*
%TO.N,+3V3*%
X188330000Y-123275000D02*
X188310000Y-123255000D01*
X188330000Y-124180000D02*
X188330000Y-123275000D01*
X188310000Y-124200000D02*
X188330000Y-124180000D01*
X187790000Y-125380000D02*
X187790000Y-124770000D01*
X187790000Y-124720000D02*
X188310000Y-124200000D01*
X186540000Y-126630000D02*
X187790000Y-125380000D01*
X187790000Y-124770000D02*
X187790000Y-124720000D01*
%TO.N,TSensor1*%
X190020000Y-132235000D02*
X188730000Y-133525000D01*
X190020000Y-129820000D02*
X190020000Y-132235000D01*
X191220000Y-128620000D02*
X190020000Y-129820000D01*
%TO.N,TSensor2*%
X168863500Y-115423600D02*
X167720400Y-114280500D01*
X168863500Y-124486500D02*
X168863500Y-115423600D01*
X168860000Y-124490000D02*
X168863500Y-124486500D01*
X169310000Y-127200000D02*
X168860000Y-126750000D01*
X170374800Y-127200000D02*
X169310000Y-127200000D01*
X168860000Y-126750000D02*
X168860000Y-124490000D01*
%TO.N,TSensor5*%
X193570000Y-131909800D02*
X193570000Y-114534700D01*
X194694000Y-113410700D02*
X194694000Y-112334000D01*
X191299800Y-134180000D02*
X193570000Y-131909800D01*
X190750000Y-134180000D02*
X191299800Y-134180000D01*
X193570000Y-114534700D02*
X194694000Y-113410700D01*
%TO.N,TSensor6*%
X193830000Y-109570000D02*
X192975000Y-110425000D01*
X193830000Y-108548000D02*
X193830000Y-109570000D01*
X194694000Y-107684000D02*
X193830000Y-108548000D01*
X190905000Y-110425000D02*
X188434600Y-112895400D01*
X192975000Y-110425000D02*
X190905000Y-110425000D01*
X188434600Y-112895400D02*
X188434600Y-120573800D01*
%TO.N,CS Screen*%
X155130000Y-117310000D02*
X156030000Y-118210000D01*
X156030000Y-118210000D02*
X159210000Y-118210000D01*
%TO.N,STLINK_TX*%
X165136300Y-116119800D02*
X165136300Y-120469400D01*
X169990000Y-87638000D02*
X169990000Y-111266100D01*
X169990000Y-111266100D02*
X165136300Y-116119800D01*
X171234000Y-86394000D02*
X169990000Y-87638000D01*
%TO.N,NRST*%
X167450000Y-105843300D02*
X165135000Y-108158300D01*
X168694000Y-86394000D02*
X167450000Y-87638000D01*
X167450000Y-87638000D02*
X167450000Y-105843300D01*
%TO.N,SCK*%
X145774000Y-101470700D02*
X145774000Y-100394000D01*
X145885500Y-101470700D02*
X145774000Y-101470700D01*
X146368600Y-123317300D02*
X148240000Y-121445900D01*
X146234000Y-123317300D02*
X146368600Y-123317300D01*
X146234000Y-124394000D02*
X146234000Y-123317300D01*
X148240000Y-121445900D02*
X148240000Y-103825200D01*
X148240000Y-103825200D02*
X145885500Y-101470700D01*
%TO.N,SDO (MISO)*%
X148760000Y-125982800D02*
X146345500Y-128397300D01*
X148760000Y-101782100D02*
X148760000Y-125982800D01*
X145774000Y-98930700D02*
X145908600Y-98930700D01*
X146345500Y-128397300D02*
X146234000Y-128397300D01*
X145774000Y-97854000D02*
X145774000Y-98930700D01*
X145908600Y-98930700D02*
X148760000Y-101782100D01*
X146234000Y-128397300D02*
X146234000Y-129474000D01*
%TO.N,SD_CS*%
X176648900Y-98816700D02*
X176648900Y-120010300D01*
X175060000Y-96440000D02*
X175060000Y-97227800D01*
X175060000Y-97227800D02*
X176648900Y-98816700D01*
D22*
%TO.N,GND*%
X158800000Y-131075000D02*
X159505000Y-131780000D01*
X158800000Y-129010000D02*
X158800000Y-131075000D01*
D21*
%TO.N,SWDIO*%
X174261200Y-106227400D02*
X174334400Y-106300600D01*
X174261200Y-90092600D02*
X174261200Y-106227400D01*
X172187500Y-88018900D02*
X174261200Y-90092600D01*
%TO.N,STLINK_RX*%
X169908500Y-115749300D02*
X170287000Y-115749300D01*
X168385200Y-114226000D02*
X169908500Y-115749300D01*
X168385200Y-113465500D02*
X168385200Y-114226000D01*
X171234000Y-110616700D02*
X168385200Y-113465500D01*
X171234000Y-88934000D02*
X171234000Y-110616700D01*
%TO.N,SWCLK*%
X173607400Y-91340300D02*
X173607400Y-106915700D01*
X172189100Y-89922000D02*
X173607400Y-91340300D01*
%TO.N,D{slash}C*%
X170899800Y-136844000D02*
X170899800Y-121175700D01*
X170249100Y-137494700D02*
X170899800Y-136844000D01*
X168277200Y-137494700D02*
X170249100Y-137494700D01*
X162899800Y-132117300D02*
X168277200Y-137494700D01*
X162899800Y-119976700D02*
X162899800Y-132117300D01*
%TO.N,Retro*%
X162018700Y-114475300D02*
X162018700Y-122350000D01*
X163307700Y-113186300D02*
X162018700Y-114475300D01*
%TO.N,Reset Screen*%
X166459900Y-123380500D02*
X167809400Y-122031000D01*
X165817500Y-123380500D02*
X166459900Y-123380500D01*
X165129900Y-122692900D02*
X165817500Y-123380500D01*
X165129900Y-121618600D02*
X165129900Y-122692900D01*
%TO.N,SDI (MOSI)*%
X146122400Y-120777300D02*
X146234000Y-120777300D01*
X144680900Y-119335800D02*
X146122400Y-120777300D01*
X144680900Y-97349200D02*
X144680900Y-119335800D01*
X145639400Y-96390700D02*
X144680900Y-97349200D01*
X145774000Y-96390700D02*
X145639400Y-96390700D01*
X145774000Y-95314000D02*
X145774000Y-96390700D01*
X146234000Y-121854000D02*
X146234000Y-120777300D01*
X166042300Y-121546200D02*
X166042300Y-122853700D01*
X165897600Y-121401500D02*
X166042300Y-121546200D01*
%TO.N,TSensor6*%
X168336800Y-122524600D02*
X168336800Y-121315700D01*
X168022300Y-122839100D02*
X168336800Y-122524600D01*
%TO.N,TSensor5*%
X164005900Y-130687200D02*
X164985700Y-131667000D01*
X164005900Y-120113000D02*
X164005900Y-130687200D01*
%TO.N,TSensor3*%
X174743900Y-115658200D02*
X174743900Y-118990400D01*
X173886000Y-114800300D02*
X174743900Y-115658200D01*
%TO.N,TSensor1*%
X171815500Y-116531300D02*
X171815500Y-132110800D01*
X169272200Y-113988000D02*
X171815500Y-116531300D01*
X168957400Y-113988000D02*
X169272200Y-113988000D01*
%TO.N,NRST*%
X168367700Y-111391000D02*
X165135000Y-108158300D01*
X168367700Y-111933600D02*
X168367700Y-111391000D01*
X164166100Y-118266600D02*
X163723600Y-118709100D01*
X164166100Y-108623200D02*
X164166100Y-118266600D01*
X164631000Y-108158300D02*
X164166100Y-108623200D01*
X165135000Y-108158300D02*
X164631000Y-108158300D01*
%TO.N,Reed6*%
X187234000Y-136394000D02*
X187234000Y-135317300D01*
X182626700Y-130710000D02*
X187234000Y-135317300D01*
X182626700Y-103408000D02*
X182626700Y-130710000D01*
X182701200Y-103333500D02*
X182626700Y-103408000D01*
%TO.N,Reed5*%
X181234000Y-136394000D02*
X181234000Y-135317300D01*
X177838300Y-131892900D02*
X177680600Y-131892900D01*
X177838300Y-103278900D02*
X177838300Y-131892900D01*
X177838300Y-131921600D02*
X181234000Y-135317300D01*
X177838300Y-131892900D02*
X177838300Y-131921600D01*
%TO.N,Reed4*%
X175234000Y-136394000D02*
X175234000Y-135317300D01*
X175234000Y-135317300D02*
X175234000Y-132389700D01*
X173164500Y-132389700D02*
X175234000Y-132389700D01*
X172804500Y-132029700D02*
X173164500Y-132389700D01*
%TO.N,Reed3*%
X169234000Y-136394000D02*
X169234000Y-135317300D01*
X164587100Y-109014600D02*
X164911700Y-108690000D01*
X164587100Y-130523500D02*
X164587100Y-109014600D01*
X169234000Y-135170400D02*
X164587100Y-130523500D01*
X169234000Y-135317300D02*
X169234000Y-135170400D01*
%TO.N,Reed2*%
X160380000Y-132463300D02*
X163234000Y-135317300D01*
X160380000Y-110804600D02*
X160380000Y-122610000D01*
X163234000Y-136394000D02*
X163234000Y-135317300D01*
%TO.N,Reed1*%
X154034200Y-133117500D02*
X154034200Y-111933600D01*
X156234000Y-135317300D02*
X154034200Y-133117500D01*
X156234000Y-136394000D02*
X156234000Y-135317300D01*
%TO.N,+3V3*%
X197234000Y-107684000D02*
X197234000Y-103034000D01*
X197234000Y-126284000D02*
X197234000Y-130934000D01*
X197234000Y-93734000D02*
X197234000Y-98384000D01*
X197234000Y-107684000D02*
X197234000Y-112334000D01*
X197234000Y-121634000D02*
X197234000Y-126284000D01*
X197234000Y-116984000D02*
X197234000Y-121634000D01*
X197234000Y-98384000D02*
X197234000Y-103034000D01*
X197234000Y-112334000D02*
X197234000Y-116984000D01*
%TD*%
%TA.AperFunction,Conductor*%
%TO.N,GND*%
G36*
X174259562Y-121515185D02*
G01*
X174261414Y-121516398D01*
X174366414Y-121586557D01*
X174366427Y-121586564D01*
X174469820Y-121629390D01*
X174483337Y-121634989D01*
X174492181Y-121638652D01*
X174535751Y-121669005D01*
X174545175Y-121679192D01*
X174558033Y-121701461D01*
X174661490Y-121804918D01*
X174663122Y-121806682D01*
X174677629Y-121835895D01*
X174693266Y-121864531D01*
X174693657Y-121868168D01*
X174694199Y-121869260D01*
X174693983Y-121871205D01*
X174696100Y-121890890D01*
X174696100Y-122037110D01*
X174676415Y-122104149D01*
X174659781Y-122124791D01*
X174349487Y-122435084D01*
X174349485Y-122435087D01*
X174273719Y-122566315D01*
X174234500Y-122712686D01*
X174234500Y-131690200D01*
X174214815Y-131757239D01*
X174162011Y-131802994D01*
X174110500Y-131814200D01*
X173664546Y-131814200D01*
X173597507Y-131794515D01*
X173551752Y-131741711D01*
X173549985Y-131737652D01*
X173513897Y-131650527D01*
X173513890Y-131650514D01*
X173426289Y-131519411D01*
X173426286Y-131519407D01*
X173314792Y-131407913D01*
X173314788Y-131407910D01*
X173183685Y-131320309D01*
X173183672Y-131320302D01*
X173038001Y-131259964D01*
X173037989Y-131259961D01*
X172883345Y-131229200D01*
X172883342Y-131229200D01*
X172725658Y-131229200D01*
X172725655Y-131229200D01*
X172571010Y-131259961D01*
X172570999Y-131259964D01*
X172562448Y-131263506D01*
X172492978Y-131270972D01*
X172430500Y-131239694D01*
X172394850Y-131179604D01*
X172391000Y-131148943D01*
X172391000Y-121788537D01*
X172410685Y-121721498D01*
X172463489Y-121675743D01*
X172532647Y-121665799D01*
X172562450Y-121673975D01*
X172600503Y-121689737D01*
X172755153Y-121720499D01*
X172755156Y-121720500D01*
X172755158Y-121720500D01*
X172912844Y-121720500D01*
X172912845Y-121720499D01*
X173067497Y-121689737D01*
X173199652Y-121634997D01*
X173213172Y-121629397D01*
X173213172Y-121629396D01*
X173213179Y-121629394D01*
X173344289Y-121541789D01*
X173348321Y-121537757D01*
X173354260Y-121531819D01*
X173415583Y-121498334D01*
X173441941Y-121495500D01*
X174080982Y-121495500D01*
X174192523Y-121495500D01*
X174259562Y-121515185D01*
G37*
%TD.AperFunction*%
%TA.AperFunction,Conductor*%
G36*
X169587722Y-116237248D02*
G01*
X169592235Y-116237034D01*
X169624993Y-116250148D01*
X169683679Y-116284030D01*
X169709351Y-116303729D01*
X169748125Y-116342503D01*
X169776712Y-116371090D01*
X169907814Y-116458690D01*
X169907827Y-116458697D01*
X170053498Y-116519035D01*
X170053503Y-116519037D01*
X170160203Y-116540261D01*
X170208153Y-116549799D01*
X170208156Y-116549800D01*
X170208158Y-116549800D01*
X170365844Y-116549800D01*
X170365845Y-116549799D01*
X170520497Y-116519037D01*
X170666179Y-116458694D01*
X170739124Y-116409953D01*
X170805800Y-116389076D01*
X170873180Y-116407560D01*
X170895695Y-116425375D01*
X171203681Y-116733361D01*
X171237166Y-116794684D01*
X171240000Y-116821042D01*
X171240000Y-120276092D01*
X171220315Y-120343131D01*
X171167511Y-120388886D01*
X171098353Y-120398830D01*
X171091809Y-120397709D01*
X170978646Y-120375200D01*
X170978642Y-120375200D01*
X170820958Y-120375200D01*
X170820955Y-120375200D01*
X170666310Y-120405961D01*
X170666298Y-120405964D01*
X170520627Y-120466302D01*
X170520614Y-120466309D01*
X170389511Y-120553910D01*
X170389507Y-120553913D01*
X170278013Y-120665407D01*
X170278010Y-120665411D01*
X170190409Y-120796514D01*
X170190402Y-120796527D01*
X170130064Y-120942198D01*
X170130061Y-120942210D01*
X170099300Y-121096853D01*
X170099300Y-121254546D01*
X170130061Y-121409189D01*
X170130064Y-121409201D01*
X170190402Y-121554872D01*
X170190409Y-121554885D01*
X170278010Y-121685988D01*
X170278012Y-121685991D01*
X170287978Y-121695956D01*
X170321465Y-121757278D01*
X170324300Y-121783640D01*
X170324300Y-126292098D01*
X170304615Y-126359137D01*
X170251811Y-126404892D01*
X170224492Y-126413715D01*
X170141308Y-126430261D01*
X170141298Y-126430264D01*
X169995627Y-126490602D01*
X169995614Y-126490609D01*
X169864511Y-126578210D01*
X169864507Y-126578213D01*
X169854540Y-126588181D01*
X169827612Y-126602884D01*
X169801794Y-126619477D01*
X169795593Y-126620368D01*
X169793217Y-126621666D01*
X169766859Y-126624500D01*
X169599742Y-126624500D01*
X169532703Y-126604815D01*
X169512061Y-126588181D01*
X169471819Y-126547939D01*
X169438334Y-126486616D01*
X169435500Y-126460258D01*
X169435500Y-124591652D01*
X169438301Y-124570369D01*
X169437939Y-124570322D01*
X169439000Y-124562264D01*
X169439000Y-116357538D01*
X169440710Y-116351711D01*
X169439562Y-116345750D01*
X169450439Y-116318579D01*
X169458685Y-116290499D01*
X169463273Y-116286523D01*
X169465530Y-116280886D01*
X169489373Y-116263907D01*
X169511489Y-116244744D01*
X169517498Y-116243879D01*
X169522444Y-116240358D01*
X169551674Y-116238965D01*
X169580647Y-116234800D01*
X169587722Y-116237248D01*
G37*
%TD.AperFunction*%
%TA.AperFunction,Conductor*%
G36*
X171957672Y-90692148D02*
G01*
X172110258Y-90722500D01*
X172126638Y-90722500D01*
X172128936Y-90722585D01*
X172159984Y-90732961D01*
X172191397Y-90742185D01*
X172194098Y-90744361D01*
X172195203Y-90744731D01*
X172196391Y-90746210D01*
X172212039Y-90758819D01*
X172995581Y-91542361D01*
X173029066Y-91603684D01*
X173031900Y-91630042D01*
X173031900Y-106307759D01*
X173012215Y-106374798D01*
X172995581Y-106395440D01*
X172985613Y-106405407D01*
X172985610Y-106405411D01*
X172898009Y-106536514D01*
X172898002Y-106536527D01*
X172837664Y-106682198D01*
X172837661Y-106682210D01*
X172806900Y-106836853D01*
X172806900Y-106994546D01*
X172837661Y-107149189D01*
X172837664Y-107149201D01*
X172898002Y-107294872D01*
X172898009Y-107294885D01*
X172985610Y-107425988D01*
X172985613Y-107425992D01*
X173097107Y-107537486D01*
X173097111Y-107537489D01*
X173228214Y-107625090D01*
X173228227Y-107625097D01*
X173373898Y-107685435D01*
X173373903Y-107685437D01*
X173528553Y-107716199D01*
X173528556Y-107716200D01*
X173528558Y-107716200D01*
X173686244Y-107716200D01*
X173686245Y-107716199D01*
X173840897Y-107685437D01*
X173986579Y-107625094D01*
X174041610Y-107588323D01*
X174108286Y-107567446D01*
X174175666Y-107585930D01*
X174222356Y-107637908D01*
X174234500Y-107691426D01*
X174234500Y-113902343D01*
X174214815Y-113969382D01*
X174162011Y-114015137D01*
X174092853Y-114025081D01*
X174086309Y-114023960D01*
X173964846Y-113999800D01*
X173964842Y-113999800D01*
X173807158Y-113999800D01*
X173807155Y-113999800D01*
X173652510Y-114030561D01*
X173652498Y-114030564D01*
X173506827Y-114090902D01*
X173506814Y-114090909D01*
X173375711Y-114178510D01*
X173375707Y-114178513D01*
X173264213Y-114290007D01*
X173264210Y-114290011D01*
X173176609Y-114421114D01*
X173176602Y-114421127D01*
X173116264Y-114566798D01*
X173116261Y-114566810D01*
X173085500Y-114721453D01*
X173085500Y-114879146D01*
X173116261Y-115033789D01*
X173116264Y-115033801D01*
X173176602Y-115179472D01*
X173176609Y-115179485D01*
X173264210Y-115310588D01*
X173264213Y-115310592D01*
X173375707Y-115422086D01*
X173375711Y-115422089D01*
X173506814Y-115509690D01*
X173506827Y-115509697D01*
X173643993Y-115566512D01*
X173652503Y-115570037D01*
X173766387Y-115592690D01*
X173807153Y-115600799D01*
X173807156Y-115600800D01*
X173807158Y-115600800D01*
X173821258Y-115600800D01*
X173888297Y-115620485D01*
X173908939Y-115637119D01*
X174132081Y-115860261D01*
X174165566Y-115921584D01*
X174168400Y-115947942D01*
X174168400Y-118382459D01*
X174148715Y-118449498D01*
X174132081Y-118470140D01*
X174122113Y-118480107D01*
X174122110Y-118480111D01*
X174034509Y-118611214D01*
X174034502Y-118611227D01*
X173974164Y-118756898D01*
X173974161Y-118756910D01*
X173943400Y-118911553D01*
X173943400Y-119069246D01*
X173974161Y-119223889D01*
X173974164Y-119223901D01*
X174034502Y-119369572D01*
X174034509Y-119369585D01*
X174122110Y-119500688D01*
X174122113Y-119500692D01*
X174233607Y-119612186D01*
X174233611Y-119612189D01*
X174364714Y-119699790D01*
X174364727Y-119699797D01*
X174510398Y-119760135D01*
X174510403Y-119760137D01*
X174551071Y-119768226D01*
X174600691Y-119778097D01*
X174628814Y-119792807D01*
X174657703Y-119806001D01*
X174659560Y-119808890D01*
X174662602Y-119810482D01*
X174678306Y-119838060D01*
X174695477Y-119864779D01*
X174696137Y-119869374D01*
X174697176Y-119871198D01*
X174700500Y-119899714D01*
X174700500Y-119968191D01*
X174680815Y-120035230D01*
X174628011Y-120080985D01*
X174600692Y-120089808D01*
X174512108Y-120107428D01*
X174512098Y-120107431D01*
X174366427Y-120167769D01*
X174366414Y-120167776D01*
X174235311Y-120255377D01*
X174235307Y-120255380D01*
X174225340Y-120265348D01*
X174164925Y-120298632D01*
X174151460Y-120301667D01*
X174123815Y-120301667D01*
X173977446Y-120340886D01*
X173977432Y-120340893D01*
X173974898Y-120341465D01*
X173972063Y-120341283D01*
X173947632Y-120344500D01*
X173441941Y-120344500D01*
X173374902Y-120324815D01*
X173354260Y-120308181D01*
X173344292Y-120298213D01*
X173344288Y-120298210D01*
X173213185Y-120210609D01*
X173213172Y-120210602D01*
X173067501Y-120150264D01*
X173067489Y-120150261D01*
X172912845Y-120119500D01*
X172912842Y-120119500D01*
X172755158Y-120119500D01*
X172755155Y-120119500D01*
X172600510Y-120150261D01*
X172600499Y-120150264D01*
X172562450Y-120166024D01*
X172492981Y-120173491D01*
X172430502Y-120142215D01*
X172394851Y-120082126D01*
X172391000Y-120051462D01*
X172391000Y-116455535D01*
X172391000Y-116455534D01*
X172378397Y-116408500D01*
X172351781Y-116309165D01*
X172294421Y-116209815D01*
X172276015Y-116177935D01*
X172168865Y-116070785D01*
X169625565Y-113527485D01*
X169625563Y-113527484D01*
X169619114Y-113522535D01*
X169619559Y-113521954D01*
X169601096Y-113507364D01*
X169593937Y-113499784D01*
X169579189Y-113477711D01*
X169469446Y-113367968D01*
X169468240Y-113366691D01*
X169453145Y-113337066D01*
X169437224Y-113307908D01*
X169437355Y-113306074D01*
X169436520Y-113304436D01*
X169439836Y-113271370D01*
X169442208Y-113238216D01*
X169443339Y-113236455D01*
X169443494Y-113234915D01*
X169447874Y-113229399D01*
X169470707Y-113193871D01*
X171694515Y-110970065D01*
X171699586Y-110961281D01*
X171770281Y-110838835D01*
X171809500Y-110692466D01*
X171809500Y-90813769D01*
X171829185Y-90746730D01*
X171881989Y-90700975D01*
X171951147Y-90691031D01*
X171957672Y-90692148D01*
G37*
%TD.AperFunction*%
%TA.AperFunction,Conductor*%
G36*
X165440328Y-109327669D02*
G01*
X165445113Y-109326566D01*
X165473695Y-109336822D01*
X165502976Y-109344855D01*
X165508699Y-109349383D01*
X165510877Y-109350165D01*
X165512721Y-109352566D01*
X165525491Y-109362670D01*
X167616981Y-111454160D01*
X167650466Y-111515483D01*
X167645482Y-111585175D01*
X167643861Y-111589293D01*
X167597964Y-111700098D01*
X167597961Y-111700110D01*
X167567200Y-111854753D01*
X167567200Y-112012446D01*
X167597961Y-112167089D01*
X167597964Y-112167101D01*
X167658302Y-112312772D01*
X167658309Y-112312785D01*
X167745910Y-112443888D01*
X167745913Y-112443892D01*
X167784438Y-112482416D01*
X167817924Y-112543738D01*
X167812940Y-112613430D01*
X167784439Y-112657779D01*
X165374281Y-115067938D01*
X165312958Y-115101423D01*
X165243266Y-115096439D01*
X165187333Y-115054567D01*
X165162916Y-114989103D01*
X165162600Y-114980257D01*
X165162600Y-109535382D01*
X165166178Y-109523193D01*
X165165115Y-109510536D01*
X165175835Y-109490306D01*
X165182285Y-109468343D01*
X165192658Y-109458563D01*
X165197832Y-109448801D01*
X165216228Y-109436342D01*
X165225821Y-109427299D01*
X165232285Y-109423663D01*
X165290879Y-109399394D01*
X165372883Y-109344600D01*
X165377031Y-109342268D01*
X165406621Y-109335443D01*
X165435596Y-109326371D01*
X165440328Y-109327669D01*
G37*
%TD.AperFunction*%
%TA.AperFunction,Conductor*%
G36*
X169367614Y-90187272D02*
G01*
X169407872Y-90244378D01*
X169414500Y-90284377D01*
X169414500Y-110976357D01*
X169394815Y-111043396D01*
X169378181Y-111064038D01*
X169133906Y-111308312D01*
X169072583Y-111341797D01*
X169002891Y-111336813D01*
X168946958Y-111294941D01*
X168926450Y-111252724D01*
X168903981Y-111168865D01*
X168883332Y-111133100D01*
X168828215Y-111037635D01*
X168721065Y-110930485D01*
X168721064Y-110930484D01*
X168716734Y-110926154D01*
X168716723Y-110926144D01*
X166036560Y-108245981D01*
X166003075Y-108184658D01*
X166008059Y-108114966D01*
X166036560Y-108070619D01*
X166941592Y-107165588D01*
X167910514Y-106196666D01*
X167918759Y-106182385D01*
X167936515Y-106151634D01*
X167986279Y-106065438D01*
X167986278Y-106065438D01*
X167986281Y-106065435D01*
X168008585Y-105982196D01*
X168025500Y-105919067D01*
X168025500Y-105767534D01*
X168025500Y-90306937D01*
X168045185Y-90239898D01*
X168097989Y-90194143D01*
X168167147Y-90184199D01*
X168187818Y-90189006D01*
X168377870Y-90250757D01*
X168587754Y-90284000D01*
X168800246Y-90284000D01*
X169010127Y-90250757D01*
X169010130Y-90250757D01*
X169212219Y-90185094D01*
X169234204Y-90173893D01*
X169302874Y-90160996D01*
X169367614Y-90187272D01*
G37*
%TD.AperFunction*%
%TA.AperFunction,Conductor*%
G36*
X159875444Y-87047999D02*
G01*
X159914486Y-87093056D01*
X159918951Y-87101820D01*
X160043890Y-87273786D01*
X160194213Y-87424109D01*
X160366179Y-87549048D01*
X160366181Y-87549049D01*
X160366184Y-87549051D01*
X160375493Y-87553794D01*
X160426290Y-87601766D01*
X160443087Y-87669587D01*
X160420552Y-87735722D01*
X160375505Y-87774760D01*
X160366446Y-87779376D01*
X160366440Y-87779380D01*
X160312282Y-87818727D01*
X160312282Y-87818728D01*
X160944591Y-88451037D01*
X160881007Y-88468075D01*
X160766993Y-88533901D01*
X160673901Y-88626993D01*
X160608075Y-88741007D01*
X160591037Y-88804591D01*
X159958728Y-88172282D01*
X159958727Y-88172282D01*
X159919380Y-88226440D01*
X159919376Y-88226446D01*
X159914760Y-88235505D01*
X159866781Y-88286297D01*
X159798959Y-88303087D01*
X159732826Y-88280543D01*
X159693794Y-88235493D01*
X159689051Y-88226184D01*
X159689049Y-88226181D01*
X159689048Y-88226179D01*
X159564109Y-88054213D01*
X159413786Y-87903890D01*
X159241820Y-87778951D01*
X159233600Y-87774763D01*
X159233054Y-87774485D01*
X159182259Y-87726512D01*
X159165463Y-87658692D01*
X159187999Y-87592556D01*
X159233054Y-87553515D01*
X159241816Y-87549051D01*
X159329751Y-87485163D01*
X159413786Y-87424109D01*
X159413788Y-87424106D01*
X159413792Y-87424104D01*
X159564104Y-87273792D01*
X159564106Y-87273788D01*
X159564109Y-87273786D01*
X159689048Y-87101820D01*
X159689047Y-87101820D01*
X159689051Y-87101816D01*
X159693514Y-87093054D01*
X159741488Y-87042259D01*
X159809308Y-87025463D01*
X159875444Y-87047999D01*
G37*
%TD.AperFunction*%
%TA.AperFunction,Conductor*%
G36*
X162415444Y-87047999D02*
G01*
X162454486Y-87093056D01*
X162458951Y-87101820D01*
X162583890Y-87273786D01*
X162734213Y-87424109D01*
X162906179Y-87549048D01*
X162906181Y-87549049D01*
X162906184Y-87549051D01*
X162915493Y-87553794D01*
X162966290Y-87601766D01*
X162983087Y-87669587D01*
X162960552Y-87735722D01*
X162915505Y-87774760D01*
X162906446Y-87779376D01*
X162906440Y-87779380D01*
X162852282Y-87818727D01*
X162852282Y-87818728D01*
X163484591Y-88451037D01*
X163421007Y-88468075D01*
X163306993Y-88533901D01*
X163213901Y-88626993D01*
X163148075Y-88741007D01*
X163131037Y-88804591D01*
X162498728Y-88172282D01*
X162498727Y-88172282D01*
X162459380Y-88226440D01*
X162454483Y-88236051D01*
X162406506Y-88286845D01*
X162338684Y-88303638D01*
X162272550Y-88281098D01*
X162233516Y-88236048D01*
X162228626Y-88226452D01*
X162189270Y-88172282D01*
X162189269Y-88172282D01*
X161556962Y-88804590D01*
X161539925Y-88741007D01*
X161474099Y-88626993D01*
X161381007Y-88533901D01*
X161266993Y-88468075D01*
X161203409Y-88451037D01*
X161835716Y-87818728D01*
X161781547Y-87779373D01*
X161781547Y-87779372D01*
X161772500Y-87774763D01*
X161721706Y-87726788D01*
X161704912Y-87658966D01*
X161727451Y-87592832D01*
X161772508Y-87553793D01*
X161781816Y-87549051D01*
X161887014Y-87472621D01*
X161953786Y-87424109D01*
X161953788Y-87424106D01*
X161953792Y-87424104D01*
X162104104Y-87273792D01*
X162104106Y-87273788D01*
X162104109Y-87273786D01*
X162229048Y-87101820D01*
X162229047Y-87101820D01*
X162229051Y-87101816D01*
X162233514Y-87093054D01*
X162281488Y-87042259D01*
X162349308Y-87025463D01*
X162415444Y-87047999D01*
G37*
%TD.AperFunction*%
%TA.AperFunction,Conductor*%
G36*
X164955444Y-87047999D02*
G01*
X164994486Y-87093056D01*
X164998951Y-87101820D01*
X165123890Y-87273786D01*
X165274213Y-87424109D01*
X165446182Y-87549050D01*
X165454946Y-87553516D01*
X165505742Y-87601491D01*
X165522536Y-87669312D01*
X165499998Y-87735447D01*
X165454946Y-87774484D01*
X165446182Y-87778949D01*
X165274213Y-87903890D01*
X165123890Y-88054213D01*
X164998949Y-88226182D01*
X164994202Y-88235499D01*
X164946227Y-88286293D01*
X164878405Y-88303087D01*
X164812271Y-88280548D01*
X164773234Y-88235495D01*
X164768626Y-88226452D01*
X164729270Y-88172282D01*
X164729269Y-88172282D01*
X164096962Y-88804590D01*
X164079925Y-88741007D01*
X164014099Y-88626993D01*
X163921007Y-88533901D01*
X163806993Y-88468075D01*
X163743409Y-88451037D01*
X164375716Y-87818728D01*
X164321547Y-87779373D01*
X164321547Y-87779372D01*
X164312500Y-87774763D01*
X164261706Y-87726788D01*
X164244912Y-87658966D01*
X164267451Y-87592832D01*
X164312508Y-87553793D01*
X164321816Y-87549051D01*
X164427014Y-87472621D01*
X164493786Y-87424109D01*
X164493788Y-87424106D01*
X164493792Y-87424104D01*
X164644104Y-87273792D01*
X164644106Y-87273788D01*
X164644109Y-87273786D01*
X164769048Y-87101820D01*
X164769047Y-87101820D01*
X164769051Y-87101816D01*
X164773514Y-87093054D01*
X164821488Y-87042259D01*
X164889308Y-87025463D01*
X164955444Y-87047999D01*
G37*
%TD.AperFunction*%
%TA.AperFunction,Conductor*%
G36*
X192404000Y-127634000D02*
G01*
X192870500Y-127634000D01*
X192937539Y-127653685D01*
X192983294Y-127706489D01*
X192994500Y-127758000D01*
X192994500Y-129460000D01*
X192974815Y-129527039D01*
X192922011Y-129572794D01*
X192870500Y-129584000D01*
X192404000Y-129584000D01*
X192404000Y-130500988D01*
X192346993Y-130468075D01*
X192219826Y-130434000D01*
X192088174Y-130434000D01*
X191961007Y-130468075D01*
X191904000Y-130500988D01*
X191904000Y-129584000D01*
X191607896Y-129584000D01*
X191540857Y-129564315D01*
X191495102Y-129511511D01*
X191485158Y-129442353D01*
X191514183Y-129378797D01*
X191560444Y-129345439D01*
X191599172Y-129329397D01*
X191599172Y-129329396D01*
X191599179Y-129329394D01*
X191730289Y-129241789D01*
X191841789Y-129130289D01*
X191929394Y-128999179D01*
X191989737Y-128853497D01*
X192020500Y-128698842D01*
X192020500Y-128541158D01*
X192020500Y-128541155D01*
X192020499Y-128541153D01*
X192001152Y-128443890D01*
X191989737Y-128386503D01*
X191961756Y-128318950D01*
X191929397Y-128240827D01*
X191929390Y-128240814D01*
X191841789Y-128109711D01*
X191841786Y-128109707D01*
X191730292Y-127998213D01*
X191730288Y-127998210D01*
X191599185Y-127910609D01*
X191599172Y-127910602D01*
X191507330Y-127872561D01*
X191452926Y-127828721D01*
X191430861Y-127762427D01*
X191448140Y-127694727D01*
X191499277Y-127647116D01*
X191554782Y-127634000D01*
X191904000Y-127634000D01*
X191904000Y-126717012D01*
X191961007Y-126749925D01*
X192088174Y-126784000D01*
X192219826Y-126784000D01*
X192346993Y-126749925D01*
X192404000Y-126717012D01*
X192404000Y-127634000D01*
G37*
%TD.AperFunction*%
%TA.AperFunction,Conductor*%
G36*
X196035444Y-94387999D02*
G01*
X196074486Y-94433056D01*
X196078951Y-94441820D01*
X196203890Y-94613786D01*
X196354213Y-94764109D01*
X196526182Y-94889050D01*
X196526184Y-94889051D01*
X196590794Y-94921971D01*
X196641590Y-94969945D01*
X196658500Y-95032456D01*
X196658500Y-97085542D01*
X196638815Y-97152581D01*
X196590796Y-97196026D01*
X196526182Y-97228949D01*
X196354213Y-97353890D01*
X196203890Y-97504213D01*
X196078949Y-97676182D01*
X196074484Y-97684946D01*
X196026509Y-97735742D01*
X195958688Y-97752536D01*
X195892553Y-97729998D01*
X195853516Y-97684946D01*
X195849050Y-97676182D01*
X195724109Y-97504213D01*
X195573786Y-97353890D01*
X195401820Y-97228951D01*
X195212414Y-97132444D01*
X195212413Y-97132443D01*
X195212412Y-97132443D01*
X195010243Y-97066754D01*
X195010241Y-97066753D01*
X195010240Y-97066753D01*
X194848957Y-97041208D01*
X194800287Y-97033500D01*
X194587713Y-97033500D01*
X194539042Y-97041208D01*
X194377760Y-97066753D01*
X194175585Y-97132444D01*
X193986179Y-97228951D01*
X193814215Y-97353889D01*
X193700285Y-97467819D01*
X193638962Y-97501303D01*
X193569270Y-97496319D01*
X193513337Y-97454447D01*
X193496422Y-97423470D01*
X193447354Y-97291913D01*
X193447350Y-97291906D01*
X193361190Y-97176812D01*
X193361187Y-97176809D01*
X193246093Y-97090649D01*
X193246086Y-97090645D01*
X193111379Y-97040403D01*
X193111372Y-97040401D01*
X193051844Y-97034000D01*
X192404000Y-97034000D01*
X192404000Y-97950988D01*
X192346993Y-97918075D01*
X192219826Y-97884000D01*
X192088174Y-97884000D01*
X191961007Y-97918075D01*
X191904000Y-97950988D01*
X191904000Y-97034000D01*
X191899242Y-97034000D01*
X191832203Y-97014315D01*
X191786448Y-96961511D01*
X191776504Y-96892353D01*
X191805529Y-96828797D01*
X191811561Y-96822319D01*
X192382061Y-96251819D01*
X192443384Y-96218334D01*
X192469742Y-96215500D01*
X194085764Y-96215500D01*
X194085766Y-96215500D01*
X194232135Y-96176281D01*
X194363365Y-96100515D01*
X195154515Y-95309365D01*
X195230281Y-95178135D01*
X195269500Y-95031767D01*
X195269500Y-95031758D01*
X195270561Y-95023707D01*
X195272012Y-95023898D01*
X195289185Y-94965417D01*
X195337205Y-94921971D01*
X195401816Y-94889051D01*
X195488478Y-94826088D01*
X195573786Y-94764109D01*
X195573788Y-94764106D01*
X195573792Y-94764104D01*
X195724104Y-94613792D01*
X195724106Y-94613788D01*
X195724109Y-94613786D01*
X195849048Y-94441820D01*
X195849047Y-94441820D01*
X195849051Y-94441816D01*
X195853514Y-94433054D01*
X195901488Y-94382259D01*
X195969308Y-94365463D01*
X196035444Y-94387999D01*
G37*
%TD.AperFunction*%
%TA.AperFunction,Conductor*%
G36*
X196236702Y-82434617D02*
G01*
X196620771Y-82451386D01*
X196631506Y-82452326D01*
X197009971Y-82502152D01*
X197020597Y-82504025D01*
X197393284Y-82586648D01*
X197403710Y-82589442D01*
X197767765Y-82704227D01*
X197777911Y-82707920D01*
X198130578Y-82854000D01*
X198140369Y-82858566D01*
X198478942Y-83034816D01*
X198488310Y-83040224D01*
X198810244Y-83245318D01*
X198819105Y-83251523D01*
X199121930Y-83483889D01*
X199130217Y-83490843D01*
X199411635Y-83748715D01*
X199419284Y-83756364D01*
X199677156Y-84037782D01*
X199684110Y-84046069D01*
X199916476Y-84348894D01*
X199922681Y-84357755D01*
X200127775Y-84679689D01*
X200133183Y-84689057D01*
X200309430Y-85027623D01*
X200314002Y-85037427D01*
X200460075Y-85390078D01*
X200463775Y-85400244D01*
X200578554Y-85764278D01*
X200581354Y-85774727D01*
X200663971Y-86147389D01*
X200665849Y-86158042D01*
X200715671Y-86536473D01*
X200716614Y-86547249D01*
X200733382Y-86931297D01*
X200733500Y-86936706D01*
X200733500Y-136931293D01*
X200733382Y-136936702D01*
X200716614Y-137320750D01*
X200715671Y-137331526D01*
X200665849Y-137709957D01*
X200663971Y-137720610D01*
X200581354Y-138093272D01*
X200578554Y-138103721D01*
X200463775Y-138467755D01*
X200460075Y-138477921D01*
X200314002Y-138830572D01*
X200309430Y-138840376D01*
X200133183Y-139178942D01*
X200127775Y-139188310D01*
X199922681Y-139510244D01*
X199916476Y-139519105D01*
X199684110Y-139821930D01*
X199677156Y-139830217D01*
X199419284Y-140111635D01*
X199411635Y-140119284D01*
X199130217Y-140377156D01*
X199121930Y-140384110D01*
X198819105Y-140616476D01*
X198810244Y-140622681D01*
X198488310Y-140827775D01*
X198478942Y-140833183D01*
X198140376Y-141009430D01*
X198130572Y-141014002D01*
X197777921Y-141160075D01*
X197767755Y-141163775D01*
X197403721Y-141278554D01*
X197393272Y-141281354D01*
X197020610Y-141363971D01*
X197009957Y-141365849D01*
X196631526Y-141415671D01*
X196620750Y-141416614D01*
X196236703Y-141433382D01*
X196231294Y-141433500D01*
X146236706Y-141433500D01*
X146231297Y-141433382D01*
X145847249Y-141416614D01*
X145836473Y-141415671D01*
X145458042Y-141365849D01*
X145447389Y-141363971D01*
X145074727Y-141281354D01*
X145064278Y-141278554D01*
X144700244Y-141163775D01*
X144690078Y-141160075D01*
X144337427Y-141014002D01*
X144327623Y-141009430D01*
X143989057Y-140833183D01*
X143979689Y-140827775D01*
X143657755Y-140622681D01*
X143648894Y-140616476D01*
X143346069Y-140384110D01*
X143337782Y-140377156D01*
X143056364Y-140119284D01*
X143048715Y-140111635D01*
X142790843Y-139830217D01*
X142783889Y-139821930D01*
X142551523Y-139519105D01*
X142545318Y-139510243D01*
X142510710Y-139455919D01*
X142510709Y-139455918D01*
X142340224Y-139188310D01*
X142334816Y-139178942D01*
X142207924Y-138935185D01*
X142158566Y-138840369D01*
X142153997Y-138830572D01*
X142093285Y-138684000D01*
X142007920Y-138477911D01*
X142004224Y-138467755D01*
X141889442Y-138103710D01*
X141886648Y-138093284D01*
X141804025Y-137720597D01*
X141802152Y-137709971D01*
X141752326Y-137331506D01*
X141751386Y-137320771D01*
X141734618Y-136936702D01*
X141734500Y-136931293D01*
X141734500Y-136771884D01*
X142934000Y-136771884D01*
X142934000Y-137096115D01*
X142965779Y-137418784D01*
X142965782Y-137418801D01*
X143029030Y-137736781D01*
X143029033Y-137736792D01*
X143123157Y-138047078D01*
X143247238Y-138346635D01*
X143247240Y-138346640D01*
X143400079Y-138632580D01*
X143400090Y-138632598D01*
X143580212Y-138902170D01*
X143580222Y-138902184D01*
X143729890Y-139084554D01*
X143729891Y-139084555D01*
X144939748Y-137874698D01*
X145013588Y-137976330D01*
X145191670Y-138154412D01*
X145293300Y-138228251D01*
X144083443Y-139438107D01*
X144083444Y-139438108D01*
X144265815Y-139587777D01*
X144265829Y-139587787D01*
X144535401Y-139767909D01*
X144535419Y-139767920D01*
X144821359Y-139920759D01*
X144821364Y-139920761D01*
X145120921Y-140044842D01*
X145431207Y-140138966D01*
X145431218Y-140138969D01*
X145749198Y-140202217D01*
X145749215Y-140202220D01*
X146071884Y-140234000D01*
X146396116Y-140234000D01*
X146718784Y-140202220D01*
X146718801Y-140202217D01*
X147036781Y-140138969D01*
X147036792Y-140138966D01*
X147347078Y-140044842D01*
X147646635Y-139920761D01*
X147646640Y-139920759D01*
X147932580Y-139767920D01*
X147932598Y-139767909D01*
X148202170Y-139587787D01*
X148202183Y-139587777D01*
X148384554Y-139438108D01*
X148384554Y-139438107D01*
X147174698Y-138228251D01*
X147276330Y-138154412D01*
X147454412Y-137976330D01*
X147528251Y-137874698D01*
X148738107Y-139084554D01*
X148738108Y-139084554D01*
X148751472Y-139068271D01*
X148887777Y-138902183D01*
X148887787Y-138902170D01*
X149067909Y-138632598D01*
X149067920Y-138632580D01*
X149220759Y-138346640D01*
X149220761Y-138346635D01*
X149344842Y-138047078D01*
X149438966Y-137736792D01*
X149438969Y-137736781D01*
X149502217Y-137418801D01*
X149502220Y-137418784D01*
X149534000Y-137096115D01*
X149534000Y-136771884D01*
X149502220Y-136449215D01*
X149502217Y-136449198D01*
X149438969Y-136131218D01*
X149438966Y-136131207D01*
X149344842Y-135820921D01*
X149220761Y-135521364D01*
X149220759Y-135521359D01*
X149067920Y-135235419D01*
X149067909Y-135235401D01*
X148887787Y-134965829D01*
X148887777Y-134965815D01*
X148738108Y-134783444D01*
X148738107Y-134783443D01*
X147528250Y-135993300D01*
X147454412Y-135891670D01*
X147276330Y-135713588D01*
X147174697Y-135639747D01*
X148384555Y-134429891D01*
X148384554Y-134429890D01*
X148202184Y-134280222D01*
X148202170Y-134280212D01*
X147932598Y-134100090D01*
X147932580Y-134100079D01*
X147646640Y-133947240D01*
X147646635Y-133947238D01*
X147347078Y-133823157D01*
X147036792Y-133729033D01*
X147036781Y-133729030D01*
X146718801Y-133665782D01*
X146718784Y-133665779D01*
X146396116Y-133634000D01*
X146071884Y-133634000D01*
X145749215Y-133665779D01*
X145749198Y-133665782D01*
X145431218Y-133729030D01*
X145431207Y-133729033D01*
X145120921Y-133823157D01*
X144821364Y-133947238D01*
X144821359Y-133947240D01*
X144535419Y-134100079D01*
X144535401Y-134100090D01*
X144265829Y-134280212D01*
X144265815Y-134280222D01*
X144083444Y-134429890D01*
X144083443Y-134429891D01*
X145293301Y-135639748D01*
X145191670Y-135713588D01*
X145013588Y-135891670D01*
X144939748Y-135993301D01*
X143729891Y-134783443D01*
X143729890Y-134783444D01*
X143580222Y-134965815D01*
X143580212Y-134965829D01*
X143400090Y-135235401D01*
X143400079Y-135235419D01*
X143247240Y-135521359D01*
X143247238Y-135521364D01*
X143123157Y-135820921D01*
X143029033Y-136131207D01*
X143029030Y-136131218D01*
X142965782Y-136449198D01*
X142965779Y-136449215D01*
X142934000Y-136771884D01*
X141734500Y-136771884D01*
X141734500Y-97273434D01*
X144105400Y-97273434D01*
X144105400Y-119411565D01*
X144144619Y-119557936D01*
X144175941Y-119612186D01*
X144220385Y-119689165D01*
X144220387Y-119689167D01*
X145266981Y-120735761D01*
X145300466Y-120797084D01*
X145295482Y-120866776D01*
X145266981Y-120911123D01*
X145203894Y-120974209D01*
X145203890Y-120974213D01*
X145078951Y-121146179D01*
X144982444Y-121335585D01*
X144916753Y-121537760D01*
X144890826Y-121701461D01*
X144883500Y-121747713D01*
X144883500Y-121960287D01*
X144892581Y-122017620D01*
X144914260Y-122154500D01*
X144916754Y-122170243D01*
X144976724Y-122354812D01*
X144982444Y-122372414D01*
X145078951Y-122561820D01*
X145203890Y-122733786D01*
X145354213Y-122884109D01*
X145510013Y-122997302D01*
X145526184Y-123009051D01*
X145534945Y-123013514D01*
X145585740Y-123061487D01*
X145602536Y-123129307D01*
X145580000Y-123195443D01*
X145534953Y-123234480D01*
X145526181Y-123238950D01*
X145354213Y-123363890D01*
X145203890Y-123514213D01*
X145078951Y-123686179D01*
X144982444Y-123875585D01*
X144982443Y-123875587D01*
X144982443Y-123875588D01*
X144969059Y-123916779D01*
X144916753Y-124077760D01*
X144883500Y-124287713D01*
X144883500Y-124500286D01*
X144916753Y-124710239D01*
X144982444Y-124912414D01*
X145078951Y-125101820D01*
X145203890Y-125273786D01*
X145354213Y-125424109D01*
X145526182Y-125549050D01*
X145534946Y-125553516D01*
X145585742Y-125601491D01*
X145602536Y-125669312D01*
X145579998Y-125735447D01*
X145534946Y-125774484D01*
X145526182Y-125778949D01*
X145354213Y-125903890D01*
X145203890Y-126054213D01*
X145078951Y-126226179D01*
X144982444Y-126415585D01*
X144982443Y-126415587D01*
X144982443Y-126415588D01*
X144958069Y-126490602D01*
X144916753Y-126617760D01*
X144883500Y-126827713D01*
X144883500Y-127040286D01*
X144905920Y-127181844D01*
X144916754Y-127250243D01*
X144978101Y-127439050D01*
X144982444Y-127452414D01*
X145078951Y-127641820D01*
X145203890Y-127813786D01*
X145354213Y-127964109D01*
X145512878Y-128079384D01*
X145526184Y-128089051D01*
X145534945Y-128093514D01*
X145585740Y-128141487D01*
X145602536Y-128209307D01*
X145580000Y-128275443D01*
X145534953Y-128314480D01*
X145526181Y-128318950D01*
X145354213Y-128443890D01*
X145203890Y-128594213D01*
X145078951Y-128766179D01*
X144982444Y-128955585D01*
X144916753Y-129157760D01*
X144883500Y-129367713D01*
X144883500Y-129580286D01*
X144914965Y-129778951D01*
X144916754Y-129790243D01*
X144953682Y-129903896D01*
X144982444Y-129992414D01*
X145078951Y-130181820D01*
X145203890Y-130353786D01*
X145354213Y-130504109D01*
X145526179Y-130629048D01*
X145526181Y-130629049D01*
X145526184Y-130629051D01*
X145715588Y-130725557D01*
X145917757Y-130791246D01*
X146127713Y-130824500D01*
X146127714Y-130824500D01*
X146340286Y-130824500D01*
X146340287Y-130824500D01*
X146550243Y-130791246D01*
X146752412Y-130725557D01*
X146941816Y-130629051D01*
X147108514Y-130507939D01*
X147113786Y-130504109D01*
X147113788Y-130504106D01*
X147113792Y-130504104D01*
X147264104Y-130353792D01*
X147264106Y-130353788D01*
X147264109Y-130353786D01*
X147389048Y-130181820D01*
X147389047Y-130181820D01*
X147389051Y-130181816D01*
X147485557Y-129992412D01*
X147551246Y-129790243D01*
X147584500Y-129580287D01*
X147584500Y-129367713D01*
X147551246Y-129157757D01*
X147485557Y-128955588D01*
X147389051Y-128766184D01*
X147389049Y-128766181D01*
X147389048Y-128766179D01*
X147264109Y-128594213D01*
X147200968Y-128531072D01*
X147167483Y-128469749D01*
X147172467Y-128400057D01*
X147200966Y-128355712D01*
X149220515Y-126336165D01*
X149296281Y-126204935D01*
X149335500Y-126058566D01*
X149335500Y-125907033D01*
X149335500Y-111854753D01*
X153233700Y-111854753D01*
X153233700Y-112012446D01*
X153264461Y-112167089D01*
X153264464Y-112167101D01*
X153324802Y-112312772D01*
X153324809Y-112312785D01*
X153412410Y-112443888D01*
X153412412Y-112443891D01*
X153422378Y-112453856D01*
X153455865Y-112515178D01*
X153458700Y-112541540D01*
X153458700Y-133193265D01*
X153497919Y-133339636D01*
X153520935Y-133379500D01*
X153573685Y-133470865D01*
X153573687Y-133470867D01*
X155075568Y-134972748D01*
X155109053Y-135034071D01*
X155104069Y-135103763D01*
X155062199Y-135159695D01*
X155026452Y-135186455D01*
X154940206Y-135301664D01*
X154940202Y-135301671D01*
X154889908Y-135436517D01*
X154883501Y-135496116D01*
X154883501Y-135496123D01*
X154883500Y-135496135D01*
X154883500Y-137291870D01*
X154883501Y-137291876D01*
X154889908Y-137351483D01*
X154940202Y-137486328D01*
X154940206Y-137486335D01*
X155026452Y-137601544D01*
X155026455Y-137601547D01*
X155141664Y-137687793D01*
X155141671Y-137687797D01*
X155141674Y-137687798D01*
X155273598Y-137737002D01*
X155329531Y-137778873D01*
X155353949Y-137844337D01*
X155339098Y-137912610D01*
X155317947Y-137940865D01*
X155204271Y-138054541D01*
X155079379Y-138226442D01*
X154982904Y-138415782D01*
X154917242Y-138617870D01*
X154917242Y-138617873D01*
X154906769Y-138684000D01*
X155800988Y-138684000D01*
X155768075Y-138741007D01*
X155734000Y-138868174D01*
X155734000Y-138999826D01*
X155768075Y-139126993D01*
X155800988Y-139184000D01*
X154906769Y-139184000D01*
X154917242Y-139250126D01*
X154917242Y-139250129D01*
X154982904Y-139452217D01*
X155079379Y-139641557D01*
X155204272Y-139813459D01*
X155204276Y-139813464D01*
X155354535Y-139963723D01*
X155354540Y-139963727D01*
X155526442Y-140088620D01*
X155715782Y-140185095D01*
X155917871Y-140250757D01*
X155984000Y-140261231D01*
X155984000Y-139367012D01*
X156041007Y-139399925D01*
X156168174Y-139434000D01*
X156299826Y-139434000D01*
X156426993Y-139399925D01*
X156484000Y-139367012D01*
X156484000Y-140261230D01*
X156550126Y-140250757D01*
X156550129Y-140250757D01*
X156752217Y-140185095D01*
X156941557Y-140088620D01*
X157113459Y-139963727D01*
X157113464Y-139963723D01*
X157263723Y-139813464D01*
X157263727Y-139813459D01*
X157388620Y-139641557D01*
X157485095Y-139452217D01*
X157550757Y-139250129D01*
X157550757Y-139250126D01*
X157561231Y-139184000D01*
X156667012Y-139184000D01*
X156699925Y-139126993D01*
X156734000Y-138999826D01*
X156734000Y-138868174D01*
X156699925Y-138741007D01*
X156667012Y-138684000D01*
X157561231Y-138684000D01*
X157550757Y-138617873D01*
X157550757Y-138617870D01*
X157485095Y-138415782D01*
X157388620Y-138226442D01*
X157263727Y-138054540D01*
X157263723Y-138054535D01*
X157150053Y-137940865D01*
X157116568Y-137879542D01*
X157121552Y-137809850D01*
X157163424Y-137753917D01*
X157194400Y-137737002D01*
X157326331Y-137687796D01*
X157441546Y-137601546D01*
X157527796Y-137486331D01*
X157578091Y-137351483D01*
X157584500Y-137291873D01*
X157584499Y-135496128D01*
X157578091Y-135436517D01*
X157527796Y-135301669D01*
X157527795Y-135301668D01*
X157527793Y-135301664D01*
X157441547Y-135186455D01*
X157441544Y-135186452D01*
X157326335Y-135100206D01*
X157326328Y-135100202D01*
X157191482Y-135049908D01*
X157191483Y-135049908D01*
X157131883Y-135043501D01*
X157131881Y-135043500D01*
X157131873Y-135043500D01*
X157131865Y-135043500D01*
X156812043Y-135043500D01*
X156745004Y-135023815D01*
X156704656Y-134981500D01*
X156698600Y-134971011D01*
X156694515Y-134963935D01*
X156587365Y-134856785D01*
X154646019Y-132915439D01*
X154612534Y-132854116D01*
X154609700Y-132827758D01*
X154609700Y-118146518D01*
X154629385Y-118079479D01*
X154682189Y-118033724D01*
X154751347Y-118023780D01*
X154781147Y-118031955D01*
X154896503Y-118079737D01*
X155031109Y-118106512D01*
X155051153Y-118110499D01*
X155051156Y-118110500D01*
X155051158Y-118110500D01*
X155065258Y-118110500D01*
X155132297Y-118130185D01*
X155152939Y-118146819D01*
X155565144Y-118559023D01*
X155565154Y-118559034D01*
X155569484Y-118563364D01*
X155569485Y-118563365D01*
X155676635Y-118670515D01*
X155759895Y-118718585D01*
X155762846Y-118720289D01*
X155762847Y-118720290D01*
X155807859Y-118746278D01*
X155807860Y-118746278D01*
X155807865Y-118746281D01*
X155954233Y-118785500D01*
X155954234Y-118785500D01*
X158602059Y-118785500D01*
X158669098Y-118805185D01*
X158689740Y-118821819D01*
X158699707Y-118831786D01*
X158699711Y-118831789D01*
X158830814Y-118919390D01*
X158830827Y-118919397D01*
X158914346Y-118953991D01*
X158976503Y-118979737D01*
X159131153Y-119010499D01*
X159131156Y-119010500D01*
X159131158Y-119010500D01*
X159288844Y-119010500D01*
X159288845Y-119010499D01*
X159443497Y-118979737D01*
X159589179Y-118919394D01*
X159589184Y-118919390D01*
X159589187Y-118919389D01*
X159611608Y-118904408D01*
X159678285Y-118883529D01*
X159745666Y-118902013D01*
X159792356Y-118953991D01*
X159804500Y-119007509D01*
X159804500Y-122534234D01*
X159804500Y-132387534D01*
X159804500Y-132539066D01*
X159824109Y-132612250D01*
X159843719Y-132685436D01*
X159864637Y-132721666D01*
X159919485Y-132816665D01*
X159919487Y-132816667D01*
X162075568Y-134972748D01*
X162109053Y-135034071D01*
X162104069Y-135103763D01*
X162062199Y-135159695D01*
X162026452Y-135186455D01*
X161940206Y-135301664D01*
X161940202Y-135301671D01*
X161889908Y-135436517D01*
X161883501Y-135496116D01*
X161883501Y-135496123D01*
X161883500Y-135496135D01*
X161883500Y-137291870D01*
X161883501Y-137291876D01*
X161889908Y-137351483D01*
X161940202Y-137486328D01*
X161940206Y-137486335D01*
X162026452Y-137601544D01*
X162026455Y-137601547D01*
X162141664Y-137687793D01*
X162141671Y-137687797D01*
X162141674Y-137687798D01*
X162273598Y-137737002D01*
X162329531Y-137778873D01*
X162353949Y-137844337D01*
X162339098Y-137912610D01*
X162317947Y-137940865D01*
X162204271Y-138054541D01*
X162079379Y-138226442D01*
X161982904Y-138415782D01*
X161917242Y-138617870D01*
X161917242Y-138617873D01*
X161906769Y-138684000D01*
X162800988Y-138684000D01*
X162768075Y-138741007D01*
X162734000Y-138868174D01*
X162734000Y-138999826D01*
X162768075Y-139126993D01*
X162800988Y-139184000D01*
X161906769Y-139184000D01*
X161917242Y-139250126D01*
X161917242Y-139250129D01*
X161982904Y-139452217D01*
X162079379Y-139641557D01*
X162204272Y-139813459D01*
X162204276Y-139813464D01*
X162354535Y-139963723D01*
X162354540Y-139963727D01*
X162526442Y-140088620D01*
X162715782Y-140185095D01*
X162917871Y-140250757D01*
X162984000Y-140261231D01*
X162984000Y-139367012D01*
X163041007Y-139399925D01*
X163168174Y-139434000D01*
X163299826Y-139434000D01*
X163426993Y-139399925D01*
X163484000Y-139367012D01*
X163484000Y-140261230D01*
X163550126Y-140250757D01*
X163550129Y-140250757D01*
X163752217Y-140185095D01*
X163941557Y-140088620D01*
X164113459Y-139963727D01*
X164113464Y-139963723D01*
X164263723Y-139813464D01*
X164263727Y-139813459D01*
X164388620Y-139641557D01*
X164485095Y-139452217D01*
X164550757Y-139250129D01*
X164550757Y-139250126D01*
X164561231Y-139184000D01*
X163667012Y-139184000D01*
X163699925Y-139126993D01*
X163734000Y-138999826D01*
X163734000Y-138868174D01*
X163699925Y-138741007D01*
X163667012Y-138684000D01*
X164561231Y-138684000D01*
X164550757Y-138617873D01*
X164550757Y-138617870D01*
X164485095Y-138415782D01*
X164388620Y-138226442D01*
X164263727Y-138054540D01*
X164263723Y-138054535D01*
X164150053Y-137940865D01*
X164116568Y-137879542D01*
X164121552Y-137809850D01*
X164163424Y-137753917D01*
X164194400Y-137737002D01*
X164326331Y-137687796D01*
X164441546Y-137601546D01*
X164527796Y-137486331D01*
X164578091Y-137351483D01*
X164584500Y-137291873D01*
X164584499Y-135496128D01*
X164578091Y-135436517D01*
X164527796Y-135301669D01*
X164527795Y-135301668D01*
X164527793Y-135301664D01*
X164441547Y-135186455D01*
X164441544Y-135186452D01*
X164326335Y-135100206D01*
X164326328Y-135100202D01*
X164191482Y-135049908D01*
X164191483Y-135049908D01*
X164131883Y-135043501D01*
X164131881Y-135043500D01*
X164131873Y-135043500D01*
X164131865Y-135043500D01*
X163812043Y-135043500D01*
X163745004Y-135023815D01*
X163704656Y-134981500D01*
X163698600Y-134971011D01*
X163694515Y-134963935D01*
X163587365Y-134856785D01*
X160991819Y-132261239D01*
X160958334Y-132199916D01*
X160955500Y-132173558D01*
X160955500Y-111412540D01*
X160975185Y-111345501D01*
X160991822Y-111324856D01*
X161001787Y-111314891D01*
X161001789Y-111314889D01*
X161089394Y-111183779D01*
X161149737Y-111038097D01*
X161180500Y-110883442D01*
X161180500Y-110725758D01*
X161180500Y-110725755D01*
X161180499Y-110725753D01*
X161173878Y-110692466D01*
X161149737Y-110571103D01*
X161126050Y-110513917D01*
X161089397Y-110425427D01*
X161089390Y-110425414D01*
X161001789Y-110294311D01*
X161001786Y-110294307D01*
X160890292Y-110182813D01*
X160890288Y-110182810D01*
X160759185Y-110095209D01*
X160759172Y-110095202D01*
X160613501Y-110034864D01*
X160613489Y-110034861D01*
X160458845Y-110004100D01*
X160458842Y-110004100D01*
X160301158Y-110004100D01*
X160301155Y-110004100D01*
X160146510Y-110034861D01*
X160146498Y-110034864D01*
X160000827Y-110095202D01*
X160000814Y-110095209D01*
X159869711Y-110182810D01*
X159869707Y-110182813D01*
X159758213Y-110294307D01*
X159758210Y-110294311D01*
X159670609Y-110425414D01*
X159670602Y-110425427D01*
X159610264Y-110571098D01*
X159610261Y-110571110D01*
X159579500Y-110725753D01*
X159579500Y-110883446D01*
X159610261Y-111038089D01*
X159610264Y-111038101D01*
X159670602Y-111183772D01*
X159670609Y-111183785D01*
X159758210Y-111314888D01*
X159758212Y-111314891D01*
X159768178Y-111324856D01*
X159801665Y-111386178D01*
X159804500Y-111412540D01*
X159804500Y-117412490D01*
X159784815Y-117479529D01*
X159732011Y-117525284D01*
X159662853Y-117535228D01*
X159611611Y-117515593D01*
X159589188Y-117500611D01*
X159589172Y-117500602D01*
X159443501Y-117440264D01*
X159443489Y-117440261D01*
X159288845Y-117409500D01*
X159288842Y-117409500D01*
X159131158Y-117409500D01*
X159131155Y-117409500D01*
X158976510Y-117440261D01*
X158976498Y-117440264D01*
X158830827Y-117500602D01*
X158830814Y-117500609D01*
X158699711Y-117588210D01*
X158699707Y-117588213D01*
X158689740Y-117598181D01*
X158628417Y-117631666D01*
X158602059Y-117634500D01*
X156319741Y-117634500D01*
X156252702Y-117614815D01*
X156232060Y-117598181D01*
X155966819Y-117332939D01*
X155933334Y-117271616D01*
X155930500Y-117245258D01*
X155930500Y-117231155D01*
X155930499Y-117231153D01*
X155919726Y-117176993D01*
X155899737Y-117076503D01*
X155888687Y-117049826D01*
X155839397Y-116930827D01*
X155839390Y-116930814D01*
X155751789Y-116799711D01*
X155751786Y-116799707D01*
X155640292Y-116688213D01*
X155640288Y-116688210D01*
X155509185Y-116600609D01*
X155509172Y-116600602D01*
X155363501Y-116540264D01*
X155363489Y-116540261D01*
X155208845Y-116509500D01*
X155208842Y-116509500D01*
X155051158Y-116509500D01*
X155051155Y-116509500D01*
X154896510Y-116540261D01*
X154896498Y-116540264D01*
X154781152Y-116588042D01*
X154711683Y-116595511D01*
X154649204Y-116564235D01*
X154613552Y-116504146D01*
X154609700Y-116473481D01*
X154609700Y-112541540D01*
X154629385Y-112474501D01*
X154646022Y-112453856D01*
X154655987Y-112443891D01*
X154655989Y-112443889D01*
X154743594Y-112312779D01*
X154803937Y-112167097D01*
X154834700Y-112012442D01*
X154834700Y-111854758D01*
X154834700Y-111854755D01*
X154834699Y-111854753D01*
X154830571Y-111834000D01*
X154803937Y-111700103D01*
X154778727Y-111639240D01*
X154743597Y-111554427D01*
X154743590Y-111554414D01*
X154655989Y-111423311D01*
X154655986Y-111423307D01*
X154544492Y-111311813D01*
X154544488Y-111311810D01*
X154413385Y-111224209D01*
X154413372Y-111224202D01*
X154267701Y-111163864D01*
X154267689Y-111163861D01*
X154113045Y-111133100D01*
X154113042Y-111133100D01*
X153955358Y-111133100D01*
X153955355Y-111133100D01*
X153800710Y-111163861D01*
X153800698Y-111163864D01*
X153655027Y-111224202D01*
X153655014Y-111224209D01*
X153523911Y-111311810D01*
X153523907Y-111311813D01*
X153412413Y-111423307D01*
X153412410Y-111423311D01*
X153324809Y-111554414D01*
X153324802Y-111554427D01*
X153264464Y-111700098D01*
X153264461Y-111700110D01*
X153233700Y-111854753D01*
X149335500Y-111854753D01*
X149335500Y-101706334D01*
X149296281Y-101559965D01*
X149220515Y-101428735D01*
X149113365Y-101321585D01*
X146752519Y-98960739D01*
X146719034Y-98899416D01*
X146724018Y-98829724D01*
X146752519Y-98785377D01*
X146753797Y-98784099D01*
X146804104Y-98733792D01*
X146804106Y-98733788D01*
X146804109Y-98733786D01*
X146929048Y-98561820D01*
X146929047Y-98561820D01*
X146929051Y-98561816D01*
X147025557Y-98372412D01*
X147091246Y-98170243D01*
X147124500Y-97960287D01*
X147124500Y-97747713D01*
X147091246Y-97537757D01*
X147025557Y-97335588D01*
X146929051Y-97146184D01*
X146929049Y-97146181D01*
X146929048Y-97146179D01*
X146804109Y-96974213D01*
X146653786Y-96823890D01*
X146481815Y-96698948D01*
X146481812Y-96698946D01*
X146473050Y-96694481D01*
X146422256Y-96646505D01*
X146405463Y-96578683D01*
X146428003Y-96512549D01*
X146473056Y-96473514D01*
X146481816Y-96469051D01*
X146653792Y-96344104D01*
X146804104Y-96193792D01*
X146804106Y-96193788D01*
X146804109Y-96193786D01*
X146929048Y-96021820D01*
X146929047Y-96021820D01*
X146929051Y-96021816D01*
X147025557Y-95832412D01*
X147091246Y-95630243D01*
X147124500Y-95420287D01*
X147124500Y-95207713D01*
X147091246Y-94997757D01*
X147025557Y-94795588D01*
X146929051Y-94606184D01*
X146929049Y-94606181D01*
X146929048Y-94606179D01*
X146804109Y-94434213D01*
X146690569Y-94320673D01*
X146657084Y-94259350D01*
X146662068Y-94189658D01*
X146703940Y-94133725D01*
X146734915Y-94116810D01*
X146866331Y-94067796D01*
X146981546Y-93981546D01*
X147067796Y-93866331D01*
X147118091Y-93731483D01*
X147124500Y-93671873D01*
X147124499Y-91876128D01*
X147118091Y-91816517D01*
X147067796Y-91681669D01*
X147067795Y-91681668D01*
X147067793Y-91681664D01*
X146981547Y-91566455D01*
X146981544Y-91566452D01*
X146866335Y-91480206D01*
X146866328Y-91480202D01*
X146731482Y-91429908D01*
X146731483Y-91429908D01*
X146671883Y-91423501D01*
X146671881Y-91423500D01*
X146671873Y-91423500D01*
X146671864Y-91423500D01*
X144876129Y-91423500D01*
X144876123Y-91423501D01*
X144816516Y-91429908D01*
X144681671Y-91480202D01*
X144681664Y-91480206D01*
X144566455Y-91566452D01*
X144566452Y-91566455D01*
X144480206Y-91681664D01*
X144480202Y-91681671D01*
X144429908Y-91816517D01*
X144423501Y-91876116D01*
X144423501Y-91876123D01*
X144423500Y-91876135D01*
X144423500Y-93671870D01*
X144423501Y-93671876D01*
X144429908Y-93731483D01*
X144480202Y-93866328D01*
X144480206Y-93866335D01*
X144566452Y-93981544D01*
X144566455Y-93981547D01*
X144681664Y-94067793D01*
X144681671Y-94067797D01*
X144813082Y-94116810D01*
X144869016Y-94158681D01*
X144893433Y-94224145D01*
X144878582Y-94292418D01*
X144857431Y-94320673D01*
X144743889Y-94434215D01*
X144618951Y-94606179D01*
X144522444Y-94795585D01*
X144456753Y-94997760D01*
X144423500Y-95207713D01*
X144423500Y-95420286D01*
X144450320Y-95589624D01*
X144456754Y-95630243D01*
X144517829Y-95818213D01*
X144522444Y-95832414D01*
X144618951Y-96021820D01*
X144743890Y-96193786D01*
X144795481Y-96245377D01*
X144828966Y-96306700D01*
X144823982Y-96376392D01*
X144795481Y-96420739D01*
X144220387Y-96995832D01*
X144220385Y-96995835D01*
X144144619Y-97127063D01*
X144105400Y-97273434D01*
X141734500Y-97273434D01*
X141734500Y-86936706D01*
X141734618Y-86931297D01*
X141736930Y-86878334D01*
X141741578Y-86771884D01*
X142934000Y-86771884D01*
X142934000Y-87096115D01*
X142965779Y-87418784D01*
X142965782Y-87418801D01*
X143029030Y-87736781D01*
X143029033Y-87736792D01*
X143123157Y-88047078D01*
X143247238Y-88346635D01*
X143247240Y-88346640D01*
X143400079Y-88632580D01*
X143400090Y-88632598D01*
X143580212Y-88902170D01*
X143580222Y-88902184D01*
X143729890Y-89084554D01*
X143729891Y-89084555D01*
X144939748Y-87874698D01*
X145013588Y-87976330D01*
X145191670Y-88154412D01*
X145293300Y-88228251D01*
X144083443Y-89438107D01*
X144083444Y-89438108D01*
X144265815Y-89587777D01*
X144265829Y-89587787D01*
X144535401Y-89767909D01*
X144535419Y-89767920D01*
X144821359Y-89920759D01*
X144821364Y-89920761D01*
X145120921Y-90044842D01*
X145431207Y-90138966D01*
X145431218Y-90138969D01*
X145749198Y-90202217D01*
X145749215Y-90202220D01*
X146071884Y-90234000D01*
X146396116Y-90234000D01*
X146718784Y-90202220D01*
X146718801Y-90202217D01*
X147036781Y-90138969D01*
X147036792Y-90138966D01*
X147347078Y-90044842D01*
X147646635Y-89920761D01*
X147646640Y-89920759D01*
X147932580Y-89767920D01*
X147932598Y-89767909D01*
X148202170Y-89587787D01*
X148202183Y-89587777D01*
X148384554Y-89438108D01*
X148384554Y-89438107D01*
X147174698Y-88228251D01*
X147276330Y-88154412D01*
X147454412Y-87976330D01*
X147528251Y-87874698D01*
X148738107Y-89084554D01*
X148738108Y-89084554D01*
X148887777Y-88902183D01*
X148887787Y-88902170D01*
X149067909Y-88632598D01*
X149067920Y-88632580D01*
X149220759Y-88346640D01*
X149220761Y-88346635D01*
X149344842Y-88047078D01*
X149438966Y-87736792D01*
X149438969Y-87736781D01*
X149502217Y-87418801D01*
X149502220Y-87418784D01*
X149534000Y-87096115D01*
X149534000Y-86771884D01*
X149502220Y-86449215D01*
X149502217Y-86449198D01*
X149473940Y-86307032D01*
X149470097Y-86287713D01*
X154643500Y-86287713D01*
X154643500Y-86500286D01*
X154676160Y-86706498D01*
X154676754Y-86710243D01*
X154731370Y-86878334D01*
X154742444Y-86912414D01*
X154838951Y-87101820D01*
X154963890Y-87273786D01*
X155114209Y-87424105D01*
X155119106Y-87427663D01*
X155161771Y-87482994D01*
X155167750Y-87552607D01*
X155135144Y-87614402D01*
X155085229Y-87645685D01*
X155074673Y-87649183D01*
X155074663Y-87649187D01*
X154925342Y-87741289D01*
X154801289Y-87865342D01*
X154709187Y-88014663D01*
X154709185Y-88014668D01*
X154696083Y-88054208D01*
X154654001Y-88181203D01*
X154654001Y-88181204D01*
X154654000Y-88181204D01*
X154643500Y-88283983D01*
X154643500Y-89584001D01*
X154643501Y-89584018D01*
X154654000Y-89686796D01*
X154654001Y-89686799D01*
X154681844Y-89770821D01*
X154709186Y-89853334D01*
X154801288Y-90002656D01*
X154925344Y-90126712D01*
X155074666Y-90218814D01*
X155241203Y-90273999D01*
X155343991Y-90284500D01*
X156644008Y-90284499D01*
X156645203Y-90284377D01*
X156661895Y-90282671D01*
X156746797Y-90273999D01*
X156913334Y-90218814D01*
X157062656Y-90126712D01*
X157186712Y-90002656D01*
X157278814Y-89853334D01*
X157282312Y-89842775D01*
X157322082Y-89785332D01*
X157386598Y-89758507D01*
X157455374Y-89770821D01*
X157500334Y-89808891D01*
X157503890Y-89813785D01*
X157503894Y-89813790D01*
X157654213Y-89964109D01*
X157826179Y-90089048D01*
X157826181Y-90089049D01*
X157826184Y-90089051D01*
X158015588Y-90185557D01*
X158217757Y-90251246D01*
X158427713Y-90284500D01*
X158427714Y-90284500D01*
X158640286Y-90284500D01*
X158640287Y-90284500D01*
X158850243Y-90251246D01*
X159052412Y-90185557D01*
X159241816Y-90089051D01*
X159302665Y-90044842D01*
X159413786Y-89964109D01*
X159413788Y-89964106D01*
X159413792Y-89964104D01*
X159564104Y-89813792D01*
X159564106Y-89813788D01*
X159564109Y-89813786D01*
X159649890Y-89695717D01*
X159689051Y-89641816D01*
X159693793Y-89632508D01*
X159741763Y-89581711D01*
X159809583Y-89564911D01*
X159875719Y-89587445D01*
X159914763Y-89632500D01*
X159919373Y-89641547D01*
X159958728Y-89695716D01*
X160591037Y-89063408D01*
X160608075Y-89126993D01*
X160673901Y-89241007D01*
X160766993Y-89334099D01*
X160881007Y-89399925D01*
X160944590Y-89416962D01*
X160312282Y-90049269D01*
X160312282Y-90049270D01*
X160366449Y-90088624D01*
X160555782Y-90185095D01*
X160757870Y-90250757D01*
X160967754Y-90284000D01*
X161180246Y-90284000D01*
X161390127Y-90250757D01*
X161390130Y-90250757D01*
X161592217Y-90185095D01*
X161781554Y-90088622D01*
X161835716Y-90049270D01*
X161835717Y-90049270D01*
X161203408Y-89416962D01*
X161266993Y-89399925D01*
X161381007Y-89334099D01*
X161474099Y-89241007D01*
X161539925Y-89126993D01*
X161556962Y-89063409D01*
X162189270Y-89695717D01*
X162189270Y-89695716D01*
X162228622Y-89641554D01*
X162233514Y-89631954D01*
X162281488Y-89581157D01*
X162349308Y-89564361D01*
X162415444Y-89586897D01*
X162454486Y-89631954D01*
X162459375Y-89641550D01*
X162498728Y-89695716D01*
X163131037Y-89063408D01*
X163148075Y-89126993D01*
X163213901Y-89241007D01*
X163306993Y-89334099D01*
X163421007Y-89399925D01*
X163484590Y-89416962D01*
X162852282Y-90049269D01*
X162852282Y-90049270D01*
X162906449Y-90088624D01*
X163095782Y-90185095D01*
X163297870Y-90250757D01*
X163507754Y-90284000D01*
X163720246Y-90284000D01*
X163930127Y-90250757D01*
X163930130Y-90250757D01*
X164132217Y-90185095D01*
X164321554Y-90088622D01*
X164375716Y-90049270D01*
X164375717Y-90049270D01*
X163743408Y-89416962D01*
X163806993Y-89399925D01*
X163921007Y-89334099D01*
X164014099Y-89241007D01*
X164079925Y-89126993D01*
X164096962Y-89063408D01*
X164729270Y-89695717D01*
X164729270Y-89695716D01*
X164768622Y-89641555D01*
X164773232Y-89632507D01*
X164821205Y-89581709D01*
X164889025Y-89564912D01*
X164955161Y-89587447D01*
X164994204Y-89632504D01*
X164998949Y-89641817D01*
X165123890Y-89813786D01*
X165274213Y-89964109D01*
X165446179Y-90089048D01*
X165446181Y-90089049D01*
X165446184Y-90089051D01*
X165635588Y-90185557D01*
X165837757Y-90251246D01*
X166047713Y-90284500D01*
X166047714Y-90284500D01*
X166260286Y-90284500D01*
X166260287Y-90284500D01*
X166470243Y-90251246D01*
X166672412Y-90185557D01*
X166694205Y-90174453D01*
X166762874Y-90161557D01*
X166827615Y-90187833D01*
X166867872Y-90244940D01*
X166874500Y-90284938D01*
X166874500Y-105553558D01*
X166854815Y-105620597D01*
X166838181Y-105641239D01*
X164932939Y-107546481D01*
X164871616Y-107579966D01*
X164845258Y-107582800D01*
X164555234Y-107582800D01*
X164408863Y-107622019D01*
X164277635Y-107697785D01*
X164277632Y-107697787D01*
X163705587Y-108269832D01*
X163705585Y-108269835D01*
X163629819Y-108401063D01*
X163590600Y-108547434D01*
X163590600Y-112275295D01*
X163570915Y-112342334D01*
X163518111Y-112388089D01*
X163448953Y-112398033D01*
X163442409Y-112396912D01*
X163386545Y-112385800D01*
X163386542Y-112385800D01*
X163228858Y-112385800D01*
X163228855Y-112385800D01*
X163074210Y-112416561D01*
X163074198Y-112416564D01*
X162928527Y-112476902D01*
X162928514Y-112476909D01*
X162797411Y-112564510D01*
X162797407Y-112564513D01*
X162685913Y-112676007D01*
X162685910Y-112676011D01*
X162598309Y-112807114D01*
X162598302Y-112807127D01*
X162537964Y-112952798D01*
X162537961Y-112952810D01*
X162507200Y-113107453D01*
X162507200Y-113121557D01*
X162487515Y-113188596D01*
X162470881Y-113209238D01*
X161647893Y-114032225D01*
X161647894Y-114032226D01*
X161558185Y-114121935D01*
X161482419Y-114253163D01*
X161443200Y-114399534D01*
X161443200Y-125043659D01*
X161423515Y-125110698D01*
X161406881Y-125131340D01*
X161396913Y-125141307D01*
X161396910Y-125141311D01*
X161309309Y-125272414D01*
X161309302Y-125272427D01*
X161248964Y-125418098D01*
X161248961Y-125418110D01*
X161218200Y-125572753D01*
X161218200Y-125730446D01*
X161248961Y-125885089D01*
X161248964Y-125885101D01*
X161309302Y-126030772D01*
X161309309Y-126030785D01*
X161396910Y-126161888D01*
X161396913Y-126161892D01*
X161508407Y-126273386D01*
X161508411Y-126273389D01*
X161639514Y-126360990D01*
X161639527Y-126360997D01*
X161785198Y-126421335D01*
X161785203Y-126421337D01*
X161939853Y-126452099D01*
X161939856Y-126452100D01*
X161939858Y-126452100D01*
X162097543Y-126452100D01*
X162144804Y-126442699D01*
X162176108Y-126436472D01*
X162245699Y-126442699D01*
X162300877Y-126485561D01*
X162324122Y-126551451D01*
X162324300Y-126558089D01*
X162324300Y-132041534D01*
X162324300Y-132193066D01*
X162328987Y-132210557D01*
X162363519Y-132339436D01*
X162384855Y-132376390D01*
X162439285Y-132470665D01*
X167923835Y-137955215D01*
X168027596Y-138015121D01*
X168052974Y-138029774D01*
X168101189Y-138080342D01*
X168114411Y-138148949D01*
X168091293Y-138210044D01*
X168079378Y-138226444D01*
X167982904Y-138415782D01*
X167917242Y-138617870D01*
X167917242Y-138617873D01*
X167906769Y-138684000D01*
X168800988Y-138684000D01*
X168768075Y-138741007D01*
X168734000Y-138868174D01*
X168734000Y-138999826D01*
X168768075Y-139126993D01*
X168800988Y-139184000D01*
X167906769Y-139184000D01*
X167917242Y-139250126D01*
X167917242Y-139250129D01*
X167982904Y-139452217D01*
X168079379Y-139641557D01*
X168204272Y-139813459D01*
X168204276Y-139813464D01*
X168354535Y-139963723D01*
X168354540Y-139963727D01*
X168526442Y-140088620D01*
X168715782Y-140185095D01*
X168917871Y-140250757D01*
X168984000Y-140261231D01*
X168984000Y-139367012D01*
X169041007Y-139399925D01*
X169168174Y-139434000D01*
X169299826Y-139434000D01*
X169426993Y-139399925D01*
X169484000Y-139367012D01*
X169484000Y-140261230D01*
X169550126Y-140250757D01*
X169550129Y-140250757D01*
X169752217Y-140185095D01*
X169941557Y-140088620D01*
X170113459Y-139963727D01*
X170113464Y-139963723D01*
X170263723Y-139813464D01*
X170263727Y-139813459D01*
X170388620Y-139641557D01*
X170485095Y-139452217D01*
X170550757Y-139250129D01*
X170550757Y-139250126D01*
X170561231Y-139184000D01*
X169667012Y-139184000D01*
X169699925Y-139126993D01*
X169734000Y-138999826D01*
X169734000Y-138868174D01*
X169699925Y-138741007D01*
X169667012Y-138684000D01*
X170561231Y-138684000D01*
X170550757Y-138617873D01*
X170550757Y-138617870D01*
X170485095Y-138415782D01*
X170388618Y-138226437D01*
X170386077Y-138222290D01*
X170387218Y-138221590D01*
X170365782Y-138161534D01*
X170381599Y-138093478D01*
X170431698Y-138044777D01*
X170457479Y-138034666D01*
X170471235Y-138030981D01*
X170602465Y-137955215D01*
X171360315Y-137197365D01*
X171436081Y-137066135D01*
X171475300Y-136919766D01*
X171475300Y-136768233D01*
X171475300Y-133010407D01*
X171494985Y-132943368D01*
X171547789Y-132897613D01*
X171616947Y-132887669D01*
X171623492Y-132888790D01*
X171736655Y-132911300D01*
X171736658Y-132911300D01*
X171894344Y-132911300D01*
X171894345Y-132911299D01*
X172048997Y-132880537D01*
X172194679Y-132820194D01*
X172302818Y-132747937D01*
X172369494Y-132727060D01*
X172418795Y-132738928D01*
X172419692Y-132736763D01*
X172570998Y-132799435D01*
X172571003Y-132799437D01*
X172725653Y-132830199D01*
X172725656Y-132830200D01*
X172725658Y-132830200D01*
X172743243Y-132830200D01*
X172805244Y-132846813D01*
X172811133Y-132850213D01*
X172811135Y-132850215D01*
X172942365Y-132925981D01*
X173088734Y-132965200D01*
X173240267Y-132965200D01*
X174534500Y-132965200D01*
X174601539Y-132984885D01*
X174647294Y-133037689D01*
X174658500Y-133089200D01*
X174658500Y-134919500D01*
X174638815Y-134986539D01*
X174586011Y-135032294D01*
X174534501Y-135043500D01*
X174336130Y-135043500D01*
X174336123Y-135043501D01*
X174276516Y-135049908D01*
X174141671Y-135100202D01*
X174141664Y-135100206D01*
X174026455Y-135186452D01*
X174026452Y-135186455D01*
X173940206Y-135301664D01*
X173940202Y-135301671D01*
X173889908Y-135436517D01*
X173883501Y-135496116D01*
X173883501Y-135496123D01*
X173883500Y-135496135D01*
X173883500Y-137291870D01*
X173883501Y-137291876D01*
X173889908Y-137351483D01*
X173940202Y-137486328D01*
X173940206Y-137486335D01*
X174026452Y-137601544D01*
X174026455Y-137601547D01*
X174141664Y-137687793D01*
X174141671Y-137687797D01*
X174141674Y-137687798D01*
X174273598Y-137737002D01*
X174329531Y-137778873D01*
X174353949Y-137844337D01*
X174339098Y-137912610D01*
X174317947Y-137940865D01*
X174204271Y-138054541D01*
X174079379Y-138226442D01*
X173982904Y-138415782D01*
X173917242Y-138617870D01*
X173917242Y-138617873D01*
X173906769Y-138684000D01*
X174800988Y-138684000D01*
X174768075Y-138741007D01*
X174734000Y-138868174D01*
X174734000Y-138999826D01*
X174768075Y-139126993D01*
X174800988Y-139184000D01*
X173906769Y-139184000D01*
X173917242Y-139250126D01*
X173917242Y-139250129D01*
X173982904Y-139452217D01*
X174079379Y-139641557D01*
X174204272Y-139813459D01*
X174204276Y-139813464D01*
X174354535Y-139963723D01*
X174354540Y-139963727D01*
X174526442Y-140088620D01*
X174715782Y-140185095D01*
X174917871Y-140250757D01*
X174984000Y-140261231D01*
X174984000Y-139367012D01*
X175041007Y-139399925D01*
X175168174Y-139434000D01*
X175299826Y-139434000D01*
X175426993Y-139399925D01*
X175484000Y-139367012D01*
X175484000Y-140261230D01*
X175550126Y-140250757D01*
X175550129Y-140250757D01*
X175752217Y-140185095D01*
X175941557Y-140088620D01*
X176113459Y-139963727D01*
X176113464Y-139963723D01*
X176263723Y-139813464D01*
X176263727Y-139813459D01*
X176388620Y-139641557D01*
X176485095Y-139452217D01*
X176550757Y-139250129D01*
X176550757Y-139250126D01*
X176561231Y-139184000D01*
X175667012Y-139184000D01*
X175699925Y-139126993D01*
X175734000Y-138999826D01*
X175734000Y-138868174D01*
X175699925Y-138741007D01*
X175667012Y-138684000D01*
X176561231Y-138684000D01*
X176550757Y-138617873D01*
X176550757Y-138617870D01*
X176485095Y-138415782D01*
X176388620Y-138226442D01*
X176263727Y-138054540D01*
X176263723Y-138054535D01*
X176150053Y-137940865D01*
X176116568Y-137879542D01*
X176121552Y-137809850D01*
X176163424Y-137753917D01*
X176194400Y-137737002D01*
X176326331Y-137687796D01*
X176441546Y-137601546D01*
X176527796Y-137486331D01*
X176578091Y-137351483D01*
X176584500Y-137291873D01*
X176584499Y-135496128D01*
X176578091Y-135436517D01*
X176527796Y-135301669D01*
X176527795Y-135301668D01*
X176527793Y-135301664D01*
X176441547Y-135186455D01*
X176441544Y-135186452D01*
X176326335Y-135100206D01*
X176326328Y-135100202D01*
X176191482Y-135049908D01*
X176191483Y-135049908D01*
X176131883Y-135043501D01*
X176131881Y-135043500D01*
X176131873Y-135043500D01*
X176131865Y-135043500D01*
X175933500Y-135043500D01*
X175866461Y-135023815D01*
X175820706Y-134971011D01*
X175809500Y-134919500D01*
X175809500Y-132313936D01*
X175809500Y-132313934D01*
X175770281Y-132167565D01*
X175694515Y-132036335D01*
X175587365Y-131929185D01*
X175421819Y-131763639D01*
X175388334Y-131702316D01*
X175385500Y-131675958D01*
X175385500Y-123078194D01*
X175405185Y-123011155D01*
X175421819Y-122990513D01*
X175571145Y-122841187D01*
X175732115Y-122680217D01*
X175807881Y-122548987D01*
X175847100Y-122402618D01*
X175847100Y-122251085D01*
X175847100Y-121525382D01*
X175808196Y-121380188D01*
X175808196Y-121316003D01*
X175816988Y-121283190D01*
X175847100Y-121170810D01*
X175847100Y-120772202D01*
X175847173Y-120767937D01*
X175847659Y-120753788D01*
X175851500Y-120739457D01*
X175851500Y-120642197D01*
X175851573Y-120640076D01*
X175861922Y-120608845D01*
X175871185Y-120577302D01*
X175872856Y-120575854D01*
X175873552Y-120573754D01*
X175899142Y-120553076D01*
X175923989Y-120531547D01*
X175926177Y-120531232D01*
X175927898Y-120529842D01*
X175960589Y-120526284D01*
X175993147Y-120521603D01*
X175995159Y-120522522D01*
X175997358Y-120522283D01*
X176026784Y-120536964D01*
X176056703Y-120550628D01*
X176059627Y-120553350D01*
X176059878Y-120553476D01*
X176060022Y-120553719D01*
X176063181Y-120556660D01*
X176138607Y-120632086D01*
X176138611Y-120632089D01*
X176269714Y-120719690D01*
X176269727Y-120719697D01*
X176414616Y-120779711D01*
X176415403Y-120780037D01*
X176570053Y-120810799D01*
X176570056Y-120810800D01*
X176570058Y-120810800D01*
X176727744Y-120810800D01*
X176727745Y-120810799D01*
X176882397Y-120780037D01*
X177028079Y-120719694D01*
X177028084Y-120719690D01*
X177028087Y-120719689D01*
X177069908Y-120691745D01*
X177136585Y-120670866D01*
X177203966Y-120689350D01*
X177250656Y-120741328D01*
X177262800Y-120794846D01*
X177262800Y-131143032D01*
X177243115Y-131210071D01*
X177207693Y-131246133D01*
X177170306Y-131271114D01*
X177170304Y-131271117D01*
X177058813Y-131382607D01*
X177058810Y-131382611D01*
X176971209Y-131513714D01*
X176971202Y-131513727D01*
X176910864Y-131659398D01*
X176910861Y-131659410D01*
X176880100Y-131814053D01*
X176880100Y-131971746D01*
X176910861Y-132126389D01*
X176910864Y-132126401D01*
X176971202Y-132272072D01*
X176971209Y-132272085D01*
X177058810Y-132403188D01*
X177058813Y-132403192D01*
X177170307Y-132514686D01*
X177170311Y-132514689D01*
X177301414Y-132602290D01*
X177301427Y-132602297D01*
X177447098Y-132662635D01*
X177447103Y-132662637D01*
X177601753Y-132693399D01*
X177601756Y-132693400D01*
X177744858Y-132693400D01*
X177811897Y-132713085D01*
X177832539Y-132729719D01*
X180075568Y-134972748D01*
X180109053Y-135034071D01*
X180104069Y-135103763D01*
X180062199Y-135159695D01*
X180026452Y-135186455D01*
X179940206Y-135301664D01*
X179940202Y-135301671D01*
X179889908Y-135436517D01*
X179883501Y-135496116D01*
X179883501Y-135496123D01*
X179883500Y-135496135D01*
X179883500Y-137291870D01*
X179883501Y-137291876D01*
X179889908Y-137351483D01*
X179940202Y-137486328D01*
X179940206Y-137486335D01*
X180026452Y-137601544D01*
X180026455Y-137601547D01*
X180141664Y-137687793D01*
X180141671Y-137687797D01*
X180141674Y-137687798D01*
X180273598Y-137737002D01*
X180329531Y-137778873D01*
X180353949Y-137844337D01*
X180339098Y-137912610D01*
X180317947Y-137940865D01*
X180204271Y-138054541D01*
X180079379Y-138226442D01*
X179982904Y-138415782D01*
X179917242Y-138617870D01*
X179917242Y-138617873D01*
X179906769Y-138684000D01*
X180800988Y-138684000D01*
X180768075Y-138741007D01*
X180734000Y-138868174D01*
X180734000Y-138999826D01*
X180768075Y-139126993D01*
X180800988Y-139184000D01*
X179906769Y-139184000D01*
X179917242Y-139250126D01*
X179917242Y-139250129D01*
X179982904Y-139452217D01*
X180079379Y-139641557D01*
X180204272Y-139813459D01*
X180204276Y-139813464D01*
X180354535Y-139963723D01*
X180354540Y-139963727D01*
X180526442Y-140088620D01*
X180715782Y-140185095D01*
X180917871Y-140250757D01*
X180984000Y-140261231D01*
X180984000Y-139367012D01*
X181041007Y-139399925D01*
X181168174Y-139434000D01*
X181299826Y-139434000D01*
X181426993Y-139399925D01*
X181484000Y-139367012D01*
X181484000Y-140261230D01*
X181550126Y-140250757D01*
X181550129Y-140250757D01*
X181752217Y-140185095D01*
X181941557Y-140088620D01*
X182113459Y-139963727D01*
X182113464Y-139963723D01*
X182263723Y-139813464D01*
X182263727Y-139813459D01*
X182388620Y-139641557D01*
X182485095Y-139452217D01*
X182550757Y-139250129D01*
X182550757Y-139250126D01*
X182561231Y-139184000D01*
X181667012Y-139184000D01*
X181699925Y-139126993D01*
X181734000Y-138999826D01*
X181734000Y-138868174D01*
X181699925Y-138741007D01*
X181667012Y-138684000D01*
X182561231Y-138684000D01*
X182550757Y-138617873D01*
X182550757Y-138617870D01*
X182485095Y-138415782D01*
X182388620Y-138226442D01*
X182263727Y-138054540D01*
X182263723Y-138054535D01*
X182150053Y-137940865D01*
X182116568Y-137879542D01*
X182121552Y-137809850D01*
X182163424Y-137753917D01*
X182194400Y-137737002D01*
X182326331Y-137687796D01*
X182441546Y-137601546D01*
X182527796Y-137486331D01*
X182578091Y-137351483D01*
X182584500Y-137291873D01*
X182584499Y-135496128D01*
X182578091Y-135436517D01*
X182527796Y-135301669D01*
X182527795Y-135301668D01*
X182527793Y-135301664D01*
X182441547Y-135186455D01*
X182441544Y-135186452D01*
X182326335Y-135100206D01*
X182326328Y-135100202D01*
X182191482Y-135049908D01*
X182191483Y-135049908D01*
X182131883Y-135043501D01*
X182131881Y-135043500D01*
X182131873Y-135043500D01*
X182131865Y-135043500D01*
X181812043Y-135043500D01*
X181745004Y-135023815D01*
X181704656Y-134981500D01*
X181698600Y-134971011D01*
X181694515Y-134963935D01*
X181587365Y-134856785D01*
X178491920Y-131761340D01*
X178485017Y-131750121D01*
X178477489Y-131744009D01*
X178469224Y-131724450D01*
X178461805Y-131712391D01*
X178459455Y-131705246D01*
X178450337Y-131659403D01*
X178421455Y-131589675D01*
X178420004Y-131585262D01*
X178419715Y-131576268D01*
X178413800Y-131546530D01*
X178413800Y-103886840D01*
X178433485Y-103819801D01*
X178450122Y-103799156D01*
X178460087Y-103789191D01*
X178460089Y-103789189D01*
X178547694Y-103658079D01*
X178608037Y-103512397D01*
X178638800Y-103357742D01*
X178638800Y-103254653D01*
X181900700Y-103254653D01*
X181900700Y-103412346D01*
X181931461Y-103566989D01*
X181931464Y-103567001D01*
X181991802Y-103712672D01*
X181991806Y-103712679D01*
X182030302Y-103770293D01*
X182051180Y-103836968D01*
X182051200Y-103839183D01*
X182051200Y-130634234D01*
X182051200Y-130785766D01*
X182061579Y-130824500D01*
X182090419Y-130932136D01*
X182128302Y-130997750D01*
X182166185Y-131063365D01*
X182166187Y-131063367D01*
X186075568Y-134972748D01*
X186109053Y-135034071D01*
X186104069Y-135103763D01*
X186062199Y-135159695D01*
X186026452Y-135186455D01*
X185940206Y-135301664D01*
X185940202Y-135301671D01*
X185889908Y-135436517D01*
X185883501Y-135496116D01*
X185883501Y-135496123D01*
X185883500Y-135496135D01*
X185883500Y-137291870D01*
X185883501Y-137291876D01*
X185889908Y-137351483D01*
X185940202Y-137486328D01*
X185940206Y-137486335D01*
X186026452Y-137601544D01*
X186026455Y-137601547D01*
X186141664Y-137687793D01*
X186141671Y-137687797D01*
X186141674Y-137687798D01*
X186273598Y-137737002D01*
X186329531Y-137778873D01*
X186353949Y-137844337D01*
X186339098Y-137912610D01*
X186317947Y-137940865D01*
X186204271Y-138054541D01*
X186079379Y-138226442D01*
X185982904Y-138415782D01*
X185917242Y-138617870D01*
X185917242Y-138617873D01*
X185906769Y-138684000D01*
X186800988Y-138684000D01*
X186768075Y-138741007D01*
X186734000Y-138868174D01*
X186734000Y-138999826D01*
X186768075Y-139126993D01*
X186800988Y-139184000D01*
X185906769Y-139184000D01*
X185917242Y-139250126D01*
X185917242Y-139250129D01*
X185982904Y-139452217D01*
X186079379Y-139641557D01*
X186204272Y-139813459D01*
X186204276Y-139813464D01*
X186354535Y-139963723D01*
X186354540Y-139963727D01*
X186526442Y-140088620D01*
X186715782Y-140185095D01*
X186917871Y-140250757D01*
X186984000Y-140261231D01*
X186984000Y-139367012D01*
X187041007Y-139399925D01*
X187168174Y-139434000D01*
X187299826Y-139434000D01*
X187426993Y-139399925D01*
X187484000Y-139367012D01*
X187484000Y-140261230D01*
X187550126Y-140250757D01*
X187550129Y-140250757D01*
X187752217Y-140185095D01*
X187941557Y-140088620D01*
X188113459Y-139963727D01*
X188113464Y-139963723D01*
X188263723Y-139813464D01*
X188263727Y-139813459D01*
X188388620Y-139641557D01*
X188485095Y-139452217D01*
X188517991Y-139350975D01*
X188550757Y-139250129D01*
X188550757Y-139250126D01*
X188561231Y-139184000D01*
X187667012Y-139184000D01*
X187699925Y-139126993D01*
X187734000Y-138999826D01*
X187734000Y-138868174D01*
X187699925Y-138741007D01*
X187667012Y-138684000D01*
X188561231Y-138684000D01*
X188550757Y-138617873D01*
X188550757Y-138617870D01*
X188485095Y-138415782D01*
X188388620Y-138226442D01*
X188263727Y-138054540D01*
X188263723Y-138054535D01*
X188150053Y-137940865D01*
X188116568Y-137879542D01*
X188121552Y-137809850D01*
X188163424Y-137753917D01*
X188194400Y-137737002D01*
X188326331Y-137687796D01*
X188441546Y-137601546D01*
X188527796Y-137486331D01*
X188578091Y-137351483D01*
X188584500Y-137291873D01*
X188584499Y-136771884D01*
X192934000Y-136771884D01*
X192934000Y-137096115D01*
X192965779Y-137418784D01*
X192965782Y-137418801D01*
X193029030Y-137736781D01*
X193029033Y-137736792D01*
X193123157Y-138047078D01*
X193247238Y-138346635D01*
X193247240Y-138346640D01*
X193400079Y-138632580D01*
X193400090Y-138632598D01*
X193580212Y-138902170D01*
X193580222Y-138902184D01*
X193729890Y-139084554D01*
X193729891Y-139084555D01*
X194939748Y-137874698D01*
X195013588Y-137976330D01*
X195191670Y-138154412D01*
X195293300Y-138228251D01*
X194083443Y-139438107D01*
X194083444Y-139438108D01*
X194265815Y-139587777D01*
X194265829Y-139587787D01*
X194535401Y-139767909D01*
X194535419Y-139767920D01*
X194821359Y-139920759D01*
X194821364Y-139920761D01*
X195120921Y-140044842D01*
X195431207Y-140138966D01*
X195431218Y-140138969D01*
X195749198Y-140202217D01*
X195749215Y-140202220D01*
X196071884Y-140234000D01*
X196396116Y-140234000D01*
X196718784Y-140202220D01*
X196718801Y-140202217D01*
X197036781Y-140138969D01*
X197036792Y-140138966D01*
X197347078Y-140044842D01*
X197646635Y-139920761D01*
X197646640Y-139920759D01*
X197932580Y-139767920D01*
X197932598Y-139767909D01*
X198202170Y-139587787D01*
X198202183Y-139587777D01*
X198384554Y-139438108D01*
X198384554Y-139438107D01*
X197174698Y-138228251D01*
X197276330Y-138154412D01*
X197454412Y-137976330D01*
X197528251Y-137874698D01*
X198738107Y-139084554D01*
X198738108Y-139084554D01*
X198887777Y-138902183D01*
X198887787Y-138902170D01*
X199067909Y-138632598D01*
X199067920Y-138632580D01*
X199220759Y-138346640D01*
X199220761Y-138346635D01*
X199344842Y-138047078D01*
X199438966Y-137736792D01*
X199438969Y-137736781D01*
X199502217Y-137418801D01*
X199502220Y-137418784D01*
X199534000Y-137096115D01*
X199534000Y-136771884D01*
X199502220Y-136449215D01*
X199502217Y-136449198D01*
X199438969Y-136131218D01*
X199438966Y-136131207D01*
X199344842Y-135820921D01*
X199220761Y-135521364D01*
X199220759Y-135521359D01*
X199067920Y-135235419D01*
X199067909Y-135235401D01*
X198887787Y-134965829D01*
X198887777Y-134965815D01*
X198738108Y-134783444D01*
X198738107Y-134783443D01*
X197528250Y-135993300D01*
X197454412Y-135891670D01*
X197276330Y-135713588D01*
X197174697Y-135639747D01*
X198384555Y-134429891D01*
X198384554Y-134429890D01*
X198202184Y-134280222D01*
X198202170Y-134280212D01*
X197932598Y-134100090D01*
X197932580Y-134100079D01*
X197646640Y-133947240D01*
X197646635Y-133947238D01*
X197347078Y-133823157D01*
X197036792Y-133729033D01*
X197036781Y-133729030D01*
X196718801Y-133665782D01*
X196718784Y-133665779D01*
X196396116Y-133634000D01*
X196071884Y-133634000D01*
X195749215Y-133665779D01*
X195749198Y-133665782D01*
X195431218Y-133729030D01*
X195431207Y-133729033D01*
X195120921Y-133823157D01*
X194821364Y-133947238D01*
X194821359Y-133947240D01*
X194535419Y-134100079D01*
X194535401Y-134100090D01*
X194265829Y-134280212D01*
X194265815Y-134280222D01*
X194083444Y-134429890D01*
X194083443Y-134429891D01*
X195293301Y-135639748D01*
X195191670Y-135713588D01*
X195013588Y-135891670D01*
X194939748Y-135993301D01*
X193729891Y-134783443D01*
X193729890Y-134783444D01*
X193580222Y-134965815D01*
X193580212Y-134965829D01*
X193400090Y-135235401D01*
X193400079Y-135235419D01*
X193247240Y-135521359D01*
X193247238Y-135521364D01*
X193123157Y-135820921D01*
X193029033Y-136131207D01*
X193029030Y-136131218D01*
X192965782Y-136449198D01*
X192965779Y-136449215D01*
X192934000Y-136771884D01*
X188584499Y-136771884D01*
X188584499Y-136319813D01*
X188584499Y-135496129D01*
X188584498Y-135496123D01*
X188584497Y-135496116D01*
X188578091Y-135436517D01*
X188527796Y-135301669D01*
X188527795Y-135301668D01*
X188527793Y-135301664D01*
X188441547Y-135186455D01*
X188441544Y-135186452D01*
X188326335Y-135100206D01*
X188326328Y-135100202D01*
X188191482Y-135049908D01*
X188191483Y-135049908D01*
X188131883Y-135043501D01*
X188131881Y-135043500D01*
X188131873Y-135043500D01*
X188131865Y-135043500D01*
X187812043Y-135043500D01*
X187745004Y-135023815D01*
X187704656Y-134981500D01*
X187698600Y-134971011D01*
X187694515Y-134963935D01*
X187587365Y-134856785D01*
X183238519Y-130507939D01*
X183205034Y-130446616D01*
X183202200Y-130420258D01*
X183202200Y-126543389D01*
X185439500Y-126543389D01*
X185439500Y-126716610D01*
X185453089Y-126802412D01*
X185466598Y-126887701D01*
X185520127Y-127052445D01*
X185598768Y-127206788D01*
X185700586Y-127346928D01*
X185823072Y-127469414D01*
X185963212Y-127571232D01*
X186117555Y-127649873D01*
X186282299Y-127703402D01*
X186453389Y-127730500D01*
X186453390Y-127730500D01*
X186626610Y-127730500D01*
X186626611Y-127730500D01*
X186797701Y-127703402D01*
X186962445Y-127649873D01*
X187116788Y-127571232D01*
X187256928Y-127469414D01*
X187379414Y-127346928D01*
X187481232Y-127206788D01*
X187559873Y-127052445D01*
X187613402Y-126887701D01*
X187640500Y-126716611D01*
X187640500Y-126543389D01*
X187623036Y-126433127D01*
X187631990Y-126363836D01*
X187657825Y-126326053D01*
X188250515Y-125733365D01*
X188326281Y-125602135D01*
X188365500Y-125455766D01*
X188365500Y-125304233D01*
X188365500Y-125009742D01*
X188385185Y-124942703D01*
X188401819Y-124922061D01*
X188513880Y-124810000D01*
X188770515Y-124553365D01*
X188790515Y-124533365D01*
X188866281Y-124402135D01*
X188871562Y-124382422D01*
X188878778Y-124355499D01*
X188896940Y-124287713D01*
X188905500Y-124255767D01*
X188905500Y-124245817D01*
X188925185Y-124178778D01*
X188956616Y-124145498D01*
X189026924Y-124094417D01*
X189026924Y-124094416D01*
X189026928Y-124094414D01*
X189149414Y-123971928D01*
X189251232Y-123831788D01*
X189329873Y-123677445D01*
X189383402Y-123512701D01*
X189410500Y-123341611D01*
X189410500Y-123168389D01*
X189383402Y-122997299D01*
X189329873Y-122832555D01*
X189251232Y-122678212D01*
X189149414Y-122538072D01*
X189026928Y-122415586D01*
X188886788Y-122313768D01*
X188732445Y-122235127D01*
X188567701Y-122181598D01*
X188567699Y-122181597D01*
X188567698Y-122181597D01*
X188436271Y-122160781D01*
X188396611Y-122154500D01*
X188223389Y-122154500D01*
X188183728Y-122160781D01*
X188052302Y-122181597D01*
X187887552Y-122235128D01*
X187733211Y-122313768D01*
X187692412Y-122343411D01*
X187593072Y-122415586D01*
X187593070Y-122415588D01*
X187593069Y-122415588D01*
X187470588Y-122538069D01*
X187470588Y-122538070D01*
X187470586Y-122538072D01*
X187462656Y-122548987D01*
X187368768Y-122678211D01*
X187290128Y-122832552D01*
X187236597Y-122997302D01*
X187209500Y-123168389D01*
X187209500Y-123341611D01*
X187236598Y-123512701D01*
X187290127Y-123677445D01*
X187368768Y-123831788D01*
X187470586Y-123971928D01*
X187470588Y-123971930D01*
X187509707Y-124011049D01*
X187514044Y-124018993D01*
X187521293Y-124024419D01*
X187530529Y-124049181D01*
X187543192Y-124072372D01*
X187542546Y-124081400D01*
X187545710Y-124089883D01*
X187540093Y-124115705D01*
X187538208Y-124142064D01*
X187532390Y-124151116D01*
X187530859Y-124158156D01*
X187509708Y-124186411D01*
X187436635Y-124259485D01*
X187329485Y-124366635D01*
X187253719Y-124497863D01*
X187214500Y-124644234D01*
X187214500Y-125090257D01*
X187194815Y-125157296D01*
X187178181Y-125177938D01*
X186843948Y-125512170D01*
X186782625Y-125545655D01*
X186736870Y-125546963D01*
X186709488Y-125542626D01*
X186626611Y-125529500D01*
X186453389Y-125529500D01*
X186413728Y-125535781D01*
X186282302Y-125556597D01*
X186117552Y-125610128D01*
X185963211Y-125688768D01*
X185901827Y-125733367D01*
X185823072Y-125790586D01*
X185823070Y-125790588D01*
X185823069Y-125790588D01*
X185700588Y-125913069D01*
X185700588Y-125913070D01*
X185700586Y-125913072D01*
X185660855Y-125967757D01*
X185598768Y-126053211D01*
X185520128Y-126207552D01*
X185466597Y-126372302D01*
X185439500Y-126543389D01*
X183202200Y-126543389D01*
X183202200Y-114652439D01*
X183221885Y-114585400D01*
X183274689Y-114539645D01*
X183302000Y-114530824D01*
X183386897Y-114513937D01*
X183532579Y-114453594D01*
X183663689Y-114365989D01*
X183775189Y-114254489D01*
X183862794Y-114123379D01*
X183923137Y-113977697D01*
X183953900Y-113823042D01*
X183953900Y-113665358D01*
X183953900Y-113665355D01*
X183953899Y-113665353D01*
X183946340Y-113627350D01*
X183923137Y-113510703D01*
X183914168Y-113489050D01*
X183862797Y-113365027D01*
X183862790Y-113365014D01*
X183775189Y-113233911D01*
X183775186Y-113233907D01*
X183765219Y-113223940D01*
X183731734Y-113162617D01*
X183728900Y-113136259D01*
X183728900Y-104956342D01*
X183748585Y-104889303D01*
X183765219Y-104868661D01*
X190592319Y-98041561D01*
X190653642Y-98008076D01*
X190723334Y-98013060D01*
X190779267Y-98054932D01*
X190803684Y-98120396D01*
X190804000Y-98129242D01*
X190804000Y-98134000D01*
X191720988Y-98134000D01*
X191688075Y-98191007D01*
X191654000Y-98318174D01*
X191654000Y-98449826D01*
X191688075Y-98576993D01*
X191720988Y-98634000D01*
X190804000Y-98634000D01*
X190804000Y-99281844D01*
X190810401Y-99341372D01*
X190810403Y-99341379D01*
X190860645Y-99476086D01*
X190860649Y-99476093D01*
X190946809Y-99591187D01*
X190946812Y-99591190D01*
X191061906Y-99677350D01*
X191061913Y-99677354D01*
X191196620Y-99727596D01*
X191196627Y-99727598D01*
X191256155Y-99733999D01*
X191256172Y-99734000D01*
X191904000Y-99734000D01*
X191904000Y-98817012D01*
X191961007Y-98849925D01*
X192088174Y-98884000D01*
X192219826Y-98884000D01*
X192346993Y-98849925D01*
X192404000Y-98817012D01*
X192404000Y-99734000D01*
X193051828Y-99734000D01*
X193051844Y-99733999D01*
X193111372Y-99727598D01*
X193111379Y-99727596D01*
X193246086Y-99677354D01*
X193246093Y-99677350D01*
X193361187Y-99591190D01*
X193361190Y-99591187D01*
X193447350Y-99476093D01*
X193447354Y-99476086D01*
X193496422Y-99344529D01*
X193538293Y-99288595D01*
X193603757Y-99264178D01*
X193672030Y-99279030D01*
X193700285Y-99300181D01*
X193814213Y-99414109D01*
X193986179Y-99539048D01*
X193986181Y-99539049D01*
X193986184Y-99539051D01*
X194175588Y-99635557D01*
X194377757Y-99701246D01*
X194587713Y-99734500D01*
X194587714Y-99734500D01*
X194800286Y-99734500D01*
X194800287Y-99734500D01*
X195010243Y-99701246D01*
X195212412Y-99635557D01*
X195401816Y-99539051D01*
X195488471Y-99476093D01*
X195573786Y-99414109D01*
X195573788Y-99414106D01*
X195573792Y-99414104D01*
X195724104Y-99263792D01*
X195724106Y-99263788D01*
X195724109Y-99263786D01*
X195849048Y-99091820D01*
X195849047Y-99091820D01*
X195849051Y-99091816D01*
X195853514Y-99083054D01*
X195901488Y-99032259D01*
X195969308Y-99015463D01*
X196035444Y-99037999D01*
X196074486Y-99083056D01*
X196078951Y-99091820D01*
X196203890Y-99263786D01*
X196354213Y-99414109D01*
X196526182Y-99539050D01*
X196526184Y-99539051D01*
X196590794Y-99571971D01*
X196641590Y-99619945D01*
X196658500Y-99682456D01*
X196658500Y-101735542D01*
X196638815Y-101802581D01*
X196590796Y-101846026D01*
X196526182Y-101878949D01*
X196354213Y-102003890D01*
X196203890Y-102154213D01*
X196078949Y-102326182D01*
X196074484Y-102334946D01*
X196026509Y-102385742D01*
X195958688Y-102402536D01*
X195892553Y-102379998D01*
X195853516Y-102334946D01*
X195849050Y-102326182D01*
X195724109Y-102154213D01*
X195573786Y-102003890D01*
X195401820Y-101878951D01*
X195212414Y-101782444D01*
X195212413Y-101782443D01*
X195212412Y-101782443D01*
X195010243Y-101716754D01*
X195010241Y-101716753D01*
X195010240Y-101716753D01*
X194848957Y-101691208D01*
X194800287Y-101683500D01*
X194587713Y-101683500D01*
X194539042Y-101691208D01*
X194377760Y-101716753D01*
X194175585Y-101782444D01*
X193986179Y-101878951D01*
X193814215Y-102003889D01*
X193700285Y-102117819D01*
X193638962Y-102151303D01*
X193569270Y-102146319D01*
X193513337Y-102104447D01*
X193496422Y-102073470D01*
X193447354Y-101941913D01*
X193447350Y-101941906D01*
X193361190Y-101826812D01*
X193361187Y-101826809D01*
X193246093Y-101740649D01*
X193246086Y-101740645D01*
X193111379Y-101690403D01*
X193111372Y-101690401D01*
X193051844Y-101684000D01*
X192404000Y-101684000D01*
X192404000Y-102600988D01*
X192346993Y-102568075D01*
X192219826Y-102534000D01*
X192088174Y-102534000D01*
X191961007Y-102568075D01*
X191904000Y-102600988D01*
X191904000Y-101684000D01*
X191256155Y-101684000D01*
X191196627Y-101690401D01*
X191196620Y-101690403D01*
X191061913Y-101740645D01*
X191061906Y-101740649D01*
X190946812Y-101826809D01*
X190946809Y-101826812D01*
X190860649Y-101941906D01*
X190860645Y-101941913D01*
X190810403Y-102076620D01*
X190810401Y-102076627D01*
X190804000Y-102136155D01*
X190804000Y-102784000D01*
X191720988Y-102784000D01*
X191688075Y-102841007D01*
X191654000Y-102968174D01*
X191654000Y-103099826D01*
X191688075Y-103226993D01*
X191720988Y-103284000D01*
X190804000Y-103284000D01*
X190804000Y-103931844D01*
X190810401Y-103991372D01*
X190810403Y-103991379D01*
X190860645Y-104126086D01*
X190860649Y-104126093D01*
X190946809Y-104241187D01*
X190946812Y-104241190D01*
X191061906Y-104327350D01*
X191061913Y-104327354D01*
X191196620Y-104377596D01*
X191196627Y-104377598D01*
X191256155Y-104383999D01*
X191256172Y-104384000D01*
X191904000Y-104384000D01*
X191904000Y-103467012D01*
X191961007Y-103499925D01*
X192088174Y-103534000D01*
X192219826Y-103534000D01*
X192346993Y-103499925D01*
X192404000Y-103467012D01*
X192404000Y-104384000D01*
X193051828Y-104384000D01*
X193051844Y-104383999D01*
X193111372Y-104377598D01*
X193111379Y-104377596D01*
X193246086Y-104327354D01*
X193246093Y-104327350D01*
X193361187Y-104241190D01*
X193361190Y-104241187D01*
X193447350Y-104126093D01*
X193447354Y-104126086D01*
X193496422Y-103994529D01*
X193538293Y-103938595D01*
X193603757Y-103914178D01*
X193672030Y-103929030D01*
X193700285Y-103950181D01*
X193814213Y-104064109D01*
X193986179Y-104189048D01*
X193986181Y-104189049D01*
X193986184Y-104189051D01*
X194175588Y-104285557D01*
X194377757Y-104351246D01*
X194587713Y-104384500D01*
X194587714Y-104384500D01*
X194800286Y-104384500D01*
X194800287Y-104384500D01*
X195010243Y-104351246D01*
X195212412Y-104285557D01*
X195401816Y-104189051D01*
X195488471Y-104126093D01*
X195573786Y-104064109D01*
X195573788Y-104064106D01*
X195573792Y-104064104D01*
X195724104Y-103913792D01*
X195724106Y-103913788D01*
X195724109Y-103913786D01*
X195849048Y-103741820D01*
X195849047Y-103741820D01*
X195849051Y-103741816D01*
X195853514Y-103733054D01*
X195901488Y-103682259D01*
X195969308Y-103665463D01*
X196035444Y-103687999D01*
X196074486Y-103733056D01*
X196078951Y-103741820D01*
X196203890Y-103913786D01*
X196354213Y-104064109D01*
X196526182Y-104189050D01*
X196526184Y-104189051D01*
X196590794Y-104221971D01*
X196641590Y-104269945D01*
X196658500Y-104332456D01*
X196658500Y-106385542D01*
X196638815Y-106452581D01*
X196590796Y-106496026D01*
X196526182Y-106528949D01*
X196354213Y-106653890D01*
X196203890Y-106804213D01*
X196078949Y-106976182D01*
X196074484Y-106984946D01*
X196026509Y-107035742D01*
X195958688Y-107052536D01*
X195892553Y-107029998D01*
X195853516Y-106984946D01*
X195849050Y-106976182D01*
X195724109Y-106804213D01*
X195573786Y-106653890D01*
X195401820Y-106528951D01*
X195212414Y-106432444D01*
X195212413Y-106432443D01*
X195212412Y-106432443D01*
X195010243Y-106366754D01*
X195010241Y-106366753D01*
X195010240Y-106366753D01*
X194848957Y-106341208D01*
X194800287Y-106333500D01*
X194587713Y-106333500D01*
X194539042Y-106341208D01*
X194377760Y-106366753D01*
X194175585Y-106432444D01*
X193986179Y-106528951D01*
X193814215Y-106653889D01*
X193700285Y-106767819D01*
X193638962Y-106801303D01*
X193569270Y-106796319D01*
X193513337Y-106754447D01*
X193496422Y-106723470D01*
X193447354Y-106591913D01*
X193447350Y-106591906D01*
X193361190Y-106476812D01*
X193361187Y-106476809D01*
X193246093Y-106390649D01*
X193246086Y-106390645D01*
X193111379Y-106340403D01*
X193111372Y-106340401D01*
X193051844Y-106334000D01*
X192404000Y-106334000D01*
X192404000Y-107250988D01*
X192346993Y-107218075D01*
X192219826Y-107184000D01*
X192088174Y-107184000D01*
X191961007Y-107218075D01*
X191904000Y-107250988D01*
X191904000Y-106334000D01*
X191256155Y-106334000D01*
X191196627Y-106340401D01*
X191196620Y-106340403D01*
X191061913Y-106390645D01*
X191061906Y-106390649D01*
X190946812Y-106476809D01*
X190946809Y-106476812D01*
X190860649Y-106591906D01*
X190860645Y-106591913D01*
X190810403Y-106726620D01*
X190810401Y-106726627D01*
X190804000Y-106786155D01*
X190804000Y-107434000D01*
X191720988Y-107434000D01*
X191688075Y-107491007D01*
X191654000Y-107618174D01*
X191654000Y-107749826D01*
X191688075Y-107876993D01*
X191720988Y-107934000D01*
X190804000Y-107934000D01*
X190804000Y-108581844D01*
X190810401Y-108641372D01*
X190810403Y-108641379D01*
X190860645Y-108776086D01*
X190860649Y-108776093D01*
X190946809Y-108891187D01*
X190946812Y-108891190D01*
X191061906Y-108977350D01*
X191061913Y-108977354D01*
X191196620Y-109027596D01*
X191196627Y-109027598D01*
X191256155Y-109033999D01*
X191256172Y-109034000D01*
X191904000Y-109034000D01*
X191904000Y-108117012D01*
X191961007Y-108149925D01*
X192088174Y-108184000D01*
X192219826Y-108184000D01*
X192346993Y-108149925D01*
X192404000Y-108117012D01*
X192404000Y-109034000D01*
X193051828Y-109034000D01*
X193051842Y-109033999D01*
X193117243Y-109026967D01*
X193132649Y-109029746D01*
X193148147Y-109027518D01*
X193166330Y-109035822D01*
X193186003Y-109039371D01*
X193197461Y-109050039D01*
X193211703Y-109056543D01*
X193222510Y-109073359D01*
X193237141Y-109086981D01*
X193241518Y-109102937D01*
X193249477Y-109115321D01*
X193254500Y-109150256D01*
X193254500Y-109280258D01*
X193234815Y-109347297D01*
X193218181Y-109367939D01*
X192772939Y-109813181D01*
X192711616Y-109846666D01*
X192685258Y-109849500D01*
X190829233Y-109849500D01*
X190682863Y-109888719D01*
X190551635Y-109964485D01*
X190551632Y-109964487D01*
X190444483Y-110071637D01*
X188063794Y-112452325D01*
X188063793Y-112452325D01*
X188063794Y-112452326D01*
X187974085Y-112542035D01*
X187898319Y-112673263D01*
X187859100Y-112819634D01*
X187859100Y-119965859D01*
X187839415Y-120032898D01*
X187822781Y-120053540D01*
X187812813Y-120063507D01*
X187812810Y-120063511D01*
X187725209Y-120194614D01*
X187725202Y-120194627D01*
X187664864Y-120340298D01*
X187664861Y-120340310D01*
X187634100Y-120494953D01*
X187634100Y-120652646D01*
X187664861Y-120807289D01*
X187664864Y-120807301D01*
X187725202Y-120952972D01*
X187725209Y-120952985D01*
X187812810Y-121084088D01*
X187812813Y-121084092D01*
X187924307Y-121195586D01*
X187924311Y-121195589D01*
X188055414Y-121283190D01*
X188055427Y-121283197D01*
X188181905Y-121335585D01*
X188201103Y-121343537D01*
X188355753Y-121374299D01*
X188355756Y-121374300D01*
X188355758Y-121374300D01*
X188513444Y-121374300D01*
X188513445Y-121374299D01*
X188668097Y-121343537D01*
X188813779Y-121283194D01*
X188944889Y-121195589D01*
X189056389Y-121084089D01*
X189143994Y-120952979D01*
X189151464Y-120934946D01*
X189179700Y-120866776D01*
X189204337Y-120807297D01*
X189217459Y-120741328D01*
X189223958Y-120708659D01*
X189223958Y-120708658D01*
X189235099Y-120652646D01*
X189235100Y-120652644D01*
X189235100Y-120494955D01*
X189235099Y-120494953D01*
X189229947Y-120469051D01*
X189204337Y-120340303D01*
X189188334Y-120301667D01*
X189143997Y-120194627D01*
X189143990Y-120194614D01*
X189056389Y-120063511D01*
X189056386Y-120063507D01*
X189046419Y-120053540D01*
X189012934Y-119992217D01*
X189010100Y-119965859D01*
X189010100Y-113185140D01*
X189029785Y-113118101D01*
X189046414Y-113097464D01*
X190592321Y-111551557D01*
X190653642Y-111518074D01*
X190723334Y-111523058D01*
X190779267Y-111564930D01*
X190803684Y-111630394D01*
X190804000Y-111639240D01*
X190804000Y-112084000D01*
X191720988Y-112084000D01*
X191688075Y-112141007D01*
X191654000Y-112268174D01*
X191654000Y-112399826D01*
X191688075Y-112526993D01*
X191720988Y-112584000D01*
X190804000Y-112584000D01*
X190804000Y-113231844D01*
X190810401Y-113291372D01*
X190810403Y-113291379D01*
X190860645Y-113426086D01*
X190860649Y-113426093D01*
X190946809Y-113541187D01*
X190946812Y-113541190D01*
X191061906Y-113627350D01*
X191061913Y-113627354D01*
X191196620Y-113677596D01*
X191196627Y-113677598D01*
X191256155Y-113683999D01*
X191256172Y-113684000D01*
X191904000Y-113684000D01*
X191904000Y-112767012D01*
X191961007Y-112799925D01*
X192088174Y-112834000D01*
X192219826Y-112834000D01*
X192346993Y-112799925D01*
X192404000Y-112767012D01*
X192404000Y-113684000D01*
X193051828Y-113684000D01*
X193051844Y-113683999D01*
X193111372Y-113677598D01*
X193111379Y-113677596D01*
X193246086Y-113627354D01*
X193246093Y-113627350D01*
X193361187Y-113541190D01*
X193361190Y-113541187D01*
X193447350Y-113426093D01*
X193447354Y-113426086D01*
X193496422Y-113294529D01*
X193538293Y-113238595D01*
X193603757Y-113214178D01*
X193672030Y-113229030D01*
X193700285Y-113250181D01*
X193782780Y-113332676D01*
X193816265Y-113393999D01*
X193811281Y-113463691D01*
X193782780Y-113508038D01*
X193216635Y-114074185D01*
X193109487Y-114181332D01*
X193109485Y-114181335D01*
X193033719Y-114312563D01*
X192994500Y-114458934D01*
X192994500Y-115510000D01*
X192974815Y-115577039D01*
X192922011Y-115622794D01*
X192870500Y-115634000D01*
X192404000Y-115634000D01*
X192404000Y-116550988D01*
X192346993Y-116518075D01*
X192219826Y-116484000D01*
X192088174Y-116484000D01*
X191961007Y-116518075D01*
X191904000Y-116550988D01*
X191904000Y-115634000D01*
X191256155Y-115634000D01*
X191196627Y-115640401D01*
X191196620Y-115640403D01*
X191061913Y-115690645D01*
X191061906Y-115690649D01*
X190946812Y-115776809D01*
X190946809Y-115776812D01*
X190860649Y-115891906D01*
X190860645Y-115891913D01*
X190810403Y-116026620D01*
X190810401Y-116026627D01*
X190804000Y-116086155D01*
X190804000Y-116734000D01*
X191720988Y-116734000D01*
X191688075Y-116791007D01*
X191654000Y-116918174D01*
X191654000Y-117049826D01*
X191688075Y-117176993D01*
X191720988Y-117234000D01*
X190804000Y-117234000D01*
X190804000Y-117881844D01*
X190810401Y-117941372D01*
X190810403Y-117941379D01*
X190860645Y-118076086D01*
X190860649Y-118076093D01*
X190946809Y-118191187D01*
X190946812Y-118191190D01*
X191061906Y-118277350D01*
X191061913Y-118277354D01*
X191196620Y-118327596D01*
X191196627Y-118327598D01*
X191256155Y-118333999D01*
X191256172Y-118334000D01*
X191904000Y-118334000D01*
X191904000Y-117417012D01*
X191961007Y-117449925D01*
X192088174Y-117484000D01*
X192219826Y-117484000D01*
X192346993Y-117449925D01*
X192404000Y-117417012D01*
X192404000Y-118334000D01*
X192870500Y-118334000D01*
X192937539Y-118353685D01*
X192983294Y-118406489D01*
X192994500Y-118458000D01*
X192994500Y-120160000D01*
X192974815Y-120227039D01*
X192922011Y-120272794D01*
X192870500Y-120284000D01*
X192404000Y-120284000D01*
X192404000Y-121200988D01*
X192346993Y-121168075D01*
X192219826Y-121134000D01*
X192088174Y-121134000D01*
X191961007Y-121168075D01*
X191904000Y-121200988D01*
X191904000Y-120284000D01*
X191256155Y-120284000D01*
X191196627Y-120290401D01*
X191196620Y-120290403D01*
X191061913Y-120340645D01*
X191061906Y-120340649D01*
X190946812Y-120426809D01*
X190946809Y-120426812D01*
X190860649Y-120541906D01*
X190860645Y-120541913D01*
X190810403Y-120676620D01*
X190810401Y-120676627D01*
X190804000Y-120736155D01*
X190804000Y-121384000D01*
X191720988Y-121384000D01*
X191688075Y-121441007D01*
X191654000Y-121568174D01*
X191654000Y-121699826D01*
X191688075Y-121826993D01*
X191720988Y-121884000D01*
X190804000Y-121884000D01*
X190804000Y-122531844D01*
X190810401Y-122591372D01*
X190810403Y-122591379D01*
X190860645Y-122726086D01*
X190860649Y-122726093D01*
X190946809Y-122841187D01*
X190946812Y-122841190D01*
X191061906Y-122927350D01*
X191061913Y-122927354D01*
X191196620Y-122977596D01*
X191196627Y-122977598D01*
X191256155Y-122983999D01*
X191256172Y-122984000D01*
X191904000Y-122984000D01*
X191904000Y-122067012D01*
X191961007Y-122099925D01*
X192088174Y-122134000D01*
X192219826Y-122134000D01*
X192346993Y-122099925D01*
X192404000Y-122067012D01*
X192404000Y-122984000D01*
X192870500Y-122984000D01*
X192937539Y-123003685D01*
X192983294Y-123056489D01*
X192994500Y-123108000D01*
X192994500Y-124810000D01*
X192974815Y-124877039D01*
X192922011Y-124922794D01*
X192870500Y-124934000D01*
X192404000Y-124934000D01*
X192404000Y-125850988D01*
X192346993Y-125818075D01*
X192219826Y-125784000D01*
X192088174Y-125784000D01*
X191961007Y-125818075D01*
X191904000Y-125850988D01*
X191904000Y-124934000D01*
X191256155Y-124934000D01*
X191196627Y-124940401D01*
X191196620Y-124940403D01*
X191061913Y-124990645D01*
X191061906Y-124990649D01*
X190946812Y-125076809D01*
X190946809Y-125076812D01*
X190860649Y-125191906D01*
X190860645Y-125191913D01*
X190810403Y-125326620D01*
X190810401Y-125326627D01*
X190804000Y-125386155D01*
X190804000Y-126034000D01*
X191720988Y-126034000D01*
X191688075Y-126091007D01*
X191654000Y-126218174D01*
X191654000Y-126349826D01*
X191688075Y-126476993D01*
X191720988Y-126534000D01*
X190804000Y-126534000D01*
X190804000Y-127181844D01*
X190810401Y-127241372D01*
X190810403Y-127241379D01*
X190860645Y-127376086D01*
X190860649Y-127376093D01*
X190946809Y-127491187D01*
X190946812Y-127491190D01*
X191061906Y-127577350D01*
X191061913Y-127577354D01*
X191103733Y-127592952D01*
X191159667Y-127634823D01*
X191184084Y-127700287D01*
X191169232Y-127768560D01*
X191119827Y-127817966D01*
X191084592Y-127830751D01*
X190986508Y-127850261D01*
X190986498Y-127850264D01*
X190840827Y-127910602D01*
X190840814Y-127910609D01*
X190709711Y-127998210D01*
X190709707Y-127998213D01*
X190598213Y-128109707D01*
X190598210Y-128109711D01*
X190510609Y-128240814D01*
X190510602Y-128240827D01*
X190450264Y-128386498D01*
X190450261Y-128386510D01*
X190419500Y-128541153D01*
X190419500Y-128555257D01*
X190399815Y-128622296D01*
X190383181Y-128642938D01*
X189649193Y-129376925D01*
X189649194Y-129376926D01*
X189559485Y-129466635D01*
X189483719Y-129597863D01*
X189444500Y-129744234D01*
X189444500Y-131945258D01*
X189424815Y-132012297D01*
X189408181Y-132032939D01*
X188752939Y-132688181D01*
X188691616Y-132721666D01*
X188665258Y-132724500D01*
X188651155Y-132724500D01*
X188496510Y-132755261D01*
X188496498Y-132755264D01*
X188350827Y-132815602D01*
X188350814Y-132815609D01*
X188219711Y-132903210D01*
X188219707Y-132903213D01*
X188108213Y-133014707D01*
X188108210Y-133014711D01*
X188020609Y-133145814D01*
X188020602Y-133145827D01*
X187960264Y-133291498D01*
X187960261Y-133291510D01*
X187929500Y-133446153D01*
X187929500Y-133603846D01*
X187960261Y-133758489D01*
X187960264Y-133758501D01*
X188020602Y-133904172D01*
X188020609Y-133904185D01*
X188108210Y-134035288D01*
X188108213Y-134035292D01*
X188219707Y-134146786D01*
X188219711Y-134146789D01*
X188350814Y-134234390D01*
X188350827Y-134234397D01*
X188461436Y-134280212D01*
X188496503Y-134294737D01*
X188651153Y-134325499D01*
X188651156Y-134325500D01*
X188651158Y-134325500D01*
X188808844Y-134325500D01*
X188808845Y-134325499D01*
X188963497Y-134294737D01*
X189109179Y-134234394D01*
X189240289Y-134146789D01*
X189351789Y-134035289D01*
X189439394Y-133904179D01*
X189499737Y-133758497D01*
X189530500Y-133603842D01*
X189530500Y-133589742D01*
X189550185Y-133522703D01*
X189566819Y-133502061D01*
X190480511Y-132588369D01*
X190480517Y-132588362D01*
X190484639Y-132581223D01*
X190548469Y-132470665D01*
X190556281Y-132457135D01*
X190579544Y-132370315D01*
X190595500Y-132310767D01*
X190595500Y-132159234D01*
X190595500Y-132002488D01*
X190615185Y-131935449D01*
X190667989Y-131889694D01*
X190737147Y-131879750D01*
X190800703Y-131908775D01*
X190835682Y-131959155D01*
X190860645Y-132026086D01*
X190860649Y-132026093D01*
X190946809Y-132141187D01*
X190946812Y-132141190D01*
X191061906Y-132227350D01*
X191061913Y-132227354D01*
X191196620Y-132277596D01*
X191196627Y-132277598D01*
X191256155Y-132283999D01*
X191256172Y-132284000D01*
X191904000Y-132284000D01*
X191904000Y-131367012D01*
X191961007Y-131399925D01*
X192088174Y-131434000D01*
X192219826Y-131434000D01*
X192346993Y-131399925D01*
X192404000Y-131367012D01*
X192404000Y-132210557D01*
X192384315Y-132277596D01*
X192367681Y-132298238D01*
X191234529Y-133431389D01*
X191173206Y-133464874D01*
X191103514Y-133459890D01*
X191099396Y-133458269D01*
X190983501Y-133410264D01*
X190983489Y-133410261D01*
X190828845Y-133379500D01*
X190828842Y-133379500D01*
X190671158Y-133379500D01*
X190671155Y-133379500D01*
X190516510Y-133410261D01*
X190516498Y-133410264D01*
X190370827Y-133470602D01*
X190370814Y-133470609D01*
X190239711Y-133558210D01*
X190239707Y-133558213D01*
X190128213Y-133669707D01*
X190128210Y-133669711D01*
X190040609Y-133800814D01*
X190040602Y-133800827D01*
X189980264Y-133946498D01*
X189980261Y-133946510D01*
X189949500Y-134101153D01*
X189949500Y-134258846D01*
X189980261Y-134413489D01*
X189980264Y-134413501D01*
X190040602Y-134559172D01*
X190040609Y-134559185D01*
X190128210Y-134690288D01*
X190128213Y-134690292D01*
X190239707Y-134801786D01*
X190239711Y-134801789D01*
X190370814Y-134889390D01*
X190370827Y-134889397D01*
X190512954Y-134948267D01*
X190516503Y-134949737D01*
X190671153Y-134980499D01*
X190671156Y-134980500D01*
X190671158Y-134980500D01*
X190828844Y-134980500D01*
X190828845Y-134980499D01*
X190983497Y-134949737D01*
X191129179Y-134889394D01*
X191260289Y-134801789D01*
X191260292Y-134801786D01*
X191270260Y-134791819D01*
X191331583Y-134758334D01*
X191357941Y-134755500D01*
X191375564Y-134755500D01*
X191375566Y-134755500D01*
X191521935Y-134716281D01*
X191653165Y-134640515D01*
X194030515Y-132263165D01*
X194040952Y-132245086D01*
X194091515Y-132196871D01*
X194160122Y-132183645D01*
X194186648Y-132189150D01*
X194377757Y-132251246D01*
X194587713Y-132284500D01*
X194587714Y-132284500D01*
X194800286Y-132284500D01*
X194800287Y-132284500D01*
X195010243Y-132251246D01*
X195212412Y-132185557D01*
X195401816Y-132089051D01*
X195423789Y-132073086D01*
X195573786Y-131964109D01*
X195573788Y-131964106D01*
X195573792Y-131964104D01*
X195724104Y-131813792D01*
X195724106Y-131813788D01*
X195724109Y-131813786D01*
X195849048Y-131641820D01*
X195849047Y-131641820D01*
X195849051Y-131641816D01*
X195853514Y-131633054D01*
X195901488Y-131582259D01*
X195969308Y-131565463D01*
X196035444Y-131587999D01*
X196074486Y-131633056D01*
X196078951Y-131641820D01*
X196203890Y-131813786D01*
X196354213Y-131964109D01*
X196526179Y-132089048D01*
X196526181Y-132089049D01*
X196526184Y-132089051D01*
X196715588Y-132185557D01*
X196917757Y-132251246D01*
X197127713Y-132284500D01*
X197127714Y-132284500D01*
X197340286Y-132284500D01*
X197340287Y-132284500D01*
X197550243Y-132251246D01*
X197752412Y-132185557D01*
X197941816Y-132089051D01*
X197963789Y-132073086D01*
X198113786Y-131964109D01*
X198113788Y-131964106D01*
X198113792Y-131964104D01*
X198264104Y-131813792D01*
X198264106Y-131813788D01*
X198264109Y-131813786D01*
X198389048Y-131641820D01*
X198389047Y-131641820D01*
X198389051Y-131641816D01*
X198485557Y-131452412D01*
X198551246Y-131250243D01*
X198584500Y-131040287D01*
X198584500Y-130827713D01*
X198551246Y-130617757D01*
X198485557Y-130415588D01*
X198389051Y-130226184D01*
X198389049Y-130226181D01*
X198389048Y-130226179D01*
X198264109Y-130054213D01*
X198113786Y-129903890D01*
X197941817Y-129778949D01*
X197877204Y-129746026D01*
X197826408Y-129698051D01*
X197809500Y-129635542D01*
X197809500Y-127582456D01*
X197829185Y-127515417D01*
X197877205Y-127471971D01*
X197941816Y-127439051D01*
X198028471Y-127376093D01*
X198113786Y-127314109D01*
X198113788Y-127314106D01*
X198113792Y-127314104D01*
X198264104Y-127163792D01*
X198264106Y-127163788D01*
X198264109Y-127163786D01*
X198389048Y-126991820D01*
X198389047Y-126991820D01*
X198389051Y-126991816D01*
X198485557Y-126802412D01*
X198551246Y-126600243D01*
X198584500Y-126390287D01*
X198584500Y-126177713D01*
X198551246Y-125967757D01*
X198485557Y-125765588D01*
X198389051Y-125576184D01*
X198389049Y-125576181D01*
X198389048Y-125576179D01*
X198264109Y-125404213D01*
X198113786Y-125253890D01*
X197941817Y-125128949D01*
X197877204Y-125096026D01*
X197826408Y-125048051D01*
X197809500Y-124985542D01*
X197809500Y-122932456D01*
X197829185Y-122865417D01*
X197877205Y-122821971D01*
X197941816Y-122789051D01*
X198028471Y-122726093D01*
X198113786Y-122664109D01*
X198113788Y-122664106D01*
X198113792Y-122664104D01*
X198264104Y-122513792D01*
X198264106Y-122513788D01*
X198264109Y-122513786D01*
X198389048Y-122341820D01*
X198389047Y-122341820D01*
X198389051Y-122341816D01*
X198485557Y-122152412D01*
X198551246Y-121950243D01*
X198584500Y-121740287D01*
X198584500Y-121527713D01*
X198551246Y-121317757D01*
X198485557Y-121115588D01*
X198389051Y-120926184D01*
X198389049Y-120926181D01*
X198389048Y-120926179D01*
X198264109Y-120754213D01*
X198113786Y-120603890D01*
X197941817Y-120478949D01*
X197877204Y-120446026D01*
X197826408Y-120398051D01*
X197809500Y-120335542D01*
X197809500Y-118282456D01*
X197829185Y-118215417D01*
X197877205Y-118171971D01*
X197941816Y-118139051D01*
X198023454Y-118079738D01*
X198113786Y-118014109D01*
X198113788Y-118014106D01*
X198113792Y-118014104D01*
X198264104Y-117863792D01*
X198264106Y-117863788D01*
X198264109Y-117863786D01*
X198389048Y-117691820D01*
X198389047Y-117691820D01*
X198389051Y-117691816D01*
X198485557Y-117502412D01*
X198551246Y-117300243D01*
X198584500Y-117090287D01*
X198584500Y-116877713D01*
X198551246Y-116667757D01*
X198485557Y-116465588D01*
X198389051Y-116276184D01*
X198389049Y-116276181D01*
X198389048Y-116276179D01*
X198264109Y-116104213D01*
X198113786Y-115953890D01*
X197941817Y-115828949D01*
X197877204Y-115796026D01*
X197826408Y-115748051D01*
X197809500Y-115685542D01*
X197809500Y-113632456D01*
X197829185Y-113565417D01*
X197877205Y-113521971D01*
X197941816Y-113489051D01*
X198028471Y-113426093D01*
X198113786Y-113364109D01*
X198113788Y-113364106D01*
X198113792Y-113364104D01*
X198264104Y-113213792D01*
X198264106Y-113213788D01*
X198264109Y-113213786D01*
X198389048Y-113041820D01*
X198389047Y-113041820D01*
X198389051Y-113041816D01*
X198485557Y-112852412D01*
X198551246Y-112650243D01*
X198584500Y-112440287D01*
X198584500Y-112227713D01*
X198551246Y-112017757D01*
X198485557Y-111815588D01*
X198389051Y-111626184D01*
X198389049Y-111626181D01*
X198389048Y-111626179D01*
X198264109Y-111454213D01*
X198113786Y-111303890D01*
X197941817Y-111178949D01*
X197877204Y-111146026D01*
X197826408Y-111098051D01*
X197809500Y-111035542D01*
X197809500Y-108982456D01*
X197829185Y-108915417D01*
X197877205Y-108871971D01*
X197941816Y-108839051D01*
X198028471Y-108776093D01*
X198113786Y-108714109D01*
X198113788Y-108714106D01*
X198113792Y-108714104D01*
X198264104Y-108563792D01*
X198264106Y-108563788D01*
X198264109Y-108563786D01*
X198389048Y-108391820D01*
X198389047Y-108391820D01*
X198389051Y-108391816D01*
X198485557Y-108202412D01*
X198551246Y-108000243D01*
X198584500Y-107790287D01*
X198584500Y-107577713D01*
X198551246Y-107367757D01*
X198485557Y-107165588D01*
X198389051Y-106976184D01*
X198389049Y-106976181D01*
X198389048Y-106976179D01*
X198264109Y-106804213D01*
X198113786Y-106653890D01*
X197941817Y-106528949D01*
X197877204Y-106496026D01*
X197826408Y-106448051D01*
X197809500Y-106385542D01*
X197809500Y-104332456D01*
X197829185Y-104265417D01*
X197877205Y-104221971D01*
X197941816Y-104189051D01*
X198028471Y-104126093D01*
X198113786Y-104064109D01*
X198113788Y-104064106D01*
X198113792Y-104064104D01*
X198264104Y-103913792D01*
X198264106Y-103913788D01*
X198264109Y-103913786D01*
X198389048Y-103741820D01*
X198389047Y-103741820D01*
X198389051Y-103741816D01*
X198485557Y-103552412D01*
X198551246Y-103350243D01*
X198584500Y-103140287D01*
X198584500Y-102927713D01*
X198551246Y-102717757D01*
X198485557Y-102515588D01*
X198389051Y-102326184D01*
X198389049Y-102326181D01*
X198389048Y-102326179D01*
X198264109Y-102154213D01*
X198113786Y-102003890D01*
X197941817Y-101878949D01*
X197877204Y-101846026D01*
X197826408Y-101798051D01*
X197809500Y-101735542D01*
X197809500Y-99682456D01*
X197829185Y-99615417D01*
X197877205Y-99571971D01*
X197941816Y-99539051D01*
X198028471Y-99476093D01*
X198113786Y-99414109D01*
X198113788Y-99414106D01*
X198113792Y-99414104D01*
X198264104Y-99263792D01*
X198264106Y-99263788D01*
X198264109Y-99263786D01*
X198389048Y-99091820D01*
X198389047Y-99091820D01*
X198389051Y-99091816D01*
X198485557Y-98902412D01*
X198551246Y-98700243D01*
X198584500Y-98490287D01*
X198584500Y-98277713D01*
X198551246Y-98067757D01*
X198485557Y-97865588D01*
X198389051Y-97676184D01*
X198389049Y-97676181D01*
X198389048Y-97676179D01*
X198264109Y-97504213D01*
X198113786Y-97353890D01*
X197941817Y-97228949D01*
X197877204Y-97196026D01*
X197826408Y-97148051D01*
X197809500Y-97085542D01*
X197809500Y-95032456D01*
X197829185Y-94965417D01*
X197877205Y-94921971D01*
X197941816Y-94889051D01*
X198028478Y-94826088D01*
X198113786Y-94764109D01*
X198113788Y-94764106D01*
X198113792Y-94764104D01*
X198264104Y-94613792D01*
X198264106Y-94613788D01*
X198264109Y-94613786D01*
X198389048Y-94441820D01*
X198389047Y-94441820D01*
X198389051Y-94441816D01*
X198485557Y-94252412D01*
X198551246Y-94050243D01*
X198584500Y-93840287D01*
X198584500Y-93627713D01*
X198551246Y-93417757D01*
X198485557Y-93215588D01*
X198389051Y-93026184D01*
X198389049Y-93026181D01*
X198389048Y-93026179D01*
X198264109Y-92854213D01*
X198113786Y-92703890D01*
X197941820Y-92578951D01*
X197752414Y-92482444D01*
X197752413Y-92482443D01*
X197752412Y-92482443D01*
X197550243Y-92416754D01*
X197550241Y-92416753D01*
X197550240Y-92416753D01*
X197388957Y-92391208D01*
X197340287Y-92383500D01*
X197127713Y-92383500D01*
X197079042Y-92391208D01*
X196917760Y-92416753D01*
X196715585Y-92482444D01*
X196526179Y-92578951D01*
X196354213Y-92703890D01*
X196203890Y-92854213D01*
X196078949Y-93026182D01*
X196074484Y-93034946D01*
X196026509Y-93085742D01*
X195958688Y-93102536D01*
X195892553Y-93079998D01*
X195853516Y-93034946D01*
X195849050Y-93026182D01*
X195724109Y-92854213D01*
X195573786Y-92703890D01*
X195401820Y-92578951D01*
X195212414Y-92482444D01*
X195212413Y-92482443D01*
X195212412Y-92482443D01*
X195010243Y-92416754D01*
X195010241Y-92416753D01*
X195010240Y-92416753D01*
X194848957Y-92391208D01*
X194800287Y-92383500D01*
X194587713Y-92383500D01*
X194539042Y-92391208D01*
X194377760Y-92416753D01*
X194175585Y-92482444D01*
X193986179Y-92578951D01*
X193814215Y-92703889D01*
X193700285Y-92817819D01*
X193638962Y-92851303D01*
X193569270Y-92846319D01*
X193513337Y-92804447D01*
X193496422Y-92773470D01*
X193447354Y-92641913D01*
X193447350Y-92641906D01*
X193361190Y-92526812D01*
X193361187Y-92526809D01*
X193246093Y-92440649D01*
X193246086Y-92440645D01*
X193111379Y-92390403D01*
X193111372Y-92390401D01*
X193051844Y-92384000D01*
X192404000Y-92384000D01*
X192404000Y-93300988D01*
X192346993Y-93268075D01*
X192219826Y-93234000D01*
X192088174Y-93234000D01*
X191961007Y-93268075D01*
X191904000Y-93300988D01*
X191904000Y-92384000D01*
X191256155Y-92384000D01*
X191196627Y-92390401D01*
X191196620Y-92390403D01*
X191061913Y-92440645D01*
X191061906Y-92440649D01*
X190946812Y-92526809D01*
X190946809Y-92526812D01*
X190860649Y-92641906D01*
X190860645Y-92641913D01*
X190810403Y-92776620D01*
X190810401Y-92776627D01*
X190804000Y-92836155D01*
X190804000Y-93484000D01*
X191720988Y-93484000D01*
X191688075Y-93541007D01*
X191654000Y-93668174D01*
X191654000Y-93799826D01*
X191688075Y-93926993D01*
X191720988Y-93984000D01*
X190804000Y-93984000D01*
X190804000Y-94631844D01*
X190810401Y-94691372D01*
X190810403Y-94691379D01*
X190860645Y-94826086D01*
X190860649Y-94826093D01*
X190946809Y-94941187D01*
X190946812Y-94941190D01*
X191061906Y-95027350D01*
X191061913Y-95027354D01*
X191196620Y-95077596D01*
X191196627Y-95077598D01*
X191256155Y-95083999D01*
X191256172Y-95084000D01*
X191622758Y-95084000D01*
X191689797Y-95103685D01*
X191735552Y-95156489D01*
X191745496Y-95225647D01*
X191716471Y-95289203D01*
X191710439Y-95295681D01*
X183707178Y-103298940D01*
X183645855Y-103332425D01*
X183576163Y-103327441D01*
X183520230Y-103285569D01*
X183497880Y-103235451D01*
X183470938Y-103100008D01*
X183470937Y-103100007D01*
X183470937Y-103100003D01*
X183448319Y-103045398D01*
X183410597Y-102954327D01*
X183410590Y-102954314D01*
X183322989Y-102823211D01*
X183322986Y-102823207D01*
X183211492Y-102711713D01*
X183211488Y-102711710D01*
X183080385Y-102624109D01*
X183080372Y-102624102D01*
X182934701Y-102563764D01*
X182934689Y-102563761D01*
X182780045Y-102533000D01*
X182780042Y-102533000D01*
X182622358Y-102533000D01*
X182622355Y-102533000D01*
X182467710Y-102563761D01*
X182467698Y-102563764D01*
X182322027Y-102624102D01*
X182322014Y-102624109D01*
X182190911Y-102711710D01*
X182190907Y-102711713D01*
X182079413Y-102823207D01*
X182079410Y-102823211D01*
X181991809Y-102954314D01*
X181991802Y-102954327D01*
X181931464Y-103099998D01*
X181931461Y-103100010D01*
X181900700Y-103254653D01*
X178638800Y-103254653D01*
X178638800Y-103200058D01*
X178638800Y-103200055D01*
X178638799Y-103200053D01*
X178626911Y-103140287D01*
X178608037Y-103045403D01*
X178570931Y-102955820D01*
X178547697Y-102899727D01*
X178547690Y-102899714D01*
X178460089Y-102768611D01*
X178460086Y-102768607D01*
X178348592Y-102657113D01*
X178348588Y-102657110D01*
X178217485Y-102569509D01*
X178217472Y-102569502D01*
X178071801Y-102509164D01*
X178071789Y-102509161D01*
X177917145Y-102478400D01*
X177917142Y-102478400D01*
X177759458Y-102478400D01*
X177759455Y-102478400D01*
X177604810Y-102509161D01*
X177604798Y-102509164D01*
X177459127Y-102569502D01*
X177459109Y-102569512D01*
X177417290Y-102597455D01*
X177350613Y-102618333D01*
X177283233Y-102599848D01*
X177236543Y-102547869D01*
X177224400Y-102494353D01*
X177224400Y-98740936D01*
X177224400Y-98740934D01*
X177185181Y-98594565D01*
X177109415Y-98463335D01*
X177002265Y-98356185D01*
X175719532Y-97073452D01*
X175686047Y-97012129D01*
X175691031Y-96942437D01*
X175704109Y-96916884D01*
X175750889Y-96846872D01*
X175769389Y-96819187D01*
X175769390Y-96819184D01*
X175769394Y-96819179D01*
X175829737Y-96673497D01*
X175860500Y-96518842D01*
X175860500Y-96361158D01*
X175860500Y-96361155D01*
X175860499Y-96361153D01*
X175857108Y-96344104D01*
X175829737Y-96206503D01*
X175824472Y-96193792D01*
X175769397Y-96060827D01*
X175769390Y-96060814D01*
X175681789Y-95929711D01*
X175681786Y-95929707D01*
X175570292Y-95818213D01*
X175570288Y-95818210D01*
X175439185Y-95730609D01*
X175439172Y-95730602D01*
X175293501Y-95670264D01*
X175293489Y-95670261D01*
X175138845Y-95639500D01*
X175138842Y-95639500D01*
X174981158Y-95639500D01*
X174981157Y-95639500D01*
X174975095Y-95640097D01*
X174974875Y-95637870D01*
X174915252Y-95632510D01*
X174860092Y-95589624D01*
X174836875Y-95523725D01*
X174836700Y-95517139D01*
X174836700Y-90016836D01*
X174836700Y-90016834D01*
X174797481Y-89870465D01*
X174721715Y-89739235D01*
X174614565Y-89632085D01*
X173024319Y-88041839D01*
X172990834Y-87980516D01*
X172988000Y-87954158D01*
X172988000Y-87940055D01*
X172987999Y-87940053D01*
X172980806Y-87903890D01*
X172957237Y-87785403D01*
X172932844Y-87726512D01*
X172896897Y-87639727D01*
X172896890Y-87639714D01*
X172809289Y-87508611D01*
X172809286Y-87508607D01*
X172697792Y-87397113D01*
X172697788Y-87397110D01*
X172566685Y-87309509D01*
X172566672Y-87309502D01*
X172456557Y-87263892D01*
X172402153Y-87220051D01*
X172380088Y-87153757D01*
X172393523Y-87093038D01*
X172485557Y-86912412D01*
X172551246Y-86710243D01*
X172584500Y-86500287D01*
X172584500Y-86287713D01*
X172551246Y-86077757D01*
X172485557Y-85875588D01*
X172389051Y-85686184D01*
X172389049Y-85686181D01*
X172389048Y-85686179D01*
X172264109Y-85514213D01*
X172113790Y-85363894D01*
X172113783Y-85363888D01*
X172103164Y-85356173D01*
X172103135Y-85356153D01*
X171969391Y-85258983D01*
X185133500Y-85258983D01*
X185133500Y-86609001D01*
X185133501Y-86609018D01*
X185144000Y-86711796D01*
X185144001Y-86711799D01*
X185199185Y-86878331D01*
X185199187Y-86878336D01*
X185222600Y-86916294D01*
X185291288Y-87027656D01*
X185415344Y-87151712D01*
X185564666Y-87243814D01*
X185731203Y-87298999D01*
X185833991Y-87309500D01*
X186634008Y-87309499D01*
X186634016Y-87309498D01*
X186634019Y-87309498D01*
X186690302Y-87303748D01*
X186736797Y-87298999D01*
X186903334Y-87243814D01*
X187052656Y-87151712D01*
X187176712Y-87027656D01*
X187216581Y-86963016D01*
X187268525Y-86916294D01*
X187337488Y-86905071D01*
X187401570Y-86932914D01*
X187409799Y-86940434D01*
X187517397Y-87048032D01*
X187657475Y-87149804D01*
X187811744Y-87228408D01*
X187976415Y-87281914D01*
X187976414Y-87281914D01*
X187983999Y-87283115D01*
X187984000Y-87283114D01*
X187984000Y-86214330D01*
X188003745Y-86234075D01*
X188089255Y-86283444D01*
X188184630Y-86309000D01*
X188283370Y-86309000D01*
X188378745Y-86283444D01*
X188464255Y-86234075D01*
X188484000Y-86214330D01*
X188484000Y-87283115D01*
X188491584Y-87281914D01*
X188656255Y-87228408D01*
X188810524Y-87149804D01*
X188950602Y-87048032D01*
X189073032Y-86925602D01*
X189174804Y-86785524D01*
X189253408Y-86631257D01*
X189306914Y-86466584D01*
X189334000Y-86295571D01*
X189334000Y-86184000D01*
X188514330Y-86184000D01*
X188534075Y-86164255D01*
X188583444Y-86078745D01*
X188609000Y-85983370D01*
X188609000Y-85884630D01*
X188606045Y-85873603D01*
X190581121Y-85873603D01*
X190581121Y-88688053D01*
X192750989Y-88688053D01*
X192750989Y-87597957D01*
X192770674Y-87530918D01*
X192823478Y-87485163D01*
X192892636Y-87475219D01*
X192956192Y-87504244D01*
X192993966Y-87563022D01*
X192996606Y-87573766D01*
X193029030Y-87736781D01*
X193029033Y-87736792D01*
X193123157Y-88047078D01*
X193247238Y-88346635D01*
X193247240Y-88346640D01*
X193400079Y-88632580D01*
X193400090Y-88632598D01*
X193580212Y-88902170D01*
X193580222Y-88902184D01*
X193729890Y-89084554D01*
X193729891Y-89084555D01*
X194939748Y-87874698D01*
X195013588Y-87976330D01*
X195191670Y-88154412D01*
X195293300Y-88228251D01*
X194083443Y-89438107D01*
X194083444Y-89438108D01*
X194265815Y-89587777D01*
X194265829Y-89587787D01*
X194535401Y-89767909D01*
X194535419Y-89767920D01*
X194821359Y-89920759D01*
X194821364Y-89920761D01*
X195120921Y-90044842D01*
X195431207Y-90138966D01*
X195431218Y-90138969D01*
X195749198Y-90202217D01*
X195749215Y-90202220D01*
X196071884Y-90234000D01*
X196396116Y-90234000D01*
X196718784Y-90202220D01*
X196718801Y-90202217D01*
X197036781Y-90138969D01*
X197036792Y-90138966D01*
X197347078Y-90044842D01*
X197646635Y-89920761D01*
X197646640Y-89920759D01*
X197932580Y-89767920D01*
X197932598Y-89767909D01*
X198202170Y-89587787D01*
X198202183Y-89587777D01*
X198384554Y-89438108D01*
X198384554Y-89438107D01*
X197174698Y-88228251D01*
X197276330Y-88154412D01*
X197454412Y-87976330D01*
X197528251Y-87874698D01*
X198738107Y-89084554D01*
X198738108Y-89084554D01*
X198887777Y-88902183D01*
X198887787Y-88902170D01*
X199067909Y-88632598D01*
X199067920Y-88632580D01*
X199220759Y-88346640D01*
X199220761Y-88346635D01*
X199344842Y-88047078D01*
X199438966Y-87736792D01*
X199438969Y-87736781D01*
X199502217Y-87418801D01*
X199502220Y-87418784D01*
X199534000Y-87096115D01*
X199534000Y-86771884D01*
X199502220Y-86449215D01*
X199502217Y-86449198D01*
X199438969Y-86131218D01*
X199438966Y-86131207D01*
X199344842Y-85820921D01*
X199220761Y-85521364D01*
X199220759Y-85521359D01*
X199067920Y-85235419D01*
X199067909Y-85235401D01*
X198887787Y-84965829D01*
X198887777Y-84965815D01*
X198738108Y-84783444D01*
X198738107Y-84783443D01*
X197528250Y-85993300D01*
X197454412Y-85891670D01*
X197276330Y-85713588D01*
X197174697Y-85639747D01*
X198384555Y-84429891D01*
X198384554Y-84429890D01*
X198202184Y-84280222D01*
X198202170Y-84280212D01*
X197932598Y-84100090D01*
X197932580Y-84100079D01*
X197646640Y-83947240D01*
X197646635Y-83947238D01*
X197347078Y-83823157D01*
X197036792Y-83729033D01*
X197036781Y-83729030D01*
X196718801Y-83665782D01*
X196718784Y-83665779D01*
X196396116Y-83634000D01*
X196071884Y-83634000D01*
X195749215Y-83665779D01*
X195749198Y-83665782D01*
X195431218Y-83729030D01*
X195431207Y-83729033D01*
X195120921Y-83823157D01*
X194821364Y-83947238D01*
X194821359Y-83947240D01*
X194535419Y-84100079D01*
X194535401Y-84100090D01*
X194265829Y-84280212D01*
X194265815Y-84280222D01*
X194083444Y-84429890D01*
X194083443Y-84429891D01*
X195293301Y-85639748D01*
X195191670Y-85713588D01*
X195013588Y-85891670D01*
X194939748Y-85993301D01*
X193729891Y-84783443D01*
X193729890Y-84783444D01*
X193580222Y-84965815D01*
X193580212Y-84965829D01*
X193400090Y-85235401D01*
X193400079Y-85235419D01*
X193247240Y-85521359D01*
X193247238Y-85521364D01*
X193123157Y-85820921D01*
X193029033Y-86131207D01*
X193029030Y-86131218D01*
X192996606Y-86294233D01*
X192964222Y-86356144D01*
X192903506Y-86390718D01*
X192833737Y-86386979D01*
X192777064Y-86346113D01*
X192751483Y-86281095D01*
X192750989Y-86270042D01*
X192750989Y-85873603D01*
X190581121Y-85873603D01*
X188606045Y-85873603D01*
X188583444Y-85789255D01*
X188534075Y-85703745D01*
X188514330Y-85684000D01*
X189334000Y-85684000D01*
X189334000Y-85572428D01*
X189306914Y-85401415D01*
X189253408Y-85236742D01*
X189174804Y-85082475D01*
X189073032Y-84942397D01*
X188950602Y-84819967D01*
X188810524Y-84718195D01*
X188656257Y-84639591D01*
X188557441Y-84607484D01*
X188484000Y-84625269D01*
X188484000Y-85653670D01*
X188464255Y-85633925D01*
X188378745Y-85584556D01*
X188283370Y-85559000D01*
X188184630Y-85559000D01*
X188089255Y-85584556D01*
X188003745Y-85633925D01*
X187984000Y-85653670D01*
X187984000Y-84584884D01*
X187983999Y-84584884D01*
X187976418Y-84586085D01*
X187976410Y-84586087D01*
X187811742Y-84639591D01*
X187657475Y-84718195D01*
X187517401Y-84819964D01*
X187409799Y-84927566D01*
X187348476Y-84961050D01*
X187278784Y-84956066D01*
X187222851Y-84914194D01*
X187216585Y-84904988D01*
X187176712Y-84840344D01*
X187052656Y-84716288D01*
X186903334Y-84624186D01*
X186736797Y-84569001D01*
X186736795Y-84569000D01*
X186634010Y-84558500D01*
X185833998Y-84558500D01*
X185833980Y-84558501D01*
X185731203Y-84569000D01*
X185731200Y-84569001D01*
X185564668Y-84624185D01*
X185564663Y-84624187D01*
X185415342Y-84716289D01*
X185291289Y-84840342D01*
X185199187Y-84989663D01*
X185199185Y-84989668D01*
X185181347Y-85043500D01*
X185144001Y-85156203D01*
X185144001Y-85156204D01*
X185144000Y-85156204D01*
X185133500Y-85258983D01*
X171969391Y-85258983D01*
X171941815Y-85238948D01*
X171752414Y-85142444D01*
X171752413Y-85142443D01*
X171752412Y-85142443D01*
X171550243Y-85076754D01*
X171550241Y-85076753D01*
X171550240Y-85076753D01*
X171388957Y-85051208D01*
X171340287Y-85043500D01*
X171127713Y-85043500D01*
X171079042Y-85051208D01*
X170917760Y-85076753D01*
X170715585Y-85142444D01*
X170526179Y-85238951D01*
X170354213Y-85363890D01*
X170203890Y-85514213D01*
X170078949Y-85686182D01*
X170074484Y-85694946D01*
X170026509Y-85745742D01*
X169958688Y-85762536D01*
X169892553Y-85739998D01*
X169853516Y-85694946D01*
X169849050Y-85686182D01*
X169724109Y-85514213D01*
X169573786Y-85363890D01*
X169401820Y-85238951D01*
X169212414Y-85142444D01*
X169212413Y-85142443D01*
X169212412Y-85142443D01*
X169010243Y-85076754D01*
X169010241Y-85076753D01*
X169010240Y-85076753D01*
X168848957Y-85051208D01*
X168800287Y-85043500D01*
X168587713Y-85043500D01*
X168539042Y-85051208D01*
X168377760Y-85076753D01*
X168175585Y-85142444D01*
X167986179Y-85238951D01*
X167814213Y-85363890D01*
X167663890Y-85514213D01*
X167538949Y-85686182D01*
X167534484Y-85694946D01*
X167486509Y-85745742D01*
X167418688Y-85762536D01*
X167352553Y-85739998D01*
X167313516Y-85694946D01*
X167309050Y-85686182D01*
X167184109Y-85514213D01*
X167033786Y-85363890D01*
X166861820Y-85238951D01*
X166672414Y-85142444D01*
X166672413Y-85142443D01*
X166672412Y-85142443D01*
X166470243Y-85076754D01*
X166470241Y-85076753D01*
X166470240Y-85076753D01*
X166308957Y-85051208D01*
X166260287Y-85043500D01*
X166047713Y-85043500D01*
X165999042Y-85051208D01*
X165837760Y-85076753D01*
X165635585Y-85142444D01*
X165446179Y-85238951D01*
X165274213Y-85363890D01*
X165123890Y-85514213D01*
X164998949Y-85686182D01*
X164994484Y-85694946D01*
X164946509Y-85745742D01*
X164878688Y-85762536D01*
X164812553Y-85739998D01*
X164773516Y-85694946D01*
X164769050Y-85686182D01*
X164644109Y-85514213D01*
X164493786Y-85363890D01*
X164321820Y-85238951D01*
X164132414Y-85142444D01*
X164132413Y-85142443D01*
X164132412Y-85142443D01*
X163930243Y-85076754D01*
X163930241Y-85076753D01*
X163930240Y-85076753D01*
X163768957Y-85051208D01*
X163720287Y-85043500D01*
X163507713Y-85043500D01*
X163459042Y-85051208D01*
X163297760Y-85076753D01*
X163095585Y-85142444D01*
X162906179Y-85238951D01*
X162734213Y-85363890D01*
X162583890Y-85514213D01*
X162458949Y-85686182D01*
X162454484Y-85694946D01*
X162406509Y-85745742D01*
X162338688Y-85762536D01*
X162272553Y-85739998D01*
X162233516Y-85694946D01*
X162229050Y-85686182D01*
X162104109Y-85514213D01*
X161953786Y-85363890D01*
X161781820Y-85238951D01*
X161592414Y-85142444D01*
X161592413Y-85142443D01*
X161592412Y-85142443D01*
X161390243Y-85076754D01*
X161390241Y-85076753D01*
X161390240Y-85076753D01*
X161228957Y-85051208D01*
X161180287Y-85043500D01*
X160967713Y-85043500D01*
X160919042Y-85051208D01*
X160757760Y-85076753D01*
X160555585Y-85142444D01*
X160366179Y-85238951D01*
X160194213Y-85363890D01*
X160043890Y-85514213D01*
X159918949Y-85686182D01*
X159914484Y-85694946D01*
X159866509Y-85745742D01*
X159798688Y-85762536D01*
X159732553Y-85739998D01*
X159693516Y-85694946D01*
X159689050Y-85686182D01*
X159564109Y-85514213D01*
X159413786Y-85363890D01*
X159241820Y-85238951D01*
X159052414Y-85142444D01*
X159052413Y-85142443D01*
X159052412Y-85142443D01*
X158850243Y-85076754D01*
X158850241Y-85076753D01*
X158850240Y-85076753D01*
X158688957Y-85051208D01*
X158640287Y-85043500D01*
X158427713Y-85043500D01*
X158379042Y-85051208D01*
X158217760Y-85076753D01*
X158015585Y-85142444D01*
X157826179Y-85238951D01*
X157654213Y-85363890D01*
X157503890Y-85514213D01*
X157378949Y-85686182D01*
X157374484Y-85694946D01*
X157326509Y-85745742D01*
X157258688Y-85762536D01*
X157192553Y-85739998D01*
X157153516Y-85694946D01*
X157149050Y-85686182D01*
X157024109Y-85514213D01*
X156873786Y-85363890D01*
X156701820Y-85238951D01*
X156512414Y-85142444D01*
X156512413Y-85142443D01*
X156512412Y-85142443D01*
X156310243Y-85076754D01*
X156310241Y-85076753D01*
X156310240Y-85076753D01*
X156148957Y-85051208D01*
X156100287Y-85043500D01*
X155887713Y-85043500D01*
X155839042Y-85051208D01*
X155677760Y-85076753D01*
X155475585Y-85142444D01*
X155286179Y-85238951D01*
X155114213Y-85363890D01*
X154963890Y-85514213D01*
X154838951Y-85686179D01*
X154742444Y-85875585D01*
X154676753Y-86077760D01*
X154643500Y-86287713D01*
X149470097Y-86287713D01*
X149438969Y-86131218D01*
X149438966Y-86131207D01*
X149344842Y-85820921D01*
X149220761Y-85521364D01*
X149220759Y-85521359D01*
X149067920Y-85235419D01*
X149067909Y-85235401D01*
X148887787Y-84965829D01*
X148887777Y-84965815D01*
X148738108Y-84783444D01*
X148738107Y-84783443D01*
X147528250Y-85993300D01*
X147454412Y-85891670D01*
X147276330Y-85713588D01*
X147174697Y-85639747D01*
X148384555Y-84429891D01*
X148384554Y-84429890D01*
X148202184Y-84280222D01*
X148202170Y-84280212D01*
X147932598Y-84100090D01*
X147932580Y-84100079D01*
X147646640Y-83947240D01*
X147646635Y-83947238D01*
X147347078Y-83823157D01*
X147036792Y-83729033D01*
X147036781Y-83729030D01*
X146718801Y-83665782D01*
X146718784Y-83665779D01*
X146396116Y-83634000D01*
X146071884Y-83634000D01*
X145749215Y-83665779D01*
X145749198Y-83665782D01*
X145431218Y-83729030D01*
X145431207Y-83729033D01*
X145120921Y-83823157D01*
X144821364Y-83947238D01*
X144821359Y-83947240D01*
X144535419Y-84100079D01*
X144535401Y-84100090D01*
X144265829Y-84280212D01*
X144265815Y-84280222D01*
X144083444Y-84429890D01*
X144083443Y-84429891D01*
X145293301Y-85639748D01*
X145191670Y-85713588D01*
X145013588Y-85891670D01*
X144939748Y-85993301D01*
X143729891Y-84783443D01*
X143729890Y-84783444D01*
X143580222Y-84965815D01*
X143580212Y-84965829D01*
X143400090Y-85235401D01*
X143400079Y-85235419D01*
X143247240Y-85521359D01*
X143247238Y-85521364D01*
X143123157Y-85820921D01*
X143029033Y-86131207D01*
X143029030Y-86131218D01*
X142965782Y-86449198D01*
X142965779Y-86449215D01*
X142934000Y-86771884D01*
X141741578Y-86771884D01*
X141751386Y-86547228D01*
X141752326Y-86536495D01*
X141802152Y-86158025D01*
X141804025Y-86147405D01*
X141886649Y-85774709D01*
X141889440Y-85764295D01*
X142004230Y-85400227D01*
X142007917Y-85390095D01*
X142154003Y-85037412D01*
X142158561Y-85027638D01*
X142334822Y-84689045D01*
X142340217Y-84679700D01*
X142545318Y-84357755D01*
X142551515Y-84348905D01*
X142783896Y-84046060D01*
X142790834Y-84037791D01*
X143048726Y-83756352D01*
X143056352Y-83748726D01*
X143337791Y-83490834D01*
X143346060Y-83483896D01*
X143648905Y-83251515D01*
X143657744Y-83245325D01*
X143979700Y-83040217D01*
X143989045Y-83034822D01*
X144327638Y-82858561D01*
X144337412Y-82854003D01*
X144690095Y-82707917D01*
X144700227Y-82704230D01*
X145064295Y-82589440D01*
X145074709Y-82586649D01*
X145447405Y-82504025D01*
X145458025Y-82502152D01*
X145836495Y-82452326D01*
X145847226Y-82451386D01*
X146231297Y-82434617D01*
X146236706Y-82434500D01*
X146299892Y-82434500D01*
X196168108Y-82434500D01*
X196231294Y-82434500D01*
X196236702Y-82434617D01*
G37*
%TD.AperFunction*%
%TD*%
M02*
