%TF.GenerationSoftware,KiCad,Pcbnew,9.0.0*%
%TF.CreationDate,2026-04-02T13:29:36+02:00*%
%TF.ProjectId,Sch_matique_PCB,536368e9-6d61-4746-9971-75655f504342,rev?*%
%TF.SameCoordinates,Original*%
%TF.FileFunction,Soldermask,Bot*%
%TF.FilePolarity,Negative*%
%FSLAX46Y46*%
G04 Gerber Fmt 4.6, Leading zero omitted, Abs format (unit mm)*
G04 Created by KiCad (PCBNEW 9.0.0) date 2026-04-02 13:29:36*
%MOMM*%
%LPD*%
G01*
G04 APERTURE LIST*
G04 Aperture macros list*
%AMRoundRect*
0 Rectangle with rounded corners*
0 $1 Rounding radius*
0 $2 $3 $4 $5 $6 $7 $8 $9 X,Y pos of 4 corners*
0 Add a 4 corners polygon primitive as box body*
4,1,4,$2,$3,$4,$5,$6,$7,$8,$9,$2,$3,0*
0 Add four circle primitives for the rounded corners*
1,1,$1+$1,$2,$3*
1,1,$1+$1,$4,$5*
1,1,$1+$1,$6,$7*
1,1,$1+$1,$8,$9*
0 Add four rect primitives between the rounded corners*
20,1,$1+$1,$2,$3,$4,$5,0*
20,1,$1+$1,$4,$5,$6,$7,0*
20,1,$1+$1,$6,$7,$8,$9,0*
20,1,$1+$1,$8,$9,$2,$3,0*%
G04 Aperture macros list end*
%ADD10C,5.600000*%
%ADD11R,1.700000X1.700000*%
%ADD12O,1.700000X1.700000*%
%ADD13C,1.700000*%
%ADD14RoundRect,0.250000X0.600000X-0.600000X0.600000X0.600000X-0.600000X0.600000X-0.600000X-0.600000X0*%
%ADD15O,1.200000X1.750000*%
%ADD16RoundRect,0.250000X-0.350000X-0.625000X0.350000X-0.625000X0.350000X0.625000X-0.350000X0.625000X0*%
G04 APERTURE END LIST*
D10*
%TO.C,H4*%
X146234000Y-136934000D03*
%TD*%
%TO.C,H1*%
X146234000Y-86934000D03*
%TD*%
%TO.C,H3*%
X196234000Y-136934000D03*
%TD*%
D11*
%TO.C,J17*%
X146234000Y-109154000D03*
D12*
X146234000Y-111694000D03*
X146234000Y-114234000D03*
X146234000Y-116774000D03*
X146234000Y-119314000D03*
X146234000Y-121854000D03*
X146234000Y-124394000D03*
X146234000Y-126934000D03*
X146234000Y-129474000D03*
%TD*%
D13*
%TO.C,J19*%
X171234000Y-86394000D03*
X171234000Y-88934000D03*
X168694000Y-86394000D03*
X168694000Y-88934000D03*
X166154000Y-86394000D03*
X166154000Y-88934000D03*
X163614000Y-86394000D03*
X163614000Y-88934000D03*
X161074000Y-86394000D03*
X161074000Y-88934000D03*
X158534000Y-86394000D03*
X158534000Y-88934000D03*
X155994000Y-86394000D03*
D14*
X155994000Y-88934000D03*
%TD*%
D11*
%TO.C,J14*%
X175234000Y-136394000D03*
D12*
X175234000Y-138934000D03*
%TD*%
%TO.C,J9*%
X197234000Y-98384000D03*
X194694000Y-98384000D03*
D11*
X192154000Y-98384000D03*
%TD*%
D12*
%TO.C,J6*%
X197234000Y-112334000D03*
X194694000Y-112334000D03*
D11*
X192154000Y-112334000D03*
%TD*%
D12*
%TO.C,J7*%
X197234000Y-107684000D03*
X194694000Y-107684000D03*
D11*
X192154000Y-107684000D03*
%TD*%
%TO.C,J12*%
X163234000Y-136394000D03*
D12*
X163234000Y-138934000D03*
%TD*%
%TO.C,J10*%
X197234000Y-93734000D03*
X194694000Y-93734000D03*
D11*
X192154000Y-93734000D03*
%TD*%
%TO.C,J13*%
X169234000Y-136394000D03*
D12*
X169234000Y-138934000D03*
%TD*%
%TO.C,J5*%
X197234000Y-116984000D03*
X194694000Y-116984000D03*
D11*
X192154000Y-116984000D03*
%TD*%
D12*
%TO.C,J4*%
X197234000Y-121634000D03*
X194694000Y-121634000D03*
D11*
X192154000Y-121634000D03*
%TD*%
%TO.C,J18*%
X145774000Y-92774000D03*
D12*
X145774000Y-95314000D03*
X145774000Y-97854000D03*
X145774000Y-100394000D03*
X145774000Y-102934000D03*
%TD*%
D10*
%TO.C,H2*%
X196234000Y-86934000D03*
%TD*%
D11*
%TO.C,J15*%
X181234000Y-136394000D03*
D12*
X181234000Y-138934000D03*
%TD*%
%TO.C,J8*%
X197234000Y-103034000D03*
X194694000Y-103034000D03*
D11*
X192154000Y-103034000D03*
%TD*%
D12*
%TO.C,J1*%
X197234000Y-130934000D03*
X194694000Y-130934000D03*
D11*
X192154000Y-130934000D03*
%TD*%
%TO.C,J16*%
X187234000Y-136394000D03*
D12*
X187234000Y-138934000D03*
%TD*%
%TO.C,J3*%
X197234000Y-126284000D03*
X194694000Y-126284000D03*
D11*
X192154000Y-126284000D03*
%TD*%
%TO.C,J11*%
X156234000Y-136394000D03*
D12*
X156234000Y-138934000D03*
%TD*%
D15*
%TO.C,J2*%
X188234000Y-85934000D03*
D16*
X186234000Y-85934000D03*
%TD*%
M02*
